%TF.GenerationSoftware,KiCad,Pcbnew,7.0.7-7.0.7~ubuntu22.04.1*%
%TF.CreationDate,2023-09-18T01:56:03+01:00*%
%TF.ProjectId,cam_delay_meas_photo,63616d5f-6465-46c6-9179-5f6d6561735f,rev?*%
%TF.SameCoordinates,Original*%
%TF.FileFunction,Legend,Top*%
%TF.FilePolarity,Positive*%
%FSLAX46Y46*%
G04 Gerber Fmt 4.6, Leading zero omitted, Abs format (unit mm)*
G04 Created by KiCad (PCBNEW 7.0.7-7.0.7~ubuntu22.04.1) date 2023-09-18 01:56:03*
%MOMM*%
%LPD*%
G01*
G04 APERTURE LIST*
%ADD10C,0.120000*%
%ADD11C,0.200000*%
G04 APERTURE END LIST*
D10*
%TO.C,D3*%
X122615000Y-102865000D02*
X122615000Y-104335000D01*
X122615000Y-104335000D02*
X124900000Y-104335000D01*
X124900000Y-102865000D02*
X122615000Y-102865000D01*
%TO.C,D1*%
X104615000Y-102865000D02*
X104615000Y-104335000D01*
X104615000Y-104335000D02*
X106900000Y-104335000D01*
X106900000Y-102865000D02*
X104615000Y-102865000D01*
D11*
%TO.C,J1*%
X109950000Y-114775000D02*
X101350000Y-114775000D01*
X109950000Y-106575000D02*
X109950000Y-114775000D01*
X101350000Y-114775000D02*
X101350000Y-105375000D01*
%TO.C,J2*%
X128450000Y-114775000D02*
X119850000Y-114775000D01*
X128450000Y-106575000D02*
X128450000Y-114775000D01*
X119850000Y-114775000D02*
X119850000Y-105375000D01*
D10*
%TO.C,U2*%
X104500000Y-50555000D02*
X104500000Y-50855000D01*
X104500000Y-50555000D02*
X125500000Y-50555000D01*
X104500000Y-52955000D02*
X104500000Y-53355000D01*
X104500000Y-53222000D02*
X107507000Y-53222000D01*
X104500000Y-55555000D02*
X104500000Y-55955000D01*
X104500000Y-58055000D02*
X104500000Y-58455000D01*
X104500000Y-60655000D02*
X104500000Y-61055000D01*
X104500000Y-63155000D02*
X104500000Y-63555000D01*
X104500000Y-65655000D02*
X104500000Y-66055000D01*
X104500000Y-68255000D02*
X104500000Y-68655000D01*
X104500000Y-70755000D02*
X104500000Y-71155000D01*
X104500000Y-73355000D02*
X104500000Y-73755000D01*
X104500000Y-75855000D02*
X104500000Y-76255000D01*
X104500000Y-78355000D02*
X104500000Y-78755000D01*
X104500000Y-80955000D02*
X104500000Y-81355000D01*
X104500000Y-83455000D02*
X104500000Y-83855000D01*
X104500000Y-86055000D02*
X104500000Y-86455000D01*
X104500000Y-88555000D02*
X104500000Y-88955000D01*
X104500000Y-91155000D02*
X104500000Y-91555000D01*
X104500000Y-93655000D02*
X104500000Y-94055000D01*
X104500000Y-96155000D02*
X104500000Y-96555000D01*
X104500000Y-98755000D02*
X104500000Y-99155000D01*
X107507000Y-53222000D02*
X107507000Y-50555000D01*
X111300000Y-101555000D02*
X104500000Y-101555000D01*
X113500000Y-101555000D02*
X113900000Y-101555000D01*
X116100000Y-101555000D02*
X116500000Y-101555000D01*
X125500000Y-50555000D02*
X125500000Y-50855000D01*
X125500000Y-52955000D02*
X125500000Y-53355000D01*
X125500000Y-55555000D02*
X125500000Y-55955000D01*
X125500000Y-58055000D02*
X125500000Y-58455000D01*
X125500000Y-60655000D02*
X125500000Y-61055000D01*
X125500000Y-63155000D02*
X125500000Y-63555000D01*
X125500000Y-65655000D02*
X125500000Y-66055000D01*
X125500000Y-68255000D02*
X125500000Y-68655000D01*
X125500000Y-70755000D02*
X125500000Y-71155000D01*
X125500000Y-73355000D02*
X125500000Y-73755000D01*
X125500000Y-75855000D02*
X125500000Y-76255000D01*
X125500000Y-78355000D02*
X125500000Y-78755000D01*
X125500000Y-80955000D02*
X125500000Y-81355000D01*
X125500000Y-83455000D02*
X125500000Y-83855000D01*
X125500000Y-86055000D02*
X125500000Y-86455000D01*
X125500000Y-88555000D02*
X125500000Y-88955000D01*
X125500000Y-91155000D02*
X125500000Y-91555000D01*
X125500000Y-93655000D02*
X125500000Y-94055000D01*
X125500000Y-96155000D02*
X125500000Y-96555000D01*
X125500000Y-98755000D02*
X125500000Y-99155000D01*
X125500000Y-101555000D02*
X118700000Y-101555000D01*
%TO.C,D2*%
X113515000Y-102865000D02*
X113515000Y-104335000D01*
X113515000Y-104335000D02*
X115800000Y-104335000D01*
X115800000Y-102865000D02*
X113515000Y-102865000D01*
%TD*%
M02*
