%TF.GenerationSoftware,KiCad,Pcbnew,7.0.7-7.0.7~ubuntu22.04.1*%
%TF.CreationDate,2023-09-18T01:56:03+01:00*%
%TF.ProjectId,cam_delay_meas_photo,63616d5f-6465-46c6-9179-5f6d6561735f,rev?*%
%TF.SameCoordinates,Original*%
%TF.FileFunction,Copper,L1,Top*%
%TF.FilePolarity,Positive*%
%FSLAX46Y46*%
G04 Gerber Fmt 4.6, Leading zero omitted, Abs format (unit mm)*
G04 Created by KiCad (PCBNEW 7.0.7-7.0.7~ubuntu22.04.1) date 2023-09-18 01:56:03*
%MOMM*%
%LPD*%
G01*
G04 APERTURE LIST*
G04 Aperture macros list*
%AMRoundRect*
0 Rectangle with rounded corners*
0 $1 Rounding radius*
0 $2 $3 $4 $5 $6 $7 $8 $9 X,Y pos of 4 corners*
0 Add a 4 corners polygon primitive as box body*
4,1,4,$2,$3,$4,$5,$6,$7,$8,$9,$2,$3,0*
0 Add four circle primitives for the rounded corners*
1,1,$1+$1,$2,$3*
1,1,$1+$1,$4,$5*
1,1,$1+$1,$6,$7*
1,1,$1+$1,$8,$9*
0 Add four rect primitives between the rounded corners*
20,1,$1+$1,$2,$3,$4,$5,0*
20,1,$1+$1,$4,$5,$6,$7,0*
20,1,$1+$1,$6,$7,$8,$9,0*
20,1,$1+$1,$8,$9,$2,$3,0*%
G04 Aperture macros list end*
%TA.AperFunction,SMDPad,CuDef*%
%ADD10RoundRect,0.218750X-0.218750X-0.256250X0.218750X-0.256250X0.218750X0.256250X-0.218750X0.256250X0*%
%TD*%
%TA.AperFunction,ComponentPad*%
%ADD11R,2.025000X2.025000*%
%TD*%
%TA.AperFunction,ComponentPad*%
%ADD12C,2.025000*%
%TD*%
%TA.AperFunction,SMDPad,CuDef*%
%ADD13R,3.500000X1.700000*%
%TD*%
%TA.AperFunction,SMDPad,CuDef*%
%ADD14R,1.700000X3.500000*%
%TD*%
%TA.AperFunction,ViaPad*%
%ADD15C,0.800000*%
%TD*%
%TA.AperFunction,Conductor*%
%ADD16C,0.250000*%
%TD*%
G04 APERTURE END LIST*
D10*
%TO.P,D3,1,K*%
%TO.N,Net-(D3-K)*%
X123312500Y-103600000D03*
%TO.P,D3,2,A*%
%TO.N,+3V3*%
X124887500Y-103600000D03*
%TD*%
%TO.P,D1,1,K*%
%TO.N,Net-(D1-K)*%
X105312500Y-103600000D03*
%TO.P,D1,2,A*%
%TO.N,+3V3*%
X106887500Y-103600000D03*
%TD*%
D11*
%TO.P,J1,1,Pin_1*%
%TO.N,+3V3*%
X107500000Y-106575000D03*
D12*
%TO.P,J1,2,Pin_2*%
%TO.N,Net-(J1-Pin_2)*%
X104000000Y-106575000D03*
%TD*%
D11*
%TO.P,J2,1,Pin_1*%
%TO.N,Net-(J2-Pin_1)*%
X126000000Y-106575000D03*
D12*
%TO.P,J2,2,Pin_2*%
%TO.N,Net-(J2-Pin_2)*%
X122500000Y-106575000D03*
%TD*%
D13*
%TO.P,U2,1,GPIO0*%
%TO.N,/UART_TX*%
X105210000Y-51925000D03*
%TO.P,U2,2,GPIO1*%
%TO.N,/UART_RX*%
X105210000Y-54465000D03*
%TO.P,U2,3,GND*%
%TO.N,GND*%
X105210000Y-57005000D03*
%TO.P,U2,4,GPIO2*%
%TO.N,unconnected-(U2-GPIO2-Pad4)*%
X105210000Y-59545000D03*
%TO.P,U2,5,GPIO3*%
%TO.N,unconnected-(U2-GPIO3-Pad5)*%
X105210000Y-62085000D03*
%TO.P,U2,6,GPIO4*%
%TO.N,unconnected-(U2-GPIO4-Pad6)*%
X105210000Y-64625000D03*
%TO.P,U2,7,GPIO5*%
%TO.N,unconnected-(U2-GPIO5-Pad7)*%
X105210000Y-67165000D03*
%TO.P,U2,8,GND*%
%TO.N,GND*%
X105210000Y-69705000D03*
%TO.P,U2,9,GPIO6*%
%TO.N,unconnected-(U2-GPIO6-Pad9)*%
X105210000Y-72245000D03*
%TO.P,U2,10,GPIO7*%
%TO.N,unconnected-(U2-GPIO7-Pad10)*%
X105210000Y-74785000D03*
%TO.P,U2,11,GPIO8*%
%TO.N,/SDA*%
X105210000Y-77325000D03*
%TO.P,U2,12,GPIO9*%
%TO.N,/SCL*%
X105210000Y-79865000D03*
%TO.P,U2,13,GND*%
%TO.N,GND*%
X105210000Y-82405000D03*
%TO.P,U2,14,GPIO10*%
%TO.N,unconnected-(U2-GPIO10-Pad14)*%
X105210000Y-84945000D03*
%TO.P,U2,15,GPIO11*%
%TO.N,unconnected-(U2-GPIO11-Pad15)*%
X105210000Y-87485000D03*
%TO.P,U2,16,GPIO12*%
%TO.N,unconnected-(U2-GPIO12-Pad16)*%
X105210000Y-90025000D03*
%TO.P,U2,17,GPIO13*%
%TO.N,unconnected-(U2-GPIO13-Pad17)*%
X105210000Y-92565000D03*
%TO.P,U2,18,GND*%
%TO.N,GND*%
X105210000Y-95105000D03*
%TO.P,U2,19,GPIO14*%
%TO.N,/LED_CTRL*%
X105210000Y-97645000D03*
%TO.P,U2,20,GPIO15*%
%TO.N,unconnected-(U2-GPIO15-Pad20)*%
X105210000Y-100185000D03*
%TO.P,U2,21,GPIO16*%
%TO.N,/STATUS*%
X124790000Y-100185000D03*
%TO.P,U2,22,GPIO17*%
%TO.N,unconnected-(U2-GPIO17-Pad22)*%
X124790000Y-97645000D03*
%TO.P,U2,23,GND*%
%TO.N,GND*%
X124790000Y-95105000D03*
%TO.P,U2,24,GPIO18*%
%TO.N,unconnected-(U2-GPIO18-Pad24)*%
X124790000Y-92565000D03*
%TO.P,U2,25,GPIO19*%
%TO.N,unconnected-(U2-GPIO19-Pad25)*%
X124790000Y-90025000D03*
%TO.P,U2,26,GPIO20*%
%TO.N,unconnected-(U2-GPIO20-Pad26)*%
X124790000Y-87485000D03*
%TO.P,U2,27,GPIO21*%
%TO.N,unconnected-(U2-GPIO21-Pad27)*%
X124790000Y-84945000D03*
%TO.P,U2,28,GND*%
%TO.N,GND*%
X124790000Y-82405000D03*
%TO.P,U2,29,GPIO22*%
%TO.N,/NCOMP*%
X124790000Y-79865000D03*
%TO.P,U2,30,RUN*%
%TO.N,unconnected-(U2-RUN-Pad30)*%
X124790000Y-77325000D03*
%TO.P,U2,31,GPIO26_ADC0*%
%TO.N,/PHOTO*%
X124790000Y-74785000D03*
%TO.P,U2,32,GPIO27_ADC1*%
%TO.N,unconnected-(U2-GPIO27_ADC1-Pad32)*%
X124790000Y-72245000D03*
%TO.P,U2,33,AGND*%
%TO.N,GND*%
X124790000Y-69705000D03*
%TO.P,U2,34,GPIO28_ADC2*%
%TO.N,unconnected-(U2-GPIO28_ADC2-Pad34)*%
X124790000Y-67165000D03*
%TO.P,U2,35,ADC_VREF*%
%TO.N,unconnected-(U2-ADC_VREF-Pad35)*%
X124790000Y-64625000D03*
%TO.P,U2,36,3V3*%
%TO.N,+3V3*%
X124790000Y-62085000D03*
%TO.P,U2,37,3V3_EN*%
%TO.N,unconnected-(U2-3V3_EN-Pad37)*%
X124790000Y-59545000D03*
%TO.P,U2,38,GND*%
%TO.N,GND*%
X124790000Y-57005000D03*
%TO.P,U2,39,VSYS*%
%TO.N,unconnected-(U2-VSYS-Pad39)*%
X124790000Y-54465000D03*
%TO.P,U2,40,VBUS*%
%TO.N,unconnected-(U2-VBUS-Pad40)*%
X124790000Y-51925000D03*
D14*
%TO.P,U2,41,SWCLK*%
%TO.N,/SWCLK*%
X112460000Y-100855000D03*
%TO.P,U2,42,GND*%
%TO.N,GND*%
X115000000Y-100855000D03*
%TO.P,U2,43,SWDIO*%
%TO.N,/SWD*%
X117540000Y-100855000D03*
%TD*%
D10*
%TO.P,D2,1,K*%
%TO.N,Net-(D2-K)*%
X114212500Y-103600000D03*
%TO.P,D2,2,A*%
%TO.N,+3V3*%
X115787500Y-103600000D03*
%TD*%
D15*
%TO.N,+3V3*%
X117175000Y-103900000D03*
X115550000Y-94125000D03*
X120600000Y-88625000D03*
X112965000Y-76674000D03*
X121500000Y-73425000D03*
X127425000Y-103500000D03*
X114850000Y-79200000D03*
X112965000Y-72549000D03*
X122300000Y-62100000D03*
%TO.N,GND*%
X122275000Y-69675000D03*
X108375000Y-57000000D03*
X107925000Y-82400000D03*
X122300000Y-57000000D03*
X107725000Y-95100000D03*
X127325000Y-95100000D03*
X121900000Y-82400000D03*
X118050000Y-80700000D03*
X107925000Y-69725000D03*
%TO.N,/SCL*%
X107925000Y-79850000D03*
%TO.N,/SDA*%
X107950000Y-77325000D03*
%TO.N,/PHOTO*%
X122350000Y-74775000D03*
%TO.N,/COMP*%
X118050000Y-76325000D03*
%TO.N,/UART_RX*%
X101375000Y-55125000D03*
%TO.N,/UART_TX*%
X102850000Y-51925000D03*
%TO.N,/SWCLK*%
X120062500Y-94262500D03*
%TO.N,/SWD*%
X120512500Y-96312500D03*
%TO.N,/LED_CTRL*%
X107725000Y-97650000D03*
%TO.N,Net-(D1-K)*%
X102650000Y-103650000D03*
%TO.N,Net-(D2-K)*%
X113249502Y-103900000D03*
%TO.N,/PHOTOT*%
X121850000Y-98749500D03*
X121850000Y-83700000D03*
%TO.N,/STATUS*%
X120000000Y-99400000D03*
%TO.N,Net-(D3-K)*%
X119425000Y-103600000D03*
%TO.N,/NCOMP*%
X116150000Y-80925000D03*
%TD*%
D16*
%TO.N,/NCOMP*%
X116150000Y-80925000D02*
X116750000Y-81525000D01*
X116750000Y-81525000D02*
X120275000Y-81525000D01*
X120275000Y-81525000D02*
X121935000Y-79865000D01*
X121935000Y-79865000D02*
X123890000Y-79865000D01*
%TO.N,+3V3*%
X115550000Y-94125000D02*
X109225000Y-100450000D01*
X123965000Y-62085000D02*
X122315000Y-62085000D01*
X127325000Y-103600000D02*
X127425000Y-103500000D01*
X120625000Y-72550000D02*
X112965000Y-72550000D01*
X112965000Y-77315000D02*
X112965000Y-76674000D01*
X120600000Y-88625000D02*
X120575000Y-88625000D01*
X115550000Y-94125000D02*
X120600000Y-89075000D01*
X124585000Y-103600000D02*
X127325000Y-103600000D01*
X109225000Y-100450000D02*
X109225000Y-105375000D01*
X114850000Y-79200000D02*
X112965000Y-77315000D01*
X117175000Y-103900000D02*
X116875000Y-103600000D01*
X122315000Y-62085000D02*
X122300000Y-62100000D01*
X120600000Y-89075000D02*
X120600000Y-88625000D01*
X120575000Y-88625000D02*
X114850000Y-82900000D01*
X116875000Y-103600000D02*
X115787500Y-103600000D01*
X114850000Y-82900000D02*
X114850000Y-79200000D01*
X108025000Y-106575000D02*
X106887500Y-105437500D01*
X121500000Y-73425000D02*
X120625000Y-72550000D01*
X112965000Y-72550000D02*
X112965000Y-76690000D01*
X106887500Y-105437500D02*
X106887500Y-103600000D01*
X109225000Y-105375000D02*
X108025000Y-106575000D01*
%TO.N,/SCL*%
X106200000Y-79850000D02*
X106185000Y-79865000D01*
X107925000Y-79850000D02*
X106200000Y-79850000D01*
%TO.N,/SDA*%
X107950000Y-77325000D02*
X106185000Y-77325000D01*
%TO.N,/PHOTO*%
X122360000Y-74785000D02*
X122350000Y-74775000D01*
X123965000Y-74785000D02*
X122360000Y-74785000D01*
%TO.N,/UART_RX*%
X102035000Y-54465000D02*
X106185000Y-54465000D01*
X101375000Y-55125000D02*
X102035000Y-54465000D01*
%TO.N,/UART_TX*%
X102850000Y-51925000D02*
X106185000Y-51925000D01*
%TO.N,/SWCLK*%
X116750000Y-97575000D02*
X113800000Y-97575000D01*
X112535000Y-98840000D02*
X112535000Y-99955000D01*
X120062500Y-94262500D02*
X116750000Y-97575000D01*
X113800000Y-97575000D02*
X112535000Y-98840000D01*
%TO.N,/SWD*%
X120512500Y-96312500D02*
X117615000Y-99210000D01*
X117615000Y-99210000D02*
X117615000Y-99955000D01*
%TO.N,/LED_CTRL*%
X107725000Y-97650000D02*
X106190000Y-97650000D01*
X106190000Y-97650000D02*
X106185000Y-97645000D01*
%TO.N,Net-(D1-K)*%
X102700000Y-103600000D02*
X102650000Y-103650000D01*
X105312500Y-103600000D02*
X102700000Y-103600000D01*
%TO.N,Net-(D2-K)*%
X113549502Y-103600000D02*
X114212500Y-103600000D01*
X113249502Y-103900000D02*
X113549502Y-103600000D01*
%TO.N,/PHOTOT*%
X121850000Y-83700000D02*
X121850000Y-98749500D01*
%TO.N,/STATUS*%
X123965000Y-100185000D02*
X120785000Y-100185000D01*
X120785000Y-100185000D02*
X120000000Y-99400000D01*
%TO.N,Net-(D3-K)*%
X119425000Y-103600000D02*
X123615000Y-103600000D01*
%TD*%
%TA.AperFunction,Conductor*%
%TO.N,GND*%
G36*
X129758691Y-50219407D02*
G01*
X129794655Y-50268907D01*
X129799500Y-50299500D01*
X129799500Y-114700500D01*
X129780593Y-114758691D01*
X129731093Y-114794655D01*
X129700500Y-114799500D01*
X100299500Y-114799500D01*
X100241309Y-114780593D01*
X100205345Y-114731093D01*
X100200500Y-114700500D01*
X100200500Y-106575004D01*
X102782367Y-106575004D01*
X102800864Y-106786432D01*
X102800865Y-106786439D01*
X102800866Y-106786440D01*
X102855799Y-106991455D01*
X102945499Y-107183817D01*
X103067239Y-107357679D01*
X103217321Y-107507761D01*
X103391183Y-107629501D01*
X103583545Y-107719201D01*
X103788560Y-107774134D01*
X103788564Y-107774134D01*
X103788567Y-107774135D01*
X103999996Y-107792633D01*
X104000000Y-107792633D01*
X104000004Y-107792633D01*
X104211432Y-107774135D01*
X104211433Y-107774134D01*
X104211440Y-107774134D01*
X104416455Y-107719201D01*
X104608817Y-107629501D01*
X104782679Y-107507761D01*
X104932761Y-107357679D01*
X105054501Y-107183817D01*
X105144201Y-106991455D01*
X105199134Y-106786440D01*
X105217633Y-106575000D01*
X105199134Y-106363560D01*
X105144201Y-106158545D01*
X105054501Y-105966184D01*
X104932761Y-105792321D01*
X104782679Y-105642239D01*
X104782675Y-105642236D01*
X104782674Y-105642235D01*
X104686221Y-105574698D01*
X104608817Y-105520499D01*
X104593241Y-105513236D01*
X104542007Y-105489345D01*
X104416455Y-105430799D01*
X104211440Y-105375866D01*
X104211439Y-105375865D01*
X104211432Y-105375864D01*
X104000004Y-105357367D01*
X103999996Y-105357367D01*
X103788567Y-105375864D01*
X103583540Y-105430800D01*
X103391194Y-105520493D01*
X103391186Y-105520497D01*
X103217325Y-105642235D01*
X103067235Y-105792325D01*
X102945497Y-105966186D01*
X102945493Y-105966194D01*
X102855800Y-106158540D01*
X102800864Y-106363567D01*
X102782367Y-106574995D01*
X102782367Y-106575004D01*
X100200500Y-106575004D01*
X100200500Y-103650000D01*
X102044318Y-103650000D01*
X102064955Y-103806758D01*
X102064957Y-103806766D01*
X102125462Y-103952838D01*
X102125462Y-103952839D01*
X102218864Y-104074563D01*
X102221718Y-104078282D01*
X102347159Y-104174536D01*
X102347160Y-104174536D01*
X102347161Y-104174537D01*
X102433950Y-104210486D01*
X102493238Y-104235044D01*
X102610809Y-104250522D01*
X102649999Y-104255682D01*
X102650000Y-104255682D01*
X102650001Y-104255682D01*
X102689190Y-104250522D01*
X102806762Y-104235044D01*
X102866051Y-104210484D01*
X102880701Y-104205715D01*
X102900357Y-104200973D01*
X103476309Y-103934641D01*
X103517861Y-103925500D01*
X104347259Y-103925500D01*
X104396753Y-103938760D01*
X104826883Y-104187064D01*
X104837722Y-104195381D01*
X104837944Y-104195077D01*
X104844245Y-104199654D01*
X104844249Y-104199658D01*
X104962580Y-104259951D01*
X105029130Y-104270491D01*
X105060751Y-104275500D01*
X105060754Y-104275500D01*
X105564249Y-104275500D01*
X105592803Y-104270976D01*
X105662420Y-104259951D01*
X105780751Y-104199658D01*
X105874658Y-104105751D01*
X105934951Y-103987420D01*
X105950500Y-103889248D01*
X106249500Y-103889248D01*
X106265049Y-103987420D01*
X106277921Y-104012683D01*
X106284838Y-104030209D01*
X106288454Y-104042754D01*
X106288453Y-104042754D01*
X106288456Y-104042761D01*
X106288457Y-104042762D01*
X106330713Y-104124537D01*
X106543070Y-104535497D01*
X106552986Y-104595874D01*
X106550200Y-104608520D01*
X106290041Y-105505575D01*
X106290041Y-105505576D01*
X106286996Y-105519735D01*
X106286995Y-105519743D01*
X106286994Y-105519745D01*
X106286888Y-105520493D01*
X106285512Y-105530157D01*
X106283791Y-105547494D01*
X106283923Y-105548276D01*
X106285609Y-105558223D01*
X106287000Y-105574762D01*
X106286999Y-107607246D01*
X106287001Y-107607258D01*
X106291426Y-107629501D01*
X106298633Y-107665731D01*
X106342948Y-107732052D01*
X106409269Y-107776367D01*
X106453731Y-107785211D01*
X106467741Y-107787998D01*
X106467746Y-107787998D01*
X106467752Y-107788000D01*
X106467753Y-107788000D01*
X108532247Y-107788000D01*
X108532248Y-107788000D01*
X108590731Y-107776367D01*
X108657052Y-107732052D01*
X108701367Y-107665731D01*
X108713000Y-107607248D01*
X108713000Y-107170287D01*
X108723129Y-107126665D01*
X108789498Y-106991455D01*
X108993916Y-106575004D01*
X121282367Y-106575004D01*
X121300864Y-106786432D01*
X121300865Y-106786439D01*
X121300866Y-106786440D01*
X121355799Y-106991455D01*
X121445499Y-107183817D01*
X121567239Y-107357679D01*
X121717321Y-107507761D01*
X121891183Y-107629501D01*
X122083545Y-107719201D01*
X122288560Y-107774134D01*
X122288564Y-107774134D01*
X122288567Y-107774135D01*
X122499996Y-107792633D01*
X122500000Y-107792633D01*
X122500004Y-107792633D01*
X122711432Y-107774135D01*
X122711433Y-107774134D01*
X122711440Y-107774134D01*
X122916455Y-107719201D01*
X123108817Y-107629501D01*
X123140600Y-107607246D01*
X124787000Y-107607246D01*
X124787001Y-107607258D01*
X124791426Y-107629501D01*
X124798633Y-107665731D01*
X124842948Y-107732052D01*
X124909269Y-107776367D01*
X124953731Y-107785211D01*
X124967741Y-107787998D01*
X124967746Y-107787998D01*
X124967752Y-107788000D01*
X124967753Y-107788000D01*
X127032247Y-107788000D01*
X127032248Y-107788000D01*
X127090731Y-107776367D01*
X127157052Y-107732052D01*
X127201367Y-107665731D01*
X127213000Y-107607248D01*
X127213000Y-105542752D01*
X127210494Y-105530156D01*
X127210211Y-105528731D01*
X127201367Y-105484269D01*
X127157052Y-105417948D01*
X127094070Y-105375864D01*
X127090733Y-105373634D01*
X127090731Y-105373633D01*
X127090728Y-105373632D01*
X127090727Y-105373632D01*
X127032258Y-105362001D01*
X127032248Y-105362000D01*
X124967752Y-105362000D01*
X124967751Y-105362000D01*
X124967741Y-105362001D01*
X124909272Y-105373632D01*
X124909266Y-105373634D01*
X124842951Y-105417945D01*
X124842945Y-105417951D01*
X124798634Y-105484266D01*
X124798632Y-105484272D01*
X124787001Y-105542741D01*
X124787000Y-105542753D01*
X124787000Y-107607246D01*
X123140600Y-107607246D01*
X123282679Y-107507761D01*
X123432761Y-107357679D01*
X123554501Y-107183817D01*
X123644201Y-106991455D01*
X123699134Y-106786440D01*
X123717633Y-106575000D01*
X123699134Y-106363560D01*
X123644201Y-106158545D01*
X123554501Y-105966184D01*
X123432761Y-105792321D01*
X123282679Y-105642239D01*
X123282675Y-105642236D01*
X123282674Y-105642235D01*
X123186221Y-105574698D01*
X123108817Y-105520499D01*
X123093241Y-105513236D01*
X123042007Y-105489345D01*
X122916455Y-105430799D01*
X122711440Y-105375866D01*
X122711439Y-105375865D01*
X122711432Y-105375864D01*
X122500004Y-105357367D01*
X122499996Y-105357367D01*
X122288567Y-105375864D01*
X122083540Y-105430800D01*
X121891194Y-105520493D01*
X121891186Y-105520497D01*
X121717325Y-105642235D01*
X121567235Y-105792325D01*
X121445497Y-105966186D01*
X121445493Y-105966194D01*
X121355800Y-106158540D01*
X121300864Y-106363567D01*
X121282367Y-106574995D01*
X121282367Y-106575004D01*
X108993916Y-106575004D01*
X109480608Y-105583493D01*
X109482168Y-105580571D01*
X109498708Y-105551922D01*
X109501008Y-105548309D01*
X109524554Y-105514684D01*
X109524941Y-105513236D01*
X109534838Y-105489345D01*
X109535586Y-105488048D01*
X109535585Y-105488048D01*
X109535588Y-105488045D01*
X109542713Y-105447628D01*
X109543641Y-105443443D01*
X109554263Y-105403807D01*
X109550687Y-105362934D01*
X109550500Y-105358634D01*
X109550500Y-103900000D01*
X112643820Y-103900000D01*
X112664457Y-104056758D01*
X112664459Y-104056766D01*
X112724964Y-104202838D01*
X112724964Y-104202839D01*
X112821215Y-104328276D01*
X112821220Y-104328282D01*
X112946661Y-104424536D01*
X113092740Y-104485044D01*
X113210311Y-104500522D01*
X113249501Y-104505682D01*
X113249502Y-104505682D01*
X113249503Y-104505682D01*
X113280854Y-104501554D01*
X113406264Y-104485044D01*
X113552343Y-104424536D01*
X113677784Y-104328282D01*
X113682693Y-104321883D01*
X113693506Y-104311001D01*
X113692992Y-104310464D01*
X113696503Y-104307104D01*
X113724478Y-104274504D01*
X113776721Y-104242657D01*
X113837707Y-104247599D01*
X113844541Y-104250759D01*
X113854202Y-104255682D01*
X113862580Y-104259951D01*
X113960751Y-104275500D01*
X113960754Y-104275500D01*
X114464249Y-104275500D01*
X114492803Y-104270976D01*
X114562420Y-104259951D01*
X114680751Y-104199658D01*
X114774658Y-104105751D01*
X114834951Y-103987420D01*
X114850500Y-103889246D01*
X114850500Y-103310754D01*
X114834951Y-103212580D01*
X114774658Y-103094249D01*
X114680751Y-103000342D01*
X114664788Y-102992208D01*
X114621525Y-102948944D01*
X114611954Y-102888512D01*
X114639732Y-102833996D01*
X114694249Y-102806219D01*
X114709735Y-102805000D01*
X114899999Y-102805000D01*
X114899999Y-100955000D01*
X115100000Y-100955000D01*
X115100000Y-102804999D01*
X115100001Y-102805000D01*
X115290265Y-102805000D01*
X115348456Y-102823907D01*
X115384420Y-102873407D01*
X115384420Y-102934593D01*
X115348456Y-102984093D01*
X115335211Y-102992209D01*
X115319250Y-103000341D01*
X115225341Y-103094250D01*
X115165050Y-103212576D01*
X115165049Y-103212580D01*
X115149500Y-103310751D01*
X115149500Y-103889248D01*
X115155683Y-103928286D01*
X115165048Y-103987416D01*
X115165049Y-103987419D01*
X115165050Y-103987423D01*
X115206338Y-104068454D01*
X115225342Y-104105751D01*
X115319249Y-104199658D01*
X115437580Y-104259951D01*
X115504130Y-104270491D01*
X115535751Y-104275500D01*
X115535754Y-104275500D01*
X116039249Y-104275500D01*
X116067803Y-104270976D01*
X116137420Y-104259951D01*
X116255751Y-104199658D01*
X116255756Y-104199652D01*
X116262058Y-104195075D01*
X116262280Y-104195381D01*
X116273114Y-104187064D01*
X116437287Y-104092291D01*
X116497134Y-104079574D01*
X116553028Y-104104463D01*
X116561909Y-104113560D01*
X116730433Y-104309943D01*
X116733563Y-104313332D01*
X116737181Y-104317250D01*
X116736986Y-104317429D01*
X116744664Y-104325606D01*
X116746718Y-104328282D01*
X116872159Y-104424536D01*
X117018238Y-104485044D01*
X117135809Y-104500522D01*
X117174999Y-104505682D01*
X117175000Y-104505682D01*
X117175001Y-104505682D01*
X117206352Y-104501554D01*
X117331762Y-104485044D01*
X117477841Y-104424536D01*
X117603282Y-104328282D01*
X117699536Y-104202841D01*
X117760044Y-104056762D01*
X117780682Y-103900000D01*
X117779266Y-103889248D01*
X117775522Y-103860809D01*
X117760044Y-103743238D01*
X117724226Y-103656766D01*
X117700713Y-103600000D01*
X118819318Y-103600000D01*
X118839955Y-103756758D01*
X118839957Y-103756766D01*
X118900462Y-103902838D01*
X118900462Y-103902839D01*
X118993844Y-104024537D01*
X118996718Y-104028282D01*
X119122159Y-104124536D01*
X119122160Y-104124536D01*
X119122161Y-104124537D01*
X119202405Y-104157775D01*
X119268238Y-104185044D01*
X119379243Y-104199658D01*
X119424999Y-104205682D01*
X119425000Y-104205682D01*
X119425001Y-104205682D01*
X119470757Y-104199658D01*
X119581762Y-104185044D01*
X119581765Y-104185042D01*
X119581768Y-104185042D01*
X119627904Y-104165931D01*
X119649529Y-104159739D01*
X119661314Y-104157776D01*
X119661314Y-104157775D01*
X119661320Y-104157775D01*
X120258849Y-103931895D01*
X120293854Y-103925500D01*
X122347259Y-103925500D01*
X122396753Y-103938760D01*
X122826883Y-104187064D01*
X122837722Y-104195381D01*
X122837944Y-104195077D01*
X122844245Y-104199654D01*
X122844249Y-104199658D01*
X122962580Y-104259951D01*
X123029130Y-104270491D01*
X123060751Y-104275500D01*
X123060754Y-104275500D01*
X123564249Y-104275500D01*
X123592803Y-104270976D01*
X123662420Y-104259951D01*
X123780751Y-104199658D01*
X123874658Y-104105751D01*
X123934951Y-103987420D01*
X123950500Y-103889248D01*
X124249500Y-103889248D01*
X124255683Y-103928286D01*
X124265048Y-103987416D01*
X124265049Y-103987419D01*
X124265050Y-103987423D01*
X124306338Y-104068454D01*
X124325342Y-104105751D01*
X124419249Y-104199658D01*
X124537580Y-104259951D01*
X124604130Y-104270491D01*
X124635751Y-104275500D01*
X124635754Y-104275500D01*
X125139249Y-104275500D01*
X125167803Y-104270976D01*
X125237420Y-104259951D01*
X125355751Y-104199658D01*
X125355756Y-104199652D01*
X125362058Y-104195075D01*
X125362280Y-104195381D01*
X125373114Y-104187065D01*
X125803246Y-103938760D01*
X125852741Y-103925500D01*
X126588560Y-103925500D01*
X126610792Y-103928029D01*
X127216137Y-104067581D01*
X127216147Y-104067581D01*
X127219781Y-104068129D01*
X127242931Y-104074561D01*
X127268238Y-104085044D01*
X127372745Y-104098802D01*
X127424999Y-104105682D01*
X127425000Y-104105682D01*
X127425001Y-104105682D01*
X127456352Y-104101554D01*
X127581762Y-104085044D01*
X127727841Y-104024536D01*
X127853282Y-103928282D01*
X127949536Y-103802841D01*
X128010044Y-103656762D01*
X128030682Y-103500000D01*
X128010044Y-103343238D01*
X127996589Y-103310754D01*
X127949537Y-103197161D01*
X127949537Y-103197160D01*
X127853286Y-103071723D01*
X127853285Y-103071722D01*
X127853282Y-103071718D01*
X127853277Y-103071714D01*
X127853276Y-103071713D01*
X127760261Y-103000341D01*
X127727841Y-102975464D01*
X127727840Y-102975463D01*
X127727838Y-102975462D01*
X127581766Y-102914957D01*
X127581758Y-102914955D01*
X127425001Y-102894318D01*
X127424999Y-102894318D01*
X127268236Y-102914956D01*
X127189283Y-102947659D01*
X127185256Y-102949126D01*
X127161548Y-102956618D01*
X127161543Y-102956620D01*
X127145230Y-102965584D01*
X127140337Y-102967933D01*
X127122156Y-102975465D01*
X127115292Y-102980732D01*
X127102706Y-102988950D01*
X126605317Y-103262264D01*
X126557641Y-103274500D01*
X125852742Y-103274500D01*
X125803247Y-103261239D01*
X125734777Y-103221713D01*
X125419884Y-103039932D01*
X125373115Y-103012933D01*
X125362277Y-103004618D01*
X125362056Y-103004923D01*
X125355753Y-103000344D01*
X125355751Y-103000342D01*
X125287535Y-102965584D01*
X125237423Y-102940050D01*
X125237420Y-102940049D01*
X125202972Y-102934593D01*
X125139249Y-102924500D01*
X125139246Y-102924500D01*
X124635754Y-102924500D01*
X124635751Y-102924500D01*
X124537580Y-102940049D01*
X124537576Y-102940050D01*
X124419250Y-103000341D01*
X124325341Y-103094250D01*
X124265050Y-103212576D01*
X124265049Y-103212580D01*
X124249500Y-103310751D01*
X124249500Y-103889248D01*
X123950500Y-103889248D01*
X123950500Y-103889246D01*
X123950500Y-103310754D01*
X123934951Y-103212580D01*
X123874658Y-103094249D01*
X123780751Y-103000342D01*
X123748861Y-102984093D01*
X123662423Y-102940050D01*
X123662420Y-102940049D01*
X123627972Y-102934593D01*
X123564249Y-102924500D01*
X123564246Y-102924500D01*
X123060754Y-102924500D01*
X123060751Y-102924500D01*
X122962580Y-102940049D01*
X122962573Y-102940051D01*
X122844253Y-103000338D01*
X122837948Y-103004920D01*
X122837727Y-103004616D01*
X122826889Y-103012929D01*
X122676897Y-103099517D01*
X122396751Y-103261239D01*
X122347258Y-103274500D01*
X120293857Y-103274500D01*
X120258851Y-103268104D01*
X120136157Y-103221723D01*
X119678360Y-103048666D01*
X119666858Y-103044318D01*
X119661317Y-103042223D01*
X119661312Y-103042222D01*
X119648247Y-103039932D01*
X119627463Y-103033885D01*
X119581762Y-103014956D01*
X119581759Y-103014955D01*
X119581758Y-103014955D01*
X119425001Y-102994318D01*
X119424999Y-102994318D01*
X119268241Y-103014955D01*
X119268233Y-103014957D01*
X119122161Y-103075462D01*
X119122160Y-103075462D01*
X118996723Y-103171713D01*
X118996713Y-103171723D01*
X118900462Y-103297160D01*
X118900462Y-103297161D01*
X118839957Y-103443233D01*
X118839955Y-103443241D01*
X118819318Y-103599999D01*
X118819318Y-103600000D01*
X117700713Y-103600000D01*
X117699537Y-103597161D01*
X117699537Y-103597160D01*
X117603286Y-103471723D01*
X117603285Y-103471722D01*
X117603282Y-103471718D01*
X117603277Y-103471714D01*
X117603276Y-103471713D01*
X117477838Y-103375462D01*
X117331766Y-103314957D01*
X117331759Y-103314955D01*
X117174993Y-103294317D01*
X117173889Y-103294317D01*
X116977322Y-103287045D01*
X116970547Y-103286326D01*
X116947648Y-103282287D01*
X116943434Y-103281353D01*
X116903807Y-103270736D01*
X116862926Y-103274312D01*
X116858626Y-103274500D01*
X116752742Y-103274500D01*
X116703247Y-103261239D01*
X116634777Y-103221713D01*
X116319884Y-103039932D01*
X116273115Y-103012933D01*
X116262277Y-103004618D01*
X116262056Y-103004923D01*
X116255753Y-103000344D01*
X116255751Y-103000342D01*
X116187535Y-102965584D01*
X116137423Y-102940050D01*
X116137420Y-102940049D01*
X116125362Y-102938139D01*
X116040560Y-102924707D01*
X115986044Y-102896929D01*
X115958267Y-102842412D01*
X115967839Y-102781980D01*
X115989185Y-102757974D01*
X115987297Y-102756086D01*
X115994193Y-102749189D01*
X116038396Y-102683036D01*
X116049990Y-102624746D01*
X116489500Y-102624746D01*
X116489501Y-102624758D01*
X116501094Y-102683036D01*
X116501133Y-102683231D01*
X116545448Y-102749552D01*
X116611769Y-102793867D01*
X116656231Y-102802711D01*
X116670241Y-102805498D01*
X116670246Y-102805498D01*
X116670252Y-102805500D01*
X116670253Y-102805500D01*
X118409747Y-102805500D01*
X118409748Y-102805500D01*
X118468231Y-102793867D01*
X118534552Y-102749552D01*
X118578867Y-102683231D01*
X118590500Y-102624748D01*
X118590500Y-100191198D01*
X118592647Y-100170691D01*
X118595666Y-100156432D01*
X118595667Y-100156423D01*
X118604989Y-99400000D01*
X119394318Y-99400000D01*
X119414955Y-99556758D01*
X119414957Y-99556766D01*
X119475462Y-99702838D01*
X119475462Y-99702839D01*
X119537901Y-99784211D01*
X119571718Y-99828282D01*
X119571722Y-99828285D01*
X119571723Y-99828286D01*
X119587762Y-99840593D01*
X119697159Y-99924536D01*
X119743304Y-99943649D01*
X119762967Y-99954559D01*
X119772698Y-99961511D01*
X120319380Y-100208259D01*
X120354935Y-100224307D01*
X120384211Y-100244537D01*
X120543257Y-100403584D01*
X120546175Y-100406769D01*
X120572544Y-100438193D01*
X120572545Y-100438194D01*
X120608073Y-100458706D01*
X120611712Y-100461025D01*
X120645311Y-100484551D01*
X120645313Y-100484552D01*
X120645316Y-100484554D01*
X120646767Y-100484942D01*
X120670659Y-100494840D01*
X120671186Y-100495143D01*
X120671955Y-100495588D01*
X120712351Y-100502710D01*
X120716548Y-100503640D01*
X120756193Y-100514264D01*
X120797077Y-100510687D01*
X120801377Y-100510500D01*
X122071915Y-100510500D01*
X122130106Y-100529407D01*
X122136161Y-100534177D01*
X122898422Y-101184341D01*
X122913691Y-101193282D01*
X122931091Y-101203473D01*
X122933578Y-101205030D01*
X122961767Y-101223866D01*
X122961769Y-101223867D01*
X123020252Y-101235500D01*
X123020254Y-101235500D01*
X123024242Y-101235892D01*
X123027722Y-101235957D01*
X123027726Y-101235958D01*
X123027729Y-101235957D01*
X123032293Y-101236043D01*
X123038755Y-101235500D01*
X126559747Y-101235500D01*
X126559748Y-101235500D01*
X126618231Y-101223867D01*
X126684552Y-101179552D01*
X126728867Y-101113231D01*
X126740500Y-101054748D01*
X126740500Y-99315252D01*
X126728867Y-99256769D01*
X126684552Y-99190448D01*
X126677382Y-99185657D01*
X126618233Y-99146134D01*
X126618231Y-99146133D01*
X126618228Y-99146132D01*
X126618227Y-99146132D01*
X126559758Y-99134501D01*
X126559748Y-99134500D01*
X123020252Y-99134500D01*
X123020249Y-99134500D01*
X122961768Y-99146132D01*
X122961767Y-99146133D01*
X122925733Y-99170210D01*
X122922391Y-99172256D01*
X122898431Y-99185652D01*
X122898426Y-99185656D01*
X122136161Y-99835823D01*
X122079617Y-99859200D01*
X122071915Y-99859500D01*
X120960834Y-99859500D01*
X120902643Y-99840593D01*
X120890830Y-99830504D01*
X120844537Y-99784211D01*
X120824307Y-99754935D01*
X120561513Y-99172702D01*
X120561509Y-99172695D01*
X120553893Y-99161843D01*
X120543465Y-99142858D01*
X120528913Y-99107726D01*
X120524536Y-99097159D01*
X120524535Y-99097158D01*
X120524535Y-99097157D01*
X120428286Y-98971723D01*
X120428285Y-98971722D01*
X120428282Y-98971718D01*
X120428277Y-98971714D01*
X120428276Y-98971713D01*
X120340683Y-98904501D01*
X120302841Y-98875464D01*
X120302840Y-98875463D01*
X120302838Y-98875462D01*
X120156766Y-98814957D01*
X120156758Y-98814955D01*
X120000001Y-98794318D01*
X119999999Y-98794318D01*
X119843241Y-98814955D01*
X119843233Y-98814957D01*
X119697161Y-98875462D01*
X119697160Y-98875462D01*
X119571723Y-98971713D01*
X119571713Y-98971723D01*
X119475462Y-99097160D01*
X119475462Y-99097161D01*
X119414957Y-99243233D01*
X119414955Y-99243241D01*
X119394318Y-99399999D01*
X119394318Y-99400000D01*
X118604989Y-99400000D01*
X118608994Y-99075048D01*
X118613006Y-98749500D01*
X121244318Y-98749500D01*
X121264955Y-98906258D01*
X121264957Y-98906266D01*
X121325462Y-99052338D01*
X121325462Y-99052339D01*
X121417817Y-99172698D01*
X121421718Y-99177782D01*
X121421722Y-99177785D01*
X121421723Y-99177786D01*
X121431981Y-99185657D01*
X121547159Y-99274036D01*
X121547160Y-99274036D01*
X121547161Y-99274037D01*
X121646663Y-99315252D01*
X121693238Y-99334544D01*
X121810809Y-99350022D01*
X121849999Y-99355182D01*
X121850000Y-99355182D01*
X121850001Y-99355182D01*
X121881352Y-99351054D01*
X122006762Y-99334544D01*
X122152841Y-99274036D01*
X122278282Y-99177782D01*
X122374536Y-99052341D01*
X122435044Y-98906262D01*
X122455682Y-98749500D01*
X122435044Y-98592738D01*
X122415929Y-98546591D01*
X122409740Y-98524979D01*
X122408036Y-98514746D01*
X122839500Y-98514746D01*
X122839501Y-98514758D01*
X122847657Y-98555756D01*
X122851133Y-98573231D01*
X122895448Y-98639552D01*
X122961769Y-98683867D01*
X123006231Y-98692711D01*
X123020241Y-98695498D01*
X123020246Y-98695498D01*
X123020252Y-98695500D01*
X123020253Y-98695500D01*
X126559747Y-98695500D01*
X126559748Y-98695500D01*
X126618231Y-98683867D01*
X126684552Y-98639552D01*
X126728867Y-98573231D01*
X126740500Y-98514748D01*
X126740500Y-96775252D01*
X126728867Y-96716769D01*
X126684552Y-96650448D01*
X126632009Y-96615339D01*
X126618233Y-96606134D01*
X126618231Y-96606133D01*
X126618228Y-96606132D01*
X126618227Y-96606132D01*
X126559758Y-96594501D01*
X126559748Y-96594500D01*
X123020252Y-96594500D01*
X123020251Y-96594500D01*
X123020241Y-96594501D01*
X122961772Y-96606132D01*
X122961766Y-96606134D01*
X122895451Y-96650445D01*
X122895445Y-96650451D01*
X122851134Y-96716766D01*
X122851132Y-96716772D01*
X122839501Y-96775241D01*
X122839500Y-96775253D01*
X122839500Y-98514746D01*
X122408036Y-98514746D01*
X122407775Y-98513179D01*
X122303527Y-98237404D01*
X122181896Y-97915646D01*
X122175500Y-97880640D01*
X122175500Y-95974700D01*
X122840000Y-95974700D01*
X122851603Y-96033036D01*
X122895806Y-96099189D01*
X122895810Y-96099193D01*
X122961963Y-96143396D01*
X123020299Y-96154999D01*
X123020303Y-96155000D01*
X124689999Y-96155000D01*
X124690000Y-96154998D01*
X124890000Y-96154998D01*
X124890001Y-96155000D01*
X126559697Y-96155000D01*
X126559700Y-96154999D01*
X126618036Y-96143396D01*
X126684189Y-96099193D01*
X126684193Y-96099189D01*
X126728396Y-96033036D01*
X126739999Y-95974700D01*
X126740000Y-95974697D01*
X126739999Y-95205000D01*
X124890001Y-95205000D01*
X124890000Y-95205001D01*
X124890000Y-96154998D01*
X124690000Y-96154998D01*
X124690000Y-95205001D01*
X124689999Y-95205000D01*
X122840001Y-95205000D01*
X122840000Y-95205001D01*
X122840000Y-95974700D01*
X122175500Y-95974700D01*
X122175500Y-95004999D01*
X122840000Y-95004999D01*
X122840001Y-95005000D01*
X124689999Y-95005000D01*
X124690000Y-95004999D01*
X124890000Y-95004999D01*
X124890001Y-95005000D01*
X126739999Y-95005000D01*
X126739999Y-95004999D01*
X126740000Y-94235302D01*
X126739999Y-94235299D01*
X126728396Y-94176963D01*
X126684193Y-94110810D01*
X126684189Y-94110806D01*
X126618036Y-94066603D01*
X126559700Y-94055000D01*
X124890001Y-94055000D01*
X124890000Y-94055001D01*
X124890000Y-95004999D01*
X124690000Y-95004999D01*
X124690000Y-94055001D01*
X124689999Y-94055000D01*
X123020299Y-94055000D01*
X122961963Y-94066603D01*
X122895810Y-94110806D01*
X122895806Y-94110810D01*
X122851603Y-94176963D01*
X122840000Y-94235299D01*
X122840000Y-95004999D01*
X122175500Y-95004999D01*
X122175500Y-93434746D01*
X122839500Y-93434746D01*
X122839501Y-93434758D01*
X122851132Y-93493227D01*
X122851133Y-93493231D01*
X122895448Y-93559552D01*
X122961769Y-93603867D01*
X123006231Y-93612711D01*
X123020241Y-93615498D01*
X123020246Y-93615498D01*
X123020252Y-93615500D01*
X123020253Y-93615500D01*
X126559747Y-93615500D01*
X126559748Y-93615500D01*
X126618231Y-93603867D01*
X126684552Y-93559552D01*
X126728867Y-93493231D01*
X126740500Y-93434748D01*
X126740500Y-91695252D01*
X126728867Y-91636769D01*
X126684552Y-91570448D01*
X126684548Y-91570445D01*
X126618233Y-91526134D01*
X126618231Y-91526133D01*
X126618228Y-91526132D01*
X126618227Y-91526132D01*
X126559758Y-91514501D01*
X126559748Y-91514500D01*
X123020252Y-91514500D01*
X123020251Y-91514500D01*
X123020241Y-91514501D01*
X122961772Y-91526132D01*
X122961766Y-91526134D01*
X122895451Y-91570445D01*
X122895445Y-91570451D01*
X122851134Y-91636766D01*
X122851132Y-91636772D01*
X122839501Y-91695241D01*
X122839500Y-91695253D01*
X122839500Y-93434746D01*
X122175500Y-93434746D01*
X122175500Y-90894746D01*
X122839500Y-90894746D01*
X122839501Y-90894758D01*
X122851132Y-90953227D01*
X122851133Y-90953231D01*
X122895448Y-91019552D01*
X122961769Y-91063867D01*
X123006231Y-91072711D01*
X123020241Y-91075498D01*
X123020246Y-91075498D01*
X123020252Y-91075500D01*
X123020253Y-91075500D01*
X126559747Y-91075500D01*
X126559748Y-91075500D01*
X126618231Y-91063867D01*
X126684552Y-91019552D01*
X126728867Y-90953231D01*
X126740500Y-90894748D01*
X126740500Y-89155252D01*
X126728867Y-89096769D01*
X126684552Y-89030448D01*
X126684548Y-89030445D01*
X126618233Y-88986134D01*
X126618231Y-88986133D01*
X126618228Y-88986132D01*
X126618227Y-88986132D01*
X126559758Y-88974501D01*
X126559748Y-88974500D01*
X123020252Y-88974500D01*
X123020251Y-88974500D01*
X123020241Y-88974501D01*
X122961772Y-88986132D01*
X122961766Y-88986134D01*
X122895451Y-89030445D01*
X122895445Y-89030451D01*
X122851134Y-89096766D01*
X122851132Y-89096772D01*
X122839501Y-89155241D01*
X122839500Y-89155253D01*
X122839500Y-90894746D01*
X122175500Y-90894746D01*
X122175500Y-88354746D01*
X122839500Y-88354746D01*
X122839501Y-88354758D01*
X122851132Y-88413227D01*
X122851134Y-88413233D01*
X122887888Y-88468238D01*
X122895448Y-88479552D01*
X122961769Y-88523867D01*
X123006231Y-88532711D01*
X123020241Y-88535498D01*
X123020246Y-88535498D01*
X123020252Y-88535500D01*
X123020253Y-88535500D01*
X126559747Y-88535500D01*
X126559748Y-88535500D01*
X126618231Y-88523867D01*
X126684552Y-88479552D01*
X126728867Y-88413231D01*
X126740500Y-88354748D01*
X126740500Y-86615252D01*
X126728867Y-86556769D01*
X126684552Y-86490448D01*
X126684548Y-86490445D01*
X126618233Y-86446134D01*
X126618231Y-86446133D01*
X126618228Y-86446132D01*
X126618227Y-86446132D01*
X126559758Y-86434501D01*
X126559748Y-86434500D01*
X123020252Y-86434500D01*
X123020251Y-86434500D01*
X123020241Y-86434501D01*
X122961772Y-86446132D01*
X122961766Y-86446134D01*
X122895451Y-86490445D01*
X122895445Y-86490451D01*
X122851134Y-86556766D01*
X122851132Y-86556772D01*
X122839501Y-86615241D01*
X122839500Y-86615253D01*
X122839500Y-88354746D01*
X122175500Y-88354746D01*
X122175500Y-85814746D01*
X122839500Y-85814746D01*
X122839501Y-85814758D01*
X122851132Y-85873227D01*
X122851133Y-85873231D01*
X122895448Y-85939552D01*
X122961769Y-85983867D01*
X123006231Y-85992711D01*
X123020241Y-85995498D01*
X123020246Y-85995498D01*
X123020252Y-85995500D01*
X123020253Y-85995500D01*
X126559747Y-85995500D01*
X126559748Y-85995500D01*
X126618231Y-85983867D01*
X126684552Y-85939552D01*
X126728867Y-85873231D01*
X126740500Y-85814748D01*
X126740500Y-84075252D01*
X126728867Y-84016769D01*
X126684552Y-83950448D01*
X126684548Y-83950445D01*
X126618233Y-83906134D01*
X126618231Y-83906133D01*
X126618228Y-83906132D01*
X126618227Y-83906132D01*
X126559758Y-83894501D01*
X126559748Y-83894500D01*
X123020252Y-83894500D01*
X123020251Y-83894500D01*
X123020241Y-83894501D01*
X122961772Y-83906132D01*
X122961766Y-83906134D01*
X122895451Y-83950445D01*
X122895445Y-83950451D01*
X122851134Y-84016766D01*
X122851132Y-84016772D01*
X122839501Y-84075241D01*
X122839500Y-84075253D01*
X122839500Y-85814746D01*
X122175500Y-85814746D01*
X122175500Y-84568858D01*
X122181896Y-84533852D01*
X122181896Y-84533851D01*
X122407775Y-83936320D01*
X122410063Y-83923259D01*
X122416113Y-83902463D01*
X122419411Y-83894501D01*
X122435044Y-83856762D01*
X122455682Y-83700000D01*
X122435044Y-83543238D01*
X122374537Y-83397161D01*
X122374537Y-83397160D01*
X122280570Y-83274700D01*
X122840000Y-83274700D01*
X122851603Y-83333036D01*
X122895806Y-83399189D01*
X122895810Y-83399193D01*
X122961963Y-83443396D01*
X123020299Y-83454999D01*
X123020303Y-83455000D01*
X124689999Y-83455000D01*
X124690000Y-83454999D01*
X124890000Y-83454999D01*
X124890001Y-83455000D01*
X126559697Y-83455000D01*
X126559700Y-83454999D01*
X126618036Y-83443396D01*
X126684189Y-83399193D01*
X126684193Y-83399189D01*
X126728396Y-83333036D01*
X126739999Y-83274700D01*
X126740000Y-83274697D01*
X126739999Y-82505001D01*
X126739999Y-82505000D01*
X124890001Y-82505000D01*
X124890000Y-82505001D01*
X124890000Y-83454999D01*
X124690000Y-83454999D01*
X124690000Y-82505001D01*
X124689999Y-82505000D01*
X122840001Y-82505000D01*
X122840000Y-82505001D01*
X122840000Y-83274700D01*
X122280570Y-83274700D01*
X122278286Y-83271723D01*
X122278285Y-83271722D01*
X122278282Y-83271718D01*
X122278277Y-83271714D01*
X122278276Y-83271713D01*
X122152838Y-83175462D01*
X122006766Y-83114957D01*
X122006758Y-83114955D01*
X121850001Y-83094318D01*
X121849999Y-83094318D01*
X121693241Y-83114955D01*
X121693233Y-83114957D01*
X121547161Y-83175462D01*
X121547160Y-83175462D01*
X121421723Y-83271713D01*
X121421713Y-83271723D01*
X121325462Y-83397160D01*
X121325462Y-83397161D01*
X121264957Y-83543233D01*
X121264955Y-83543241D01*
X121244318Y-83699999D01*
X121244318Y-83700000D01*
X121264956Y-83856762D01*
X121280588Y-83894501D01*
X121284067Y-83902900D01*
X121290257Y-83924515D01*
X121292223Y-83936320D01*
X121518104Y-84533851D01*
X121524500Y-84568858D01*
X121524500Y-97880639D01*
X121518104Y-97915645D01*
X121292224Y-98513177D01*
X121289933Y-98526247D01*
X121283885Y-98547033D01*
X121264956Y-98592733D01*
X121264956Y-98592735D01*
X121244318Y-98749499D01*
X121244318Y-98749500D01*
X118613006Y-98749500D01*
X118613472Y-98711646D01*
X118633094Y-98653695D01*
X118642453Y-98642871D01*
X120128291Y-97157033D01*
X120157561Y-97136807D01*
X120739801Y-96874011D01*
X120750649Y-96866397D01*
X120769632Y-96855968D01*
X120815341Y-96837036D01*
X120940782Y-96740782D01*
X121037036Y-96615341D01*
X121097544Y-96469262D01*
X121118182Y-96312500D01*
X121097544Y-96155738D01*
X121097238Y-96154999D01*
X121037037Y-96009661D01*
X121037037Y-96009660D01*
X120940786Y-95884223D01*
X120940785Y-95884222D01*
X120940782Y-95884218D01*
X120940777Y-95884214D01*
X120940776Y-95884213D01*
X120815338Y-95787962D01*
X120669266Y-95727457D01*
X120669258Y-95727455D01*
X120512501Y-95706818D01*
X120512499Y-95706818D01*
X120355741Y-95727455D01*
X120355733Y-95727457D01*
X120209661Y-95787962D01*
X120209660Y-95787962D01*
X120084223Y-95884213D01*
X120084213Y-95884223D01*
X119987964Y-96009657D01*
X119968850Y-96055801D01*
X119957947Y-96075455D01*
X119950989Y-96085195D01*
X119950988Y-96085198D01*
X119688189Y-96667437D01*
X119667959Y-96696713D01*
X118132553Y-98232119D01*
X118111846Y-98247968D01*
X116991370Y-98891353D01*
X116942073Y-98904500D01*
X116670252Y-98904500D01*
X116670251Y-98904500D01*
X116670241Y-98904501D01*
X116611772Y-98916132D01*
X116611766Y-98916134D01*
X116545451Y-98960445D01*
X116545445Y-98960451D01*
X116501134Y-99026766D01*
X116501132Y-99026772D01*
X116489501Y-99085241D01*
X116489500Y-99085253D01*
X116489500Y-102624746D01*
X116049990Y-102624746D01*
X116049999Y-102624700D01*
X116050000Y-102624697D01*
X116049999Y-100955001D01*
X116049999Y-100955000D01*
X115100000Y-100955000D01*
X114899999Y-100955000D01*
X113950001Y-100955000D01*
X113950000Y-100955001D01*
X113950000Y-102624700D01*
X113961603Y-102683036D01*
X114005806Y-102749189D01*
X114012703Y-102756086D01*
X114010069Y-102758719D01*
X114036821Y-102792632D01*
X114039242Y-102853769D01*
X114005265Y-102904653D01*
X113959439Y-102924707D01*
X113862580Y-102940049D01*
X113862576Y-102940050D01*
X113744250Y-103000341D01*
X113647116Y-103097475D01*
X113635926Y-103109645D01*
X113456023Y-103264977D01*
X113399622Y-103288696D01*
X113394985Y-103288976D01*
X113250619Y-103294318D01*
X113249499Y-103294318D01*
X113092743Y-103314955D01*
X113092735Y-103314957D01*
X112946663Y-103375462D01*
X112946662Y-103375462D01*
X112821225Y-103471713D01*
X112821215Y-103471723D01*
X112724964Y-103597160D01*
X112724964Y-103597161D01*
X112664459Y-103743233D01*
X112664457Y-103743241D01*
X112643820Y-103899999D01*
X112643820Y-103900000D01*
X109550500Y-103900000D01*
X109550500Y-102624746D01*
X111409500Y-102624746D01*
X111409501Y-102624758D01*
X111421094Y-102683036D01*
X111421133Y-102683231D01*
X111465448Y-102749552D01*
X111531769Y-102793867D01*
X111576231Y-102802711D01*
X111590241Y-102805498D01*
X111590246Y-102805498D01*
X111590252Y-102805500D01*
X111590253Y-102805500D01*
X113329747Y-102805500D01*
X113329748Y-102805500D01*
X113388231Y-102793867D01*
X113454552Y-102749552D01*
X113498867Y-102683231D01*
X113510500Y-102624748D01*
X113510500Y-100754999D01*
X113950000Y-100754999D01*
X113950001Y-100755000D01*
X114899999Y-100755000D01*
X114899999Y-98905000D01*
X115100000Y-98905000D01*
X115100000Y-100754999D01*
X115100001Y-100755000D01*
X116049999Y-100755000D01*
X116049999Y-100754999D01*
X116050000Y-99085302D01*
X116049999Y-99085299D01*
X116038396Y-99026963D01*
X115994193Y-98960810D01*
X115994189Y-98960806D01*
X115928036Y-98916603D01*
X115869700Y-98905000D01*
X115100000Y-98905000D01*
X114899999Y-98905000D01*
X114130299Y-98905000D01*
X114071963Y-98916603D01*
X114005810Y-98960806D01*
X114005806Y-98960810D01*
X113961603Y-99026963D01*
X113950000Y-99085299D01*
X113950000Y-100754999D01*
X113510500Y-100754999D01*
X113510500Y-99116856D01*
X113512171Y-99098744D01*
X113512267Y-99098230D01*
X113511905Y-99089282D01*
X113508470Y-99075049D01*
X113508470Y-99075048D01*
X113498868Y-99026772D01*
X113496925Y-99022082D01*
X113494901Y-99015859D01*
X113494696Y-99015931D01*
X113493099Y-99011345D01*
X113493097Y-99011341D01*
X113493096Y-99011336D01*
X113310516Y-98616507D01*
X113303255Y-98555756D01*
X113330370Y-98504954D01*
X113905830Y-97929496D01*
X113960347Y-97901719D01*
X113975834Y-97900500D01*
X116733626Y-97900500D01*
X116737926Y-97900687D01*
X116778807Y-97904264D01*
X116818452Y-97893640D01*
X116822650Y-97892710D01*
X116863045Y-97885588D01*
X116864345Y-97884838D01*
X116888236Y-97874942D01*
X116888464Y-97874880D01*
X116889684Y-97874554D01*
X116923303Y-97851012D01*
X116926911Y-97848714D01*
X116962455Y-97828194D01*
X116988838Y-97796750D01*
X116991726Y-97793598D01*
X119678292Y-95107032D01*
X119707562Y-95086806D01*
X120289801Y-94824011D01*
X120300649Y-94816397D01*
X120319632Y-94805968D01*
X120365341Y-94787036D01*
X120490782Y-94690782D01*
X120587036Y-94565341D01*
X120647544Y-94419262D01*
X120668182Y-94262500D01*
X120647544Y-94105738D01*
X120587037Y-93959661D01*
X120587037Y-93959660D01*
X120490786Y-93834223D01*
X120490785Y-93834222D01*
X120490782Y-93834218D01*
X120490777Y-93834214D01*
X120490776Y-93834213D01*
X120365338Y-93737962D01*
X120219266Y-93677457D01*
X120219258Y-93677455D01*
X120062501Y-93656818D01*
X120062499Y-93656818D01*
X119905741Y-93677455D01*
X119905733Y-93677457D01*
X119759661Y-93737962D01*
X119759660Y-93737962D01*
X119634223Y-93834213D01*
X119634213Y-93834223D01*
X119537964Y-93959657D01*
X119518850Y-94005801D01*
X119507947Y-94025455D01*
X119500989Y-94035195D01*
X119500988Y-94035198D01*
X119238190Y-94617435D01*
X119217960Y-94646711D01*
X116644170Y-97220504D01*
X116589653Y-97248281D01*
X116574166Y-97249500D01*
X113816366Y-97249500D01*
X113812065Y-97249312D01*
X113775726Y-97246133D01*
X113771194Y-97245737D01*
X113771189Y-97245737D01*
X113731570Y-97256353D01*
X113727354Y-97257288D01*
X113686956Y-97264411D01*
X113686948Y-97264414D01*
X113685640Y-97265170D01*
X113661786Y-97275051D01*
X113660324Y-97275442D01*
X113660314Y-97275447D01*
X113626716Y-97298971D01*
X113623075Y-97301290D01*
X113587545Y-97321804D01*
X113561186Y-97353218D01*
X113558268Y-97356402D01*
X112752593Y-98162079D01*
X112732397Y-98176401D01*
X112732891Y-98177213D01*
X112728733Y-98179739D01*
X111790225Y-98884658D01*
X111732342Y-98904488D01*
X111730769Y-98904500D01*
X111590252Y-98904500D01*
X111590251Y-98904500D01*
X111590241Y-98904501D01*
X111531772Y-98916132D01*
X111531766Y-98916134D01*
X111465451Y-98960445D01*
X111465445Y-98960451D01*
X111421134Y-99026766D01*
X111421132Y-99026772D01*
X111409501Y-99085241D01*
X111409500Y-99085253D01*
X111409500Y-102624746D01*
X109550500Y-102624746D01*
X109550500Y-100625833D01*
X109569407Y-100567642D01*
X109579490Y-100555835D01*
X115165791Y-94969533D01*
X115195061Y-94949307D01*
X115777301Y-94686511D01*
X115788149Y-94678897D01*
X115807132Y-94668468D01*
X115852841Y-94649536D01*
X115978282Y-94553282D01*
X116074536Y-94427841D01*
X116093650Y-94381691D01*
X116104562Y-94362027D01*
X116111511Y-94352301D01*
X116374307Y-93770061D01*
X116394533Y-93740791D01*
X120578462Y-89556863D01*
X120583363Y-89552569D01*
X120603520Y-89537131D01*
X120640979Y-89494491D01*
X120643164Y-89492162D01*
X120818589Y-89316737D01*
X120821766Y-89313824D01*
X120853194Y-89287455D01*
X120873709Y-89251919D01*
X120876027Y-89248283D01*
X120887935Y-89231275D01*
X120899553Y-89214684D01*
X120899554Y-89214678D01*
X120903213Y-89206834D01*
X120903959Y-89207182D01*
X120920413Y-89176433D01*
X120990400Y-89096772D01*
X121030004Y-89051694D01*
X121030374Y-89051076D01*
X121033528Y-89046443D01*
X121124536Y-88927841D01*
X121185044Y-88781762D01*
X121205682Y-88625000D01*
X121185044Y-88468238D01*
X121124537Y-88322161D01*
X121124537Y-88322160D01*
X121028286Y-88196723D01*
X121028285Y-88196722D01*
X121028282Y-88196718D01*
X121028277Y-88196714D01*
X121028276Y-88196713D01*
X120902842Y-88100464D01*
X120902836Y-88100461D01*
X120852263Y-88079512D01*
X120834686Y-88070053D01*
X120822102Y-88061542D01*
X120822101Y-88061541D01*
X120822096Y-88061538D01*
X120235192Y-87814511D01*
X120203594Y-87793268D01*
X115204496Y-82794170D01*
X115176719Y-82739653D01*
X115175500Y-82724166D01*
X115175500Y-82304999D01*
X122840000Y-82304999D01*
X122840001Y-82305000D01*
X124689999Y-82305000D01*
X124690000Y-82304999D01*
X124890000Y-82304999D01*
X124890001Y-82305000D01*
X126739999Y-82305000D01*
X126739999Y-82304999D01*
X126740000Y-81535302D01*
X126739999Y-81535299D01*
X126728396Y-81476963D01*
X126684193Y-81410810D01*
X126684189Y-81410806D01*
X126618036Y-81366603D01*
X126559700Y-81355000D01*
X124890001Y-81355000D01*
X124890000Y-81355001D01*
X124890000Y-82304999D01*
X124690000Y-82304999D01*
X124690000Y-81355001D01*
X124689999Y-81355000D01*
X123020299Y-81355000D01*
X122961963Y-81366603D01*
X122895810Y-81410806D01*
X122895806Y-81410810D01*
X122851603Y-81476963D01*
X122840000Y-81535299D01*
X122840000Y-82304999D01*
X115175500Y-82304999D01*
X115175500Y-80925000D01*
X115544318Y-80925000D01*
X115564955Y-81081758D01*
X115564957Y-81081766D01*
X115625462Y-81227838D01*
X115625462Y-81227839D01*
X115625464Y-81227841D01*
X115721718Y-81353282D01*
X115847159Y-81449536D01*
X115893304Y-81468649D01*
X115912967Y-81479559D01*
X115922698Y-81486511D01*
X116497818Y-81746095D01*
X116532926Y-81772691D01*
X116537542Y-81778192D01*
X116537544Y-81778193D01*
X116537545Y-81778194D01*
X116573073Y-81798706D01*
X116576712Y-81801025D01*
X116610311Y-81824551D01*
X116610313Y-81824552D01*
X116610316Y-81824554D01*
X116611767Y-81824942D01*
X116635659Y-81834840D01*
X116636954Y-81835588D01*
X116645854Y-81837157D01*
X116677365Y-81842713D01*
X116681544Y-81843638D01*
X116721193Y-81854263D01*
X116762065Y-81850687D01*
X116766365Y-81850500D01*
X120258626Y-81850500D01*
X120262926Y-81850687D01*
X120303807Y-81854264D01*
X120343452Y-81843640D01*
X120347650Y-81842710D01*
X120388045Y-81835588D01*
X120389345Y-81834838D01*
X120413236Y-81824942D01*
X120413464Y-81824880D01*
X120414684Y-81824554D01*
X120448303Y-81801012D01*
X120451911Y-81798714D01*
X120487455Y-81778194D01*
X120513827Y-81746763D01*
X120516726Y-81743598D01*
X122022916Y-80237408D01*
X122077432Y-80209633D01*
X122137864Y-80219204D01*
X122157159Y-80232087D01*
X122898422Y-80864341D01*
X122913691Y-80873282D01*
X122931091Y-80883473D01*
X122933578Y-80885030D01*
X122961767Y-80903866D01*
X122961769Y-80903867D01*
X123020252Y-80915500D01*
X123020254Y-80915500D01*
X123024242Y-80915892D01*
X123027722Y-80915957D01*
X123027726Y-80915958D01*
X123027729Y-80915957D01*
X123032293Y-80916043D01*
X123038755Y-80915500D01*
X126559747Y-80915500D01*
X126559748Y-80915500D01*
X126618231Y-80903867D01*
X126684552Y-80859552D01*
X126728867Y-80793231D01*
X126740500Y-80734748D01*
X126740500Y-78995252D01*
X126728867Y-78936769D01*
X126684552Y-78870448D01*
X126677382Y-78865657D01*
X126618233Y-78826134D01*
X126618231Y-78826133D01*
X126618228Y-78826132D01*
X126618227Y-78826132D01*
X126559758Y-78814501D01*
X126559748Y-78814500D01*
X123020252Y-78814500D01*
X123020249Y-78814500D01*
X122961768Y-78826132D01*
X122961767Y-78826133D01*
X122925733Y-78850210D01*
X122922391Y-78852256D01*
X122898431Y-78865652D01*
X122898426Y-78865656D01*
X122136161Y-79515823D01*
X122079617Y-79539200D01*
X122071915Y-79539500D01*
X121951375Y-79539500D01*
X121947074Y-79539312D01*
X121906194Y-79535736D01*
X121866564Y-79546354D01*
X121862348Y-79547289D01*
X121821956Y-79554411D01*
X121821948Y-79554414D01*
X121820640Y-79555170D01*
X121796786Y-79565051D01*
X121795324Y-79565442D01*
X121795316Y-79565446D01*
X121761716Y-79588972D01*
X121758080Y-79591288D01*
X121749875Y-79596025D01*
X121722545Y-79611805D01*
X121696181Y-79643224D01*
X121693263Y-79646408D01*
X120169170Y-81170504D01*
X120114653Y-81198281D01*
X120099166Y-81199500D01*
X117001935Y-81199500D01*
X116943744Y-81180593D01*
X116911701Y-81141228D01*
X116711513Y-80697702D01*
X116711509Y-80697695D01*
X116703893Y-80686843D01*
X116693465Y-80667858D01*
X116674537Y-80622162D01*
X116674535Y-80622157D01*
X116578286Y-80496723D01*
X116578285Y-80496722D01*
X116578282Y-80496718D01*
X116578277Y-80496714D01*
X116578276Y-80496713D01*
X116497904Y-80435042D01*
X116452841Y-80400464D01*
X116452840Y-80400463D01*
X116452838Y-80400462D01*
X116306766Y-80339957D01*
X116306758Y-80339955D01*
X116150001Y-80319318D01*
X116149999Y-80319318D01*
X115993241Y-80339955D01*
X115993233Y-80339957D01*
X115847161Y-80400462D01*
X115847160Y-80400462D01*
X115721723Y-80496713D01*
X115721713Y-80496723D01*
X115625462Y-80622160D01*
X115625462Y-80622161D01*
X115564957Y-80768233D01*
X115564955Y-80768241D01*
X115544318Y-80924999D01*
X115544318Y-80925000D01*
X115175500Y-80925000D01*
X115175500Y-80068858D01*
X115181896Y-80033852D01*
X115310657Y-79693233D01*
X115407775Y-79436320D01*
X115410063Y-79423259D01*
X115416113Y-79402463D01*
X115435044Y-79356762D01*
X115455682Y-79200000D01*
X115435044Y-79043238D01*
X115374537Y-78897161D01*
X115374537Y-78897160D01*
X115278286Y-78771723D01*
X115278285Y-78771722D01*
X115278282Y-78771718D01*
X115278277Y-78771714D01*
X115278276Y-78771713D01*
X115235573Y-78738946D01*
X115152841Y-78675464D01*
X115124130Y-78663571D01*
X115106697Y-78656350D01*
X115087038Y-78645443D01*
X115077300Y-78638486D01*
X114495062Y-78375690D01*
X114465786Y-78355460D01*
X114305072Y-78194746D01*
X122839500Y-78194746D01*
X122839501Y-78194758D01*
X122851132Y-78253227D01*
X122851133Y-78253231D01*
X122895448Y-78319552D01*
X122961769Y-78363867D01*
X123006231Y-78372711D01*
X123020241Y-78375498D01*
X123020246Y-78375498D01*
X123020252Y-78375500D01*
X123020253Y-78375500D01*
X126559747Y-78375500D01*
X126559748Y-78375500D01*
X126618231Y-78363867D01*
X126684552Y-78319552D01*
X126728867Y-78253231D01*
X126740500Y-78194748D01*
X126740500Y-76455252D01*
X126739350Y-76449473D01*
X126737005Y-76437680D01*
X126728867Y-76396769D01*
X126684552Y-76330448D01*
X126677382Y-76325657D01*
X126618233Y-76286134D01*
X126618231Y-76286133D01*
X126618228Y-76286132D01*
X126618227Y-76286132D01*
X126559758Y-76274501D01*
X126559748Y-76274500D01*
X123020252Y-76274500D01*
X123020251Y-76274500D01*
X123020241Y-76274501D01*
X122961772Y-76286132D01*
X122961766Y-76286134D01*
X122895451Y-76330445D01*
X122895445Y-76330451D01*
X122851134Y-76396766D01*
X122851132Y-76396772D01*
X122839501Y-76455241D01*
X122839500Y-76455253D01*
X122839500Y-78194746D01*
X114305072Y-78194746D01*
X113441943Y-77331617D01*
X113414166Y-77277100D01*
X113417922Y-77230624D01*
X113486627Y-77022161D01*
X113526328Y-76901703D01*
X113527518Y-76893304D01*
X113534073Y-76869316D01*
X113550044Y-76830762D01*
X113570682Y-76674000D01*
X113550044Y-76517238D01*
X113530929Y-76471091D01*
X113524740Y-76449479D01*
X113522775Y-76437679D01*
X113480180Y-76325000D01*
X117444318Y-76325000D01*
X117464955Y-76481758D01*
X117464957Y-76481766D01*
X117525462Y-76627838D01*
X117525462Y-76627839D01*
X117611493Y-76739957D01*
X117621718Y-76753282D01*
X117747159Y-76849536D01*
X117747160Y-76849536D01*
X117747161Y-76849537D01*
X117861054Y-76896713D01*
X117893238Y-76910044D01*
X118010809Y-76925522D01*
X118049999Y-76930682D01*
X118050000Y-76930682D01*
X118050001Y-76930682D01*
X118081352Y-76926554D01*
X118206762Y-76910044D01*
X118352841Y-76849536D01*
X118478282Y-76753282D01*
X118574536Y-76627841D01*
X118635044Y-76481762D01*
X118655682Y-76325000D01*
X118635044Y-76168238D01*
X118574537Y-76022161D01*
X118574537Y-76022160D01*
X118478286Y-75896723D01*
X118478285Y-75896722D01*
X118478282Y-75896718D01*
X118478277Y-75896714D01*
X118478276Y-75896713D01*
X118358935Y-75805140D01*
X118352841Y-75800464D01*
X118352840Y-75800463D01*
X118352838Y-75800462D01*
X118206766Y-75739957D01*
X118206758Y-75739955D01*
X118050001Y-75719318D01*
X118049999Y-75719318D01*
X117893241Y-75739955D01*
X117893233Y-75739957D01*
X117747161Y-75800462D01*
X117747160Y-75800462D01*
X117621723Y-75896713D01*
X117621713Y-75896723D01*
X117525462Y-76022160D01*
X117525462Y-76022161D01*
X117464957Y-76168233D01*
X117464955Y-76168241D01*
X117444318Y-76324999D01*
X117444318Y-76325000D01*
X113480180Y-76325000D01*
X113296896Y-75840146D01*
X113290500Y-75805140D01*
X113290500Y-74775000D01*
X121744318Y-74775000D01*
X121764955Y-74931758D01*
X121764957Y-74931766D01*
X121825462Y-75077838D01*
X121825462Y-75077839D01*
X121825464Y-75077841D01*
X121921718Y-75203282D01*
X122047159Y-75299536D01*
X122193238Y-75360044D01*
X122350000Y-75380682D01*
X122429157Y-75370260D01*
X122489316Y-75381410D01*
X122511534Y-75397867D01*
X122881057Y-75761711D01*
X122893903Y-75777240D01*
X122895448Y-75779552D01*
X122961769Y-75823867D01*
X123006231Y-75832711D01*
X123020241Y-75835498D01*
X123020246Y-75835498D01*
X123020252Y-75835500D01*
X123020253Y-75835500D01*
X126559747Y-75835500D01*
X126559748Y-75835500D01*
X126618231Y-75823867D01*
X126684552Y-75779552D01*
X126728867Y-75713231D01*
X126740500Y-75654748D01*
X126740500Y-73915252D01*
X126728867Y-73856769D01*
X126684552Y-73790448D01*
X126684548Y-73790445D01*
X126618233Y-73746134D01*
X126618231Y-73746133D01*
X126618228Y-73746132D01*
X126618227Y-73746132D01*
X126559758Y-73734501D01*
X126559748Y-73734500D01*
X123020252Y-73734500D01*
X123020249Y-73734500D01*
X122961769Y-73746132D01*
X122937562Y-73762307D01*
X122933941Y-73764508D01*
X122932775Y-73765150D01*
X122932703Y-73765198D01*
X122928440Y-73768402D01*
X122895450Y-73790446D01*
X122895444Y-73790452D01*
X122893945Y-73792696D01*
X122875376Y-73813436D01*
X122871399Y-73816781D01*
X122601291Y-74154236D01*
X122550166Y-74187851D01*
X122511079Y-74190524D01*
X122350001Y-74169318D01*
X122349999Y-74169318D01*
X122193241Y-74189955D01*
X122193233Y-74189957D01*
X122047161Y-74250462D01*
X122047160Y-74250462D01*
X121921723Y-74346713D01*
X121921713Y-74346723D01*
X121825462Y-74472160D01*
X121825462Y-74472161D01*
X121764957Y-74618233D01*
X121764955Y-74618241D01*
X121744318Y-74774999D01*
X121744318Y-74775000D01*
X113290500Y-74775000D01*
X113290500Y-73417858D01*
X113296896Y-73382852D01*
X113296896Y-73382851D01*
X113418612Y-73060864D01*
X113456873Y-73013120D01*
X113476319Y-73003227D01*
X113798621Y-72881852D01*
X113833512Y-72875500D01*
X120449166Y-72875500D01*
X120507357Y-72894407D01*
X120519170Y-72904496D01*
X120655460Y-73040786D01*
X120675690Y-73070062D01*
X120938486Y-73652297D01*
X120938491Y-73652307D01*
X120946104Y-73663153D01*
X120956535Y-73682142D01*
X120975462Y-73727837D01*
X120975464Y-73727842D01*
X121043711Y-73816783D01*
X121071718Y-73853282D01*
X121197159Y-73949536D01*
X121343238Y-74010044D01*
X121460809Y-74025522D01*
X121499999Y-74030682D01*
X121500000Y-74030682D01*
X121500001Y-74030682D01*
X121531352Y-74026554D01*
X121656762Y-74010044D01*
X121802841Y-73949536D01*
X121928282Y-73853282D01*
X122024536Y-73727841D01*
X122085044Y-73581762D01*
X122105682Y-73425000D01*
X122085044Y-73268238D01*
X122024537Y-73122161D01*
X122024537Y-73122160D01*
X122018848Y-73114746D01*
X122839500Y-73114746D01*
X122839501Y-73114758D01*
X122851132Y-73173227D01*
X122851133Y-73173231D01*
X122895448Y-73239552D01*
X122961769Y-73283867D01*
X123006231Y-73292711D01*
X123020241Y-73295498D01*
X123020246Y-73295498D01*
X123020252Y-73295500D01*
X123020253Y-73295500D01*
X126559747Y-73295500D01*
X126559748Y-73295500D01*
X126618231Y-73283867D01*
X126684552Y-73239552D01*
X126728867Y-73173231D01*
X126740500Y-73114748D01*
X126740500Y-71375252D01*
X126728867Y-71316769D01*
X126684552Y-71250448D01*
X126684548Y-71250445D01*
X126618233Y-71206134D01*
X126618231Y-71206133D01*
X126618228Y-71206132D01*
X126618227Y-71206132D01*
X126559758Y-71194501D01*
X126559748Y-71194500D01*
X123020252Y-71194500D01*
X123020251Y-71194500D01*
X123020241Y-71194501D01*
X122961772Y-71206132D01*
X122961766Y-71206134D01*
X122895451Y-71250445D01*
X122895445Y-71250451D01*
X122851134Y-71316766D01*
X122851132Y-71316772D01*
X122839501Y-71375241D01*
X122839500Y-71375253D01*
X122839500Y-73114746D01*
X122018848Y-73114746D01*
X121928286Y-72996723D01*
X121928285Y-72996722D01*
X121928282Y-72996718D01*
X121928277Y-72996714D01*
X121928276Y-72996713D01*
X121885573Y-72963946D01*
X121802841Y-72900464D01*
X121774130Y-72888571D01*
X121756697Y-72881350D01*
X121737038Y-72870443D01*
X121727300Y-72863486D01*
X121145062Y-72600690D01*
X121115786Y-72580460D01*
X120866741Y-72331414D01*
X120863822Y-72328229D01*
X120837456Y-72296806D01*
X120814818Y-72283736D01*
X120801918Y-72276288D01*
X120798288Y-72273975D01*
X120764684Y-72250446D01*
X120764679Y-72250443D01*
X120763224Y-72250054D01*
X120739348Y-72240164D01*
X120738045Y-72239411D01*
X120697652Y-72232289D01*
X120693436Y-72231354D01*
X120667153Y-72224312D01*
X120653807Y-72220736D01*
X120653806Y-72220736D01*
X120649381Y-72221123D01*
X120612926Y-72224312D01*
X120608626Y-72224500D01*
X113833831Y-72224500D01*
X113798690Y-72218053D01*
X113201614Y-71991353D01*
X113201600Y-71991349D01*
X113188403Y-71989021D01*
X113167720Y-71982992D01*
X113121763Y-71963956D01*
X113121758Y-71963955D01*
X112965001Y-71943318D01*
X112964999Y-71943318D01*
X112808241Y-71963955D01*
X112808233Y-71963957D01*
X112662161Y-72024462D01*
X112662160Y-72024462D01*
X112536723Y-72120713D01*
X112536713Y-72120723D01*
X112440462Y-72246160D01*
X112440462Y-72246161D01*
X112379957Y-72392233D01*
X112379955Y-72392241D01*
X112359318Y-72548999D01*
X112359318Y-72549000D01*
X112379956Y-72705761D01*
X112399067Y-72751900D01*
X112405257Y-72773515D01*
X112407223Y-72785320D01*
X112534556Y-73122159D01*
X112595685Y-73283867D01*
X112633104Y-73382851D01*
X112639500Y-73417858D01*
X112639500Y-75805139D01*
X112633104Y-75840145D01*
X112407224Y-76437677D01*
X112404933Y-76450747D01*
X112398885Y-76471533D01*
X112379956Y-76517233D01*
X112379956Y-76517235D01*
X112359318Y-76673999D01*
X112359318Y-76674000D01*
X112379955Y-76830758D01*
X112379957Y-76830766D01*
X112415269Y-76916016D01*
X112416479Y-76919253D01*
X112423598Y-76940533D01*
X112423600Y-76940537D01*
X112428681Y-76949427D01*
X112431435Y-76955043D01*
X112440464Y-76976840D01*
X112440464Y-76976841D01*
X112453629Y-76993999D01*
X112457339Y-76999578D01*
X112622800Y-77289115D01*
X112632945Y-77335355D01*
X112634981Y-77335177D01*
X112635736Y-77343806D01*
X112646354Y-77383436D01*
X112647289Y-77387652D01*
X112654411Y-77428045D01*
X112655164Y-77429348D01*
X112665054Y-77453224D01*
X112665443Y-77454679D01*
X112665446Y-77454684D01*
X112684403Y-77481758D01*
X112688971Y-77488281D01*
X112691292Y-77491924D01*
X112711806Y-77527455D01*
X112743224Y-77553818D01*
X112746410Y-77556737D01*
X112821301Y-77631628D01*
X112824451Y-77635091D01*
X112830094Y-77641917D01*
X112830095Y-77641917D01*
X112830097Y-77641920D01*
X112832743Y-77644378D01*
X112841150Y-77651476D01*
X114005460Y-78815786D01*
X114025690Y-78845062D01*
X114289859Y-79430340D01*
X114291045Y-79433201D01*
X114292223Y-79436319D01*
X114292224Y-79436320D01*
X114507863Y-80006762D01*
X114518104Y-80033851D01*
X114524500Y-80068858D01*
X114524500Y-82883625D01*
X114524312Y-82887927D01*
X114521170Y-82923844D01*
X114520736Y-82928806D01*
X114531354Y-82968436D01*
X114532289Y-82972652D01*
X114539411Y-83013045D01*
X114540164Y-83014348D01*
X114550054Y-83038224D01*
X114550443Y-83039679D01*
X114550446Y-83039684D01*
X114573971Y-83073281D01*
X114576288Y-83076918D01*
X114596806Y-83112454D01*
X114596806Y-83112455D01*
X114628224Y-83138818D01*
X114631410Y-83141737D01*
X119747258Y-88257584D01*
X119766553Y-88284847D01*
X120004042Y-88781037D01*
X120013199Y-88813413D01*
X120045216Y-89117538D01*
X120032505Y-89177388D01*
X120016764Y-89197907D01*
X115934213Y-93280459D01*
X115904937Y-93300689D01*
X115322696Y-93563488D01*
X115322695Y-93563489D01*
X115311838Y-93571108D01*
X115292861Y-93581532D01*
X115247157Y-93600464D01*
X115121723Y-93696713D01*
X115121713Y-93696723D01*
X115025464Y-93822157D01*
X115006350Y-93868301D01*
X114995447Y-93887955D01*
X114988489Y-93897695D01*
X114988488Y-93897698D01*
X114725689Y-94479937D01*
X114705459Y-94509213D01*
X109006413Y-100208259D01*
X109003229Y-100211176D01*
X108971807Y-100237542D01*
X108971806Y-100237544D01*
X108951292Y-100273075D01*
X108948972Y-100276716D01*
X108925446Y-100310316D01*
X108925442Y-100310324D01*
X108925051Y-100311786D01*
X108915170Y-100335640D01*
X108914414Y-100336948D01*
X108914410Y-100336960D01*
X108907287Y-100377349D01*
X108906353Y-100381564D01*
X108895736Y-100421187D01*
X108895736Y-100421193D01*
X108899312Y-100462072D01*
X108899500Y-100466373D01*
X108899500Y-105030958D01*
X108880593Y-105089149D01*
X108831093Y-105125113D01*
X108814267Y-105128996D01*
X108173324Y-105219002D01*
X108113070Y-105208371D01*
X108098762Y-105199098D01*
X107300849Y-104578257D01*
X107266534Y-104527601D01*
X107268547Y-104466448D01*
X107273684Y-104454691D01*
X107486542Y-104042764D01*
X107495397Y-104017042D01*
X107498093Y-104010689D01*
X107509951Y-103987420D01*
X107523347Y-103902839D01*
X107525500Y-103889249D01*
X107525500Y-103310751D01*
X107517820Y-103262264D01*
X107509951Y-103212580D01*
X107449658Y-103094249D01*
X107355751Y-103000342D01*
X107323861Y-102984093D01*
X107237423Y-102940050D01*
X107237420Y-102940049D01*
X107202972Y-102934593D01*
X107139249Y-102924500D01*
X107139246Y-102924500D01*
X106635754Y-102924500D01*
X106635751Y-102924500D01*
X106537580Y-102940049D01*
X106537576Y-102940050D01*
X106419250Y-103000341D01*
X106325341Y-103094250D01*
X106265050Y-103212576D01*
X106265049Y-103212580D01*
X106249500Y-103310751D01*
X106249500Y-103889248D01*
X105950500Y-103889248D01*
X105950500Y-103889246D01*
X105950500Y-103310754D01*
X105947939Y-103294587D01*
X105942820Y-103262264D01*
X105934951Y-103212580D01*
X105874658Y-103094249D01*
X105780751Y-103000342D01*
X105748861Y-102984093D01*
X105662423Y-102940050D01*
X105662420Y-102940049D01*
X105627972Y-102934593D01*
X105564249Y-102924500D01*
X105564246Y-102924500D01*
X105060754Y-102924500D01*
X105060751Y-102924500D01*
X104962580Y-102940049D01*
X104962573Y-102940051D01*
X104844253Y-103000338D01*
X104837948Y-103004920D01*
X104837727Y-103004616D01*
X104826889Y-103012929D01*
X104676897Y-103099517D01*
X104396751Y-103261239D01*
X104347258Y-103274500D01*
X103501889Y-103274500D01*
X103472970Y-103270182D01*
X103466166Y-103268104D01*
X103233893Y-103197161D01*
X102873236Y-103087006D01*
X102867478Y-103086284D01*
X102841921Y-103079519D01*
X102806763Y-103064956D01*
X102806758Y-103064955D01*
X102650001Y-103044318D01*
X102649999Y-103044318D01*
X102493241Y-103064955D01*
X102493233Y-103064957D01*
X102347161Y-103125462D01*
X102347160Y-103125462D01*
X102221723Y-103221713D01*
X102221713Y-103221723D01*
X102125462Y-103347160D01*
X102125462Y-103347161D01*
X102064957Y-103493233D01*
X102064955Y-103493241D01*
X102044318Y-103649999D01*
X102044318Y-103650000D01*
X100200500Y-103650000D01*
X100200500Y-101054746D01*
X103259500Y-101054746D01*
X103259501Y-101054758D01*
X103271132Y-101113227D01*
X103271133Y-101113231D01*
X103315448Y-101179552D01*
X103381769Y-101223867D01*
X103426231Y-101232711D01*
X103440241Y-101235498D01*
X103440246Y-101235498D01*
X103440252Y-101235500D01*
X103440253Y-101235500D01*
X106979747Y-101235500D01*
X106979748Y-101235500D01*
X107038231Y-101223867D01*
X107104552Y-101179552D01*
X107148867Y-101113231D01*
X107160500Y-101054748D01*
X107160500Y-99315252D01*
X107148867Y-99256769D01*
X107104552Y-99190448D01*
X107097382Y-99185657D01*
X107038233Y-99146134D01*
X107038231Y-99146133D01*
X107038228Y-99146132D01*
X107038227Y-99146132D01*
X106979758Y-99134501D01*
X106979748Y-99134500D01*
X103440252Y-99134500D01*
X103440251Y-99134500D01*
X103440241Y-99134501D01*
X103381772Y-99146132D01*
X103381766Y-99146134D01*
X103315451Y-99190445D01*
X103315445Y-99190451D01*
X103271134Y-99256766D01*
X103271132Y-99256772D01*
X103259501Y-99315241D01*
X103259500Y-99315253D01*
X103259500Y-101054746D01*
X100200500Y-101054746D01*
X100200500Y-98514746D01*
X103259500Y-98514746D01*
X103259501Y-98514758D01*
X103267657Y-98555756D01*
X103271133Y-98573231D01*
X103315448Y-98639552D01*
X103381769Y-98683867D01*
X103426231Y-98692711D01*
X103440241Y-98695498D01*
X103440246Y-98695498D01*
X103440252Y-98695500D01*
X103440253Y-98695500D01*
X106979747Y-98695500D01*
X106979748Y-98695500D01*
X107038231Y-98683867D01*
X107059074Y-98669939D01*
X107100758Y-98642087D01*
X107104333Y-98639851D01*
X107109102Y-98636870D01*
X107505790Y-98263516D01*
X107561122Y-98237404D01*
X107586559Y-98237455D01*
X107725000Y-98255682D01*
X107725001Y-98255682D01*
X107756352Y-98251554D01*
X107881762Y-98235044D01*
X108027841Y-98174536D01*
X108153282Y-98078282D01*
X108249536Y-97952841D01*
X108310044Y-97806762D01*
X108330682Y-97650000D01*
X108310044Y-97493238D01*
X108253365Y-97356402D01*
X108249537Y-97347161D01*
X108249537Y-97347160D01*
X108153286Y-97221723D01*
X108153285Y-97221722D01*
X108153282Y-97221718D01*
X108153277Y-97221714D01*
X108153276Y-97221713D01*
X108082104Y-97167101D01*
X108027841Y-97125464D01*
X108027840Y-97125463D01*
X108027838Y-97125462D01*
X107881766Y-97064957D01*
X107881758Y-97064955D01*
X107725001Y-97044318D01*
X107724999Y-97044318D01*
X107589774Y-97062120D01*
X107529613Y-97050970D01*
X107508635Y-97035713D01*
X107198451Y-96740786D01*
X107114471Y-96660937D01*
X107111437Y-96657333D01*
X107104552Y-96650448D01*
X107038233Y-96606134D01*
X107038231Y-96606133D01*
X107038228Y-96606132D01*
X107038227Y-96606132D01*
X106979758Y-96594501D01*
X106979748Y-96594500D01*
X103440252Y-96594500D01*
X103440251Y-96594500D01*
X103440241Y-96594501D01*
X103381772Y-96606132D01*
X103381766Y-96606134D01*
X103315451Y-96650445D01*
X103315445Y-96650451D01*
X103271134Y-96716766D01*
X103271132Y-96716772D01*
X103259501Y-96775241D01*
X103259500Y-96775253D01*
X103259500Y-98514746D01*
X100200500Y-98514746D01*
X100200500Y-95205000D01*
X103260000Y-95205000D01*
X103260000Y-95974700D01*
X103271603Y-96033036D01*
X103315806Y-96099189D01*
X103315810Y-96099193D01*
X103381963Y-96143396D01*
X103440299Y-96154999D01*
X103440303Y-96155000D01*
X105109999Y-96155000D01*
X105110000Y-96154998D01*
X105310000Y-96154998D01*
X105310001Y-96155000D01*
X106979697Y-96155000D01*
X106979700Y-96154999D01*
X107038036Y-96143396D01*
X107104189Y-96099193D01*
X107104193Y-96099189D01*
X107148396Y-96033036D01*
X107159999Y-95974700D01*
X107160000Y-95974697D01*
X107160000Y-95205001D01*
X107159999Y-95205000D01*
X105310001Y-95205000D01*
X105310000Y-95205001D01*
X105310000Y-96154998D01*
X105110000Y-96154998D01*
X105110000Y-95205001D01*
X105109999Y-95205000D01*
X103260000Y-95205000D01*
X100200500Y-95205000D01*
X100200500Y-95004999D01*
X103260000Y-95004999D01*
X103260001Y-95005000D01*
X105109999Y-95005000D01*
X105110000Y-95004999D01*
X105110000Y-95004998D01*
X105310000Y-95004998D01*
X105310001Y-95005000D01*
X107159999Y-95005000D01*
X107160000Y-95004998D01*
X107160000Y-94235302D01*
X107159999Y-94235299D01*
X107148396Y-94176963D01*
X107104193Y-94110810D01*
X107104189Y-94110806D01*
X107038036Y-94066603D01*
X106979700Y-94055000D01*
X105310001Y-94055000D01*
X105310000Y-94055001D01*
X105310000Y-95004998D01*
X105110000Y-95004998D01*
X105110000Y-94055000D01*
X103440299Y-94055000D01*
X103381963Y-94066603D01*
X103315810Y-94110806D01*
X103315806Y-94110810D01*
X103271603Y-94176963D01*
X103260000Y-94235299D01*
X103260000Y-95004999D01*
X100200500Y-95004999D01*
X100200500Y-93434746D01*
X103259500Y-93434746D01*
X103259501Y-93434758D01*
X103271132Y-93493227D01*
X103271133Y-93493231D01*
X103315448Y-93559552D01*
X103381769Y-93603867D01*
X103426231Y-93612711D01*
X103440241Y-93615498D01*
X103440246Y-93615498D01*
X103440252Y-93615500D01*
X103440253Y-93615500D01*
X106979747Y-93615500D01*
X106979748Y-93615500D01*
X107038231Y-93603867D01*
X107104552Y-93559552D01*
X107148867Y-93493231D01*
X107160500Y-93434748D01*
X107160500Y-91695252D01*
X107148867Y-91636769D01*
X107104552Y-91570448D01*
X107104548Y-91570445D01*
X107038233Y-91526134D01*
X107038231Y-91526133D01*
X107038228Y-91526132D01*
X107038227Y-91526132D01*
X106979758Y-91514501D01*
X106979748Y-91514500D01*
X103440252Y-91514500D01*
X103440251Y-91514500D01*
X103440241Y-91514501D01*
X103381772Y-91526132D01*
X103381766Y-91526134D01*
X103315451Y-91570445D01*
X103315445Y-91570451D01*
X103271134Y-91636766D01*
X103271132Y-91636772D01*
X103259501Y-91695241D01*
X103259500Y-91695253D01*
X103259500Y-93434746D01*
X100200500Y-93434746D01*
X100200500Y-90894746D01*
X103259500Y-90894746D01*
X103259501Y-90894758D01*
X103271132Y-90953227D01*
X103271133Y-90953231D01*
X103315448Y-91019552D01*
X103381769Y-91063867D01*
X103426231Y-91072711D01*
X103440241Y-91075498D01*
X103440246Y-91075498D01*
X103440252Y-91075500D01*
X103440253Y-91075500D01*
X106979747Y-91075500D01*
X106979748Y-91075500D01*
X107038231Y-91063867D01*
X107104552Y-91019552D01*
X107148867Y-90953231D01*
X107160500Y-90894748D01*
X107160500Y-89155252D01*
X107148867Y-89096769D01*
X107104552Y-89030448D01*
X107104548Y-89030445D01*
X107038233Y-88986134D01*
X107038231Y-88986133D01*
X107038228Y-88986132D01*
X107038227Y-88986132D01*
X106979758Y-88974501D01*
X106979748Y-88974500D01*
X103440252Y-88974500D01*
X103440251Y-88974500D01*
X103440241Y-88974501D01*
X103381772Y-88986132D01*
X103381766Y-88986134D01*
X103315451Y-89030445D01*
X103315445Y-89030451D01*
X103271134Y-89096766D01*
X103271132Y-89096772D01*
X103259501Y-89155241D01*
X103259500Y-89155253D01*
X103259500Y-90894746D01*
X100200500Y-90894746D01*
X100200500Y-88354746D01*
X103259500Y-88354746D01*
X103259501Y-88354758D01*
X103271132Y-88413227D01*
X103271134Y-88413233D01*
X103307888Y-88468238D01*
X103315448Y-88479552D01*
X103381769Y-88523867D01*
X103426231Y-88532711D01*
X103440241Y-88535498D01*
X103440246Y-88535498D01*
X103440252Y-88535500D01*
X103440253Y-88535500D01*
X106979747Y-88535500D01*
X106979748Y-88535500D01*
X107038231Y-88523867D01*
X107104552Y-88479552D01*
X107148867Y-88413231D01*
X107160500Y-88354748D01*
X107160500Y-86615252D01*
X107148867Y-86556769D01*
X107104552Y-86490448D01*
X107104548Y-86490445D01*
X107038233Y-86446134D01*
X107038231Y-86446133D01*
X107038228Y-86446132D01*
X107038227Y-86446132D01*
X106979758Y-86434501D01*
X106979748Y-86434500D01*
X103440252Y-86434500D01*
X103440251Y-86434500D01*
X103440241Y-86434501D01*
X103381772Y-86446132D01*
X103381766Y-86446134D01*
X103315451Y-86490445D01*
X103315445Y-86490451D01*
X103271134Y-86556766D01*
X103271132Y-86556772D01*
X103259501Y-86615241D01*
X103259500Y-86615253D01*
X103259500Y-88354746D01*
X100200500Y-88354746D01*
X100200500Y-85814746D01*
X103259500Y-85814746D01*
X103259501Y-85814758D01*
X103271132Y-85873227D01*
X103271133Y-85873231D01*
X103315448Y-85939552D01*
X103381769Y-85983867D01*
X103426231Y-85992711D01*
X103440241Y-85995498D01*
X103440246Y-85995498D01*
X103440252Y-85995500D01*
X103440253Y-85995500D01*
X106979747Y-85995500D01*
X106979748Y-85995500D01*
X107038231Y-85983867D01*
X107104552Y-85939552D01*
X107148867Y-85873231D01*
X107160500Y-85814748D01*
X107160500Y-84075252D01*
X107148867Y-84016769D01*
X107104552Y-83950448D01*
X107104548Y-83950445D01*
X107038233Y-83906134D01*
X107038231Y-83906133D01*
X107038228Y-83906132D01*
X107038227Y-83906132D01*
X106979758Y-83894501D01*
X106979748Y-83894500D01*
X103440252Y-83894500D01*
X103440251Y-83894500D01*
X103440241Y-83894501D01*
X103381772Y-83906132D01*
X103381766Y-83906134D01*
X103315451Y-83950445D01*
X103315445Y-83950451D01*
X103271134Y-84016766D01*
X103271132Y-84016772D01*
X103259501Y-84075241D01*
X103259500Y-84075253D01*
X103259500Y-85814746D01*
X100200500Y-85814746D01*
X100200500Y-83274700D01*
X103260000Y-83274700D01*
X103271603Y-83333036D01*
X103315806Y-83399189D01*
X103315810Y-83399193D01*
X103381963Y-83443396D01*
X103440299Y-83454999D01*
X103440303Y-83455000D01*
X105109999Y-83455000D01*
X105110000Y-83454999D01*
X105310000Y-83454999D01*
X105310001Y-83455000D01*
X106979697Y-83455000D01*
X106979700Y-83454999D01*
X107038036Y-83443396D01*
X107104189Y-83399193D01*
X107104193Y-83399189D01*
X107148396Y-83333036D01*
X107159999Y-83274700D01*
X107160000Y-83274697D01*
X107160000Y-82505001D01*
X107159999Y-82505000D01*
X105310001Y-82505000D01*
X105310000Y-82505001D01*
X105310000Y-83454999D01*
X105110000Y-83454999D01*
X105110000Y-82505001D01*
X105109999Y-82505000D01*
X103260001Y-82505000D01*
X103260000Y-82505001D01*
X103260000Y-83274700D01*
X100200500Y-83274700D01*
X100200500Y-82304999D01*
X103260000Y-82304999D01*
X103260001Y-82305000D01*
X105109999Y-82305000D01*
X105110000Y-82304999D01*
X105310000Y-82304999D01*
X105310001Y-82305000D01*
X107159999Y-82305000D01*
X107160000Y-82304999D01*
X107160000Y-81535302D01*
X107159999Y-81535299D01*
X107148396Y-81476963D01*
X107104193Y-81410810D01*
X107104189Y-81410806D01*
X107038036Y-81366603D01*
X106979700Y-81355000D01*
X105310001Y-81355000D01*
X105310000Y-81355001D01*
X105310000Y-82304999D01*
X105110000Y-82304999D01*
X105110000Y-81355001D01*
X105109999Y-81355000D01*
X103440299Y-81355000D01*
X103381963Y-81366603D01*
X103315810Y-81410806D01*
X103315806Y-81410810D01*
X103271603Y-81476963D01*
X103260000Y-81535299D01*
X103260000Y-82304999D01*
X100200500Y-82304999D01*
X100200500Y-80734746D01*
X103259500Y-80734746D01*
X103259501Y-80734758D01*
X103271132Y-80793227D01*
X103271134Y-80793233D01*
X103315445Y-80859548D01*
X103315448Y-80859552D01*
X103381769Y-80903867D01*
X103426231Y-80912711D01*
X103440241Y-80915498D01*
X103440246Y-80915498D01*
X103440252Y-80915500D01*
X103440253Y-80915500D01*
X106979747Y-80915500D01*
X106979748Y-80915500D01*
X107038231Y-80903867D01*
X107104552Y-80859552D01*
X107105443Y-80858218D01*
X107123126Y-80838227D01*
X107598609Y-80428457D01*
X107655030Y-80404793D01*
X107684002Y-80407474D01*
X107684091Y-80406971D01*
X107688678Y-80407774D01*
X107688679Y-80407775D01*
X107701739Y-80410063D01*
X107722534Y-80416112D01*
X107768238Y-80435044D01*
X107768237Y-80435044D01*
X107924999Y-80455682D01*
X107925000Y-80455682D01*
X107925001Y-80455682D01*
X107956352Y-80451554D01*
X108081762Y-80435044D01*
X108227841Y-80374536D01*
X108353282Y-80278282D01*
X108449536Y-80152841D01*
X108510044Y-80006762D01*
X108530682Y-79850000D01*
X108510044Y-79693238D01*
X108490017Y-79644889D01*
X108449537Y-79547161D01*
X108449537Y-79547160D01*
X108353286Y-79421723D01*
X108353285Y-79421722D01*
X108353282Y-79421718D01*
X108353277Y-79421714D01*
X108353276Y-79421713D01*
X108268628Y-79356761D01*
X108227841Y-79325464D01*
X108227840Y-79325463D01*
X108227838Y-79325462D01*
X108081766Y-79264957D01*
X108081758Y-79264955D01*
X107925001Y-79244318D01*
X107924999Y-79244318D01*
X107768241Y-79264955D01*
X107768232Y-79264957D01*
X107722096Y-79284068D01*
X107700481Y-79290258D01*
X107688681Y-79292223D01*
X107683983Y-79293490D01*
X107683564Y-79291938D01*
X107629155Y-79294503D01*
X107591814Y-79274993D01*
X107555090Y-79244318D01*
X107099944Y-78864136D01*
X107066589Y-78844947D01*
X107063773Y-78843199D01*
X107038233Y-78826134D01*
X107038231Y-78826133D01*
X107038228Y-78826132D01*
X107038227Y-78826132D01*
X106979752Y-78814500D01*
X106974725Y-78814005D01*
X106968133Y-78813890D01*
X106960878Y-78814500D01*
X103440252Y-78814500D01*
X103440251Y-78814500D01*
X103440241Y-78814501D01*
X103381772Y-78826132D01*
X103381766Y-78826134D01*
X103315451Y-78870445D01*
X103315445Y-78870451D01*
X103271134Y-78936766D01*
X103271132Y-78936772D01*
X103259501Y-78995241D01*
X103259500Y-78995253D01*
X103259500Y-80734746D01*
X100200500Y-80734746D01*
X100200500Y-78194746D01*
X103259500Y-78194746D01*
X103259501Y-78194758D01*
X103271132Y-78253227D01*
X103271133Y-78253231D01*
X103315448Y-78319552D01*
X103381769Y-78363867D01*
X103426231Y-78372711D01*
X103440241Y-78375498D01*
X103440246Y-78375498D01*
X103440252Y-78375500D01*
X103440253Y-78375500D01*
X106979747Y-78375500D01*
X106979748Y-78375500D01*
X107038231Y-78363867D01*
X107074273Y-78339784D01*
X107077610Y-78337740D01*
X107101576Y-78324341D01*
X107603749Y-77896017D01*
X107660291Y-77872641D01*
X107702997Y-77878737D01*
X107713679Y-77882775D01*
X107713683Y-77882775D01*
X107713684Y-77882776D01*
X107716695Y-77883303D01*
X107726736Y-77885063D01*
X107747534Y-77891112D01*
X107793238Y-77910044D01*
X107793237Y-77910044D01*
X107949999Y-77930682D01*
X107950000Y-77930682D01*
X107950001Y-77930682D01*
X107981352Y-77926554D01*
X108106762Y-77910044D01*
X108252841Y-77849536D01*
X108378282Y-77753282D01*
X108474536Y-77627841D01*
X108535044Y-77481762D01*
X108555682Y-77325000D01*
X108535044Y-77168238D01*
X108474537Y-77022161D01*
X108474537Y-77022160D01*
X108378286Y-76896723D01*
X108378285Y-76896722D01*
X108378282Y-76896718D01*
X108378277Y-76896714D01*
X108378276Y-76896713D01*
X108252838Y-76800462D01*
X108106766Y-76739957D01*
X108106758Y-76739955D01*
X107950001Y-76719318D01*
X107949999Y-76719318D01*
X107793241Y-76739955D01*
X107793232Y-76739957D01*
X107747096Y-76759068D01*
X107725481Y-76765258D01*
X107713681Y-76767223D01*
X107702994Y-76771263D01*
X107641876Y-76774149D01*
X107603748Y-76753979D01*
X107326188Y-76517238D01*
X107101576Y-76325657D01*
X107068915Y-76306531D01*
X107066435Y-76304978D01*
X107038233Y-76286134D01*
X107038231Y-76286133D01*
X107038228Y-76286132D01*
X107038227Y-76286132D01*
X106979751Y-76274499D01*
X106975771Y-76274107D01*
X106972286Y-76274042D01*
X106972285Y-76274042D01*
X106967723Y-76273957D01*
X106961262Y-76274500D01*
X103440252Y-76274500D01*
X103440251Y-76274500D01*
X103440241Y-76274501D01*
X103381772Y-76286132D01*
X103381766Y-76286134D01*
X103315451Y-76330445D01*
X103315445Y-76330451D01*
X103271134Y-76396766D01*
X103271132Y-76396772D01*
X103259501Y-76455241D01*
X103259500Y-76455253D01*
X103259500Y-78194746D01*
X100200500Y-78194746D01*
X100200500Y-75654746D01*
X103259500Y-75654746D01*
X103259501Y-75654758D01*
X103271132Y-75713227D01*
X103271134Y-75713233D01*
X103307817Y-75768132D01*
X103315448Y-75779552D01*
X103381769Y-75823867D01*
X103426231Y-75832711D01*
X103440241Y-75835498D01*
X103440246Y-75835498D01*
X103440252Y-75835500D01*
X103440253Y-75835500D01*
X106979747Y-75835500D01*
X106979748Y-75835500D01*
X107038231Y-75823867D01*
X107104552Y-75779552D01*
X107148867Y-75713231D01*
X107160500Y-75654748D01*
X107160500Y-73915252D01*
X107148867Y-73856769D01*
X107104552Y-73790448D01*
X107104548Y-73790445D01*
X107038233Y-73746134D01*
X107038231Y-73746133D01*
X107038228Y-73746132D01*
X107038227Y-73746132D01*
X106979758Y-73734501D01*
X106979748Y-73734500D01*
X103440252Y-73734500D01*
X103440251Y-73734500D01*
X103440241Y-73734501D01*
X103381772Y-73746132D01*
X103381766Y-73746134D01*
X103315451Y-73790445D01*
X103315445Y-73790451D01*
X103271134Y-73856766D01*
X103271132Y-73856772D01*
X103259501Y-73915241D01*
X103259500Y-73915253D01*
X103259500Y-75654746D01*
X100200500Y-75654746D01*
X100200500Y-73114746D01*
X103259500Y-73114746D01*
X103259501Y-73114758D01*
X103271132Y-73173227D01*
X103271133Y-73173231D01*
X103315448Y-73239552D01*
X103381769Y-73283867D01*
X103426231Y-73292711D01*
X103440241Y-73295498D01*
X103440246Y-73295498D01*
X103440252Y-73295500D01*
X103440253Y-73295500D01*
X106979747Y-73295500D01*
X106979748Y-73295500D01*
X107038231Y-73283867D01*
X107104552Y-73239552D01*
X107148867Y-73173231D01*
X107160500Y-73114748D01*
X107160500Y-71375252D01*
X107148867Y-71316769D01*
X107104552Y-71250448D01*
X107104548Y-71250445D01*
X107038233Y-71206134D01*
X107038231Y-71206133D01*
X107038228Y-71206132D01*
X107038227Y-71206132D01*
X106979758Y-71194501D01*
X106979748Y-71194500D01*
X103440252Y-71194500D01*
X103440251Y-71194500D01*
X103440241Y-71194501D01*
X103381772Y-71206132D01*
X103381766Y-71206134D01*
X103315451Y-71250445D01*
X103315445Y-71250451D01*
X103271134Y-71316766D01*
X103271132Y-71316772D01*
X103259501Y-71375241D01*
X103259500Y-71375253D01*
X103259500Y-73114746D01*
X100200500Y-73114746D01*
X100200500Y-69805000D01*
X103260000Y-69805000D01*
X103260000Y-70574700D01*
X103271603Y-70633036D01*
X103315806Y-70699189D01*
X103315810Y-70699193D01*
X103381963Y-70743396D01*
X103440299Y-70754999D01*
X103440303Y-70755000D01*
X105109999Y-70755000D01*
X105110000Y-70754999D01*
X105110000Y-70754998D01*
X105310000Y-70754998D01*
X105310001Y-70755000D01*
X106979697Y-70755000D01*
X106979700Y-70754999D01*
X107038036Y-70743396D01*
X107104189Y-70699193D01*
X107104193Y-70699189D01*
X107148396Y-70633036D01*
X107159999Y-70574700D01*
X122840000Y-70574700D01*
X122851603Y-70633036D01*
X122895806Y-70699189D01*
X122895810Y-70699193D01*
X122961963Y-70743396D01*
X123020299Y-70754999D01*
X123020303Y-70755000D01*
X124689999Y-70755000D01*
X124690000Y-70754999D01*
X124690000Y-70754998D01*
X124890000Y-70754998D01*
X124890001Y-70755000D01*
X126559697Y-70755000D01*
X126559700Y-70754999D01*
X126618036Y-70743396D01*
X126684189Y-70699193D01*
X126684193Y-70699189D01*
X126728396Y-70633036D01*
X126739999Y-70574700D01*
X126740000Y-70574697D01*
X126739999Y-69805000D01*
X124890001Y-69805000D01*
X124890000Y-69805001D01*
X124890000Y-70754998D01*
X124690000Y-70754998D01*
X124690000Y-69805001D01*
X124689999Y-69805000D01*
X122840001Y-69805000D01*
X122840000Y-69805001D01*
X122840000Y-70574700D01*
X107159999Y-70574700D01*
X107160000Y-70574697D01*
X107160000Y-69805001D01*
X107159999Y-69805000D01*
X105310001Y-69805000D01*
X105310000Y-69805001D01*
X105310000Y-70754998D01*
X105110000Y-70754998D01*
X105110000Y-69805001D01*
X105109999Y-69805000D01*
X103260000Y-69805000D01*
X100200500Y-69805000D01*
X100200500Y-69604999D01*
X103260000Y-69604999D01*
X103260001Y-69605000D01*
X105109999Y-69605000D01*
X105110000Y-69604999D01*
X105310000Y-69604999D01*
X105310001Y-69605000D01*
X107159999Y-69605000D01*
X107160000Y-69604999D01*
X122840000Y-69604999D01*
X122840001Y-69605000D01*
X124689999Y-69605000D01*
X124690000Y-69604999D01*
X124890000Y-69604999D01*
X124890001Y-69605000D01*
X126739999Y-69605000D01*
X126739999Y-69604999D01*
X126740000Y-68835302D01*
X126739999Y-68835299D01*
X126728396Y-68776963D01*
X126684193Y-68710810D01*
X126684189Y-68710806D01*
X126618036Y-68666603D01*
X126559700Y-68655000D01*
X124890001Y-68655000D01*
X124890000Y-68655001D01*
X124890000Y-69604999D01*
X124690000Y-69604999D01*
X124690000Y-69604998D01*
X124690000Y-68655001D01*
X124689999Y-68655000D01*
X123020299Y-68655000D01*
X122961963Y-68666603D01*
X122895810Y-68710806D01*
X122895806Y-68710810D01*
X122851603Y-68776963D01*
X122840000Y-68835299D01*
X122840000Y-69604999D01*
X107160000Y-69604999D01*
X107160000Y-68835302D01*
X107159999Y-68835299D01*
X107148396Y-68776963D01*
X107104193Y-68710810D01*
X107104189Y-68710806D01*
X107038036Y-68666603D01*
X106979700Y-68655000D01*
X105310001Y-68655000D01*
X105310000Y-68655001D01*
X105310000Y-69604999D01*
X105110000Y-69604999D01*
X105110000Y-68655001D01*
X105109999Y-68655000D01*
X103440299Y-68655000D01*
X103381963Y-68666603D01*
X103315810Y-68710806D01*
X103315806Y-68710810D01*
X103271603Y-68776963D01*
X103260000Y-68835299D01*
X103260000Y-69604999D01*
X100200500Y-69604999D01*
X100200500Y-68034746D01*
X103259500Y-68034746D01*
X103259501Y-68034758D01*
X103271132Y-68093227D01*
X103271133Y-68093231D01*
X103315448Y-68159552D01*
X103381769Y-68203867D01*
X103426231Y-68212711D01*
X103440241Y-68215498D01*
X103440246Y-68215498D01*
X103440252Y-68215500D01*
X103440253Y-68215500D01*
X106979747Y-68215500D01*
X106979748Y-68215500D01*
X107038231Y-68203867D01*
X107104552Y-68159552D01*
X107148867Y-68093231D01*
X107160500Y-68034748D01*
X107160500Y-68034746D01*
X122839500Y-68034746D01*
X122839501Y-68034758D01*
X122851132Y-68093227D01*
X122851133Y-68093231D01*
X122895448Y-68159552D01*
X122961769Y-68203867D01*
X123006231Y-68212711D01*
X123020241Y-68215498D01*
X123020246Y-68215498D01*
X123020252Y-68215500D01*
X123020253Y-68215500D01*
X126559747Y-68215500D01*
X126559748Y-68215500D01*
X126618231Y-68203867D01*
X126684552Y-68159552D01*
X126728867Y-68093231D01*
X126740500Y-68034748D01*
X126740500Y-66295252D01*
X126728867Y-66236769D01*
X126684552Y-66170448D01*
X126684548Y-66170445D01*
X126618233Y-66126134D01*
X126618231Y-66126133D01*
X126618228Y-66126132D01*
X126618227Y-66126132D01*
X126559758Y-66114501D01*
X126559748Y-66114500D01*
X123020252Y-66114500D01*
X123020251Y-66114500D01*
X123020241Y-66114501D01*
X122961772Y-66126132D01*
X122961766Y-66126134D01*
X122895451Y-66170445D01*
X122895445Y-66170451D01*
X122851134Y-66236766D01*
X122851132Y-66236772D01*
X122839501Y-66295241D01*
X122839500Y-66295253D01*
X122839500Y-68034746D01*
X107160500Y-68034746D01*
X107160500Y-66295252D01*
X107148867Y-66236769D01*
X107104552Y-66170448D01*
X107104548Y-66170445D01*
X107038233Y-66126134D01*
X107038231Y-66126133D01*
X107038228Y-66126132D01*
X107038227Y-66126132D01*
X106979758Y-66114501D01*
X106979748Y-66114500D01*
X103440252Y-66114500D01*
X103440251Y-66114500D01*
X103440241Y-66114501D01*
X103381772Y-66126132D01*
X103381766Y-66126134D01*
X103315451Y-66170445D01*
X103315445Y-66170451D01*
X103271134Y-66236766D01*
X103271132Y-66236772D01*
X103259501Y-66295241D01*
X103259500Y-66295253D01*
X103259500Y-68034746D01*
X100200500Y-68034746D01*
X100200500Y-65494746D01*
X103259500Y-65494746D01*
X103259501Y-65494758D01*
X103271132Y-65553227D01*
X103271133Y-65553231D01*
X103315448Y-65619552D01*
X103381769Y-65663867D01*
X103426231Y-65672711D01*
X103440241Y-65675498D01*
X103440246Y-65675498D01*
X103440252Y-65675500D01*
X103440253Y-65675500D01*
X106979747Y-65675500D01*
X106979748Y-65675500D01*
X107038231Y-65663867D01*
X107104552Y-65619552D01*
X107148867Y-65553231D01*
X107160500Y-65494748D01*
X107160500Y-65494746D01*
X122839500Y-65494746D01*
X122839501Y-65494758D01*
X122851132Y-65553227D01*
X122851133Y-65553231D01*
X122895448Y-65619552D01*
X122961769Y-65663867D01*
X123006231Y-65672711D01*
X123020241Y-65675498D01*
X123020246Y-65675498D01*
X123020252Y-65675500D01*
X123020253Y-65675500D01*
X126559747Y-65675500D01*
X126559748Y-65675500D01*
X126618231Y-65663867D01*
X126684552Y-65619552D01*
X126728867Y-65553231D01*
X126740500Y-65494748D01*
X126740500Y-63755252D01*
X126728867Y-63696769D01*
X126684552Y-63630448D01*
X126684548Y-63630445D01*
X126618233Y-63586134D01*
X126618231Y-63586133D01*
X126618228Y-63586132D01*
X126618227Y-63586132D01*
X126559758Y-63574501D01*
X126559748Y-63574500D01*
X123020252Y-63574500D01*
X123020251Y-63574500D01*
X123020241Y-63574501D01*
X122961772Y-63586132D01*
X122961766Y-63586134D01*
X122895451Y-63630445D01*
X122895445Y-63630451D01*
X122851134Y-63696766D01*
X122851132Y-63696772D01*
X122839501Y-63755241D01*
X122839500Y-63755253D01*
X122839500Y-65494746D01*
X107160500Y-65494746D01*
X107160500Y-63755252D01*
X107148867Y-63696769D01*
X107104552Y-63630448D01*
X107104548Y-63630445D01*
X107038233Y-63586134D01*
X107038231Y-63586133D01*
X107038228Y-63586132D01*
X107038227Y-63586132D01*
X106979758Y-63574501D01*
X106979748Y-63574500D01*
X103440252Y-63574500D01*
X103440251Y-63574500D01*
X103440241Y-63574501D01*
X103381772Y-63586132D01*
X103381766Y-63586134D01*
X103315451Y-63630445D01*
X103315445Y-63630451D01*
X103271134Y-63696766D01*
X103271132Y-63696772D01*
X103259501Y-63755241D01*
X103259500Y-63755253D01*
X103259500Y-65494746D01*
X100200500Y-65494746D01*
X100200500Y-62954746D01*
X103259500Y-62954746D01*
X103259501Y-62954758D01*
X103271132Y-63013227D01*
X103271134Y-63013233D01*
X103310843Y-63072660D01*
X103315448Y-63079552D01*
X103381769Y-63123867D01*
X103426231Y-63132711D01*
X103440241Y-63135498D01*
X103440246Y-63135498D01*
X103440252Y-63135500D01*
X103440253Y-63135500D01*
X106979747Y-63135500D01*
X106979748Y-63135500D01*
X107038231Y-63123867D01*
X107104552Y-63079552D01*
X107148867Y-63013231D01*
X107160500Y-62954748D01*
X107160500Y-62100000D01*
X121694318Y-62100000D01*
X121714955Y-62256758D01*
X121714957Y-62256766D01*
X121775462Y-62402838D01*
X121775462Y-62402839D01*
X121775464Y-62402841D01*
X121871718Y-62528282D01*
X121997159Y-62624536D01*
X122143238Y-62685044D01*
X122260809Y-62700522D01*
X122299999Y-62705682D01*
X122300000Y-62705682D01*
X122300001Y-62705682D01*
X122339190Y-62700522D01*
X122456762Y-62685044D01*
X122458864Y-62684173D01*
X122460488Y-62684045D01*
X122463031Y-62683364D01*
X122463157Y-62683835D01*
X122519861Y-62679371D01*
X122571341Y-62710539D01*
X122879237Y-63063323D01*
X122882164Y-63066457D01*
X122882758Y-63066970D01*
X122884765Y-63069241D01*
X122885772Y-63070319D01*
X122885742Y-63070346D01*
X122888148Y-63073068D01*
X122888557Y-63072660D01*
X122895445Y-63079548D01*
X122895448Y-63079552D01*
X122961769Y-63123867D01*
X123006231Y-63132711D01*
X123020241Y-63135498D01*
X123020246Y-63135498D01*
X123020252Y-63135500D01*
X123020253Y-63135500D01*
X126559747Y-63135500D01*
X126559748Y-63135500D01*
X126618231Y-63123867D01*
X126684552Y-63079552D01*
X126728867Y-63013231D01*
X126740500Y-62954748D01*
X126740500Y-61215252D01*
X126728867Y-61156769D01*
X126684552Y-61090448D01*
X126684548Y-61090445D01*
X126618233Y-61046134D01*
X126618231Y-61046133D01*
X126618228Y-61046132D01*
X126618227Y-61046132D01*
X126559758Y-61034501D01*
X126559748Y-61034500D01*
X123020252Y-61034500D01*
X123020251Y-61034500D01*
X123020241Y-61034501D01*
X122961772Y-61046132D01*
X122961766Y-61046134D01*
X122895446Y-61090448D01*
X122891350Y-61096579D01*
X122876392Y-61114128D01*
X122480220Y-61481880D01*
X122424708Y-61507611D01*
X122399946Y-61507475D01*
X122300002Y-61494318D01*
X122299999Y-61494318D01*
X122143241Y-61514955D01*
X122143233Y-61514957D01*
X121997161Y-61575462D01*
X121997160Y-61575462D01*
X121871723Y-61671713D01*
X121871713Y-61671723D01*
X121775462Y-61797160D01*
X121775462Y-61797161D01*
X121714957Y-61943233D01*
X121714955Y-61943241D01*
X121694318Y-62099999D01*
X121694318Y-62100000D01*
X107160500Y-62100000D01*
X107160500Y-61215252D01*
X107148867Y-61156769D01*
X107104552Y-61090448D01*
X107104548Y-61090445D01*
X107038233Y-61046134D01*
X107038231Y-61046133D01*
X107038228Y-61046132D01*
X107038227Y-61046132D01*
X106979758Y-61034501D01*
X106979748Y-61034500D01*
X103440252Y-61034500D01*
X103440251Y-61034500D01*
X103440241Y-61034501D01*
X103381772Y-61046132D01*
X103381766Y-61046134D01*
X103315451Y-61090445D01*
X103315445Y-61090451D01*
X103271134Y-61156766D01*
X103271132Y-61156772D01*
X103259501Y-61215241D01*
X103259500Y-61215253D01*
X103259500Y-62954746D01*
X100200500Y-62954746D01*
X100200500Y-60414746D01*
X103259500Y-60414746D01*
X103259501Y-60414758D01*
X103271132Y-60473227D01*
X103271133Y-60473231D01*
X103315448Y-60539552D01*
X103381769Y-60583867D01*
X103426231Y-60592711D01*
X103440241Y-60595498D01*
X103440246Y-60595498D01*
X103440252Y-60595500D01*
X103440253Y-60595500D01*
X106979747Y-60595500D01*
X106979748Y-60595500D01*
X107038231Y-60583867D01*
X107104552Y-60539552D01*
X107148867Y-60473231D01*
X107160500Y-60414748D01*
X107160500Y-60414746D01*
X122839500Y-60414746D01*
X122839501Y-60414758D01*
X122851132Y-60473227D01*
X122851133Y-60473231D01*
X122895448Y-60539552D01*
X122961769Y-60583867D01*
X123006231Y-60592711D01*
X123020241Y-60595498D01*
X123020246Y-60595498D01*
X123020252Y-60595500D01*
X123020253Y-60595500D01*
X126559747Y-60595500D01*
X126559748Y-60595500D01*
X126618231Y-60583867D01*
X126684552Y-60539552D01*
X126728867Y-60473231D01*
X126740500Y-60414748D01*
X126740500Y-58675252D01*
X126728867Y-58616769D01*
X126684552Y-58550448D01*
X126684548Y-58550445D01*
X126618233Y-58506134D01*
X126618231Y-58506133D01*
X126618228Y-58506132D01*
X126618227Y-58506132D01*
X126559758Y-58494501D01*
X126559748Y-58494500D01*
X123020252Y-58494500D01*
X123020251Y-58494500D01*
X123020241Y-58494501D01*
X122961772Y-58506132D01*
X122961766Y-58506134D01*
X122895451Y-58550445D01*
X122895445Y-58550451D01*
X122851134Y-58616766D01*
X122851132Y-58616772D01*
X122839501Y-58675241D01*
X122839500Y-58675253D01*
X122839500Y-60414746D01*
X107160500Y-60414746D01*
X107160500Y-58675252D01*
X107148867Y-58616769D01*
X107104552Y-58550448D01*
X107104548Y-58550445D01*
X107038233Y-58506134D01*
X107038231Y-58506133D01*
X107038228Y-58506132D01*
X107038227Y-58506132D01*
X106979758Y-58494501D01*
X106979748Y-58494500D01*
X103440252Y-58494500D01*
X103440251Y-58494500D01*
X103440241Y-58494501D01*
X103381772Y-58506132D01*
X103381766Y-58506134D01*
X103315451Y-58550445D01*
X103315445Y-58550451D01*
X103271134Y-58616766D01*
X103271132Y-58616772D01*
X103259501Y-58675241D01*
X103259500Y-58675253D01*
X103259500Y-60414746D01*
X100200500Y-60414746D01*
X100200500Y-57105000D01*
X103260000Y-57105000D01*
X103260000Y-57874700D01*
X103271603Y-57933036D01*
X103315806Y-57999189D01*
X103315810Y-57999193D01*
X103381963Y-58043396D01*
X103440299Y-58054999D01*
X103440303Y-58055000D01*
X105109999Y-58055000D01*
X105110000Y-58054998D01*
X105110000Y-57105001D01*
X105109999Y-57105000D01*
X105310000Y-57105000D01*
X105310000Y-58054998D01*
X105310001Y-58055000D01*
X106979697Y-58055000D01*
X106979700Y-58054999D01*
X107038036Y-58043396D01*
X107104189Y-57999193D01*
X107104193Y-57999189D01*
X107148396Y-57933036D01*
X107159999Y-57874700D01*
X107160000Y-57874697D01*
X107160000Y-57105000D01*
X122840000Y-57105000D01*
X122840000Y-57874700D01*
X122851603Y-57933036D01*
X122895806Y-57999189D01*
X122895810Y-57999193D01*
X122961963Y-58043396D01*
X123020299Y-58054999D01*
X123020303Y-58055000D01*
X124689999Y-58055000D01*
X124690000Y-58054998D01*
X124690000Y-57105001D01*
X124689999Y-57105000D01*
X124890000Y-57105000D01*
X124890000Y-58054999D01*
X124890001Y-58055000D01*
X126559697Y-58055000D01*
X126559700Y-58054999D01*
X126618036Y-58043396D01*
X126684189Y-57999193D01*
X126684193Y-57999189D01*
X126728396Y-57933036D01*
X126739999Y-57874700D01*
X126740000Y-57874697D01*
X126739999Y-57105000D01*
X124890000Y-57105000D01*
X124689999Y-57105000D01*
X122840000Y-57105000D01*
X107160000Y-57105000D01*
X105310000Y-57105000D01*
X105109999Y-57105000D01*
X103260000Y-57105000D01*
X100200500Y-57105000D01*
X100200500Y-56904999D01*
X103260000Y-56904999D01*
X103260001Y-56905000D01*
X105109999Y-56905000D01*
X105110000Y-56904999D01*
X105110000Y-56904998D01*
X105310000Y-56904998D01*
X105310001Y-56905000D01*
X107159999Y-56905000D01*
X107160000Y-56904999D01*
X122840000Y-56904999D01*
X122840001Y-56905000D01*
X124689999Y-56905000D01*
X124690000Y-56904999D01*
X124690000Y-56904998D01*
X124890000Y-56904998D01*
X124890001Y-56905000D01*
X126739999Y-56905000D01*
X126739999Y-56904999D01*
X126740000Y-56135302D01*
X126739999Y-56135299D01*
X126728396Y-56076963D01*
X126684193Y-56010810D01*
X126684189Y-56010806D01*
X126618036Y-55966603D01*
X126559700Y-55955000D01*
X124890001Y-55955000D01*
X124890000Y-55955001D01*
X124890000Y-56904998D01*
X124690000Y-56904998D01*
X124690000Y-55955001D01*
X124689999Y-55955000D01*
X123020299Y-55955000D01*
X122961963Y-55966603D01*
X122895810Y-56010806D01*
X122895806Y-56010810D01*
X122851603Y-56076963D01*
X122840000Y-56135299D01*
X122840000Y-56904999D01*
X107160000Y-56904999D01*
X107160000Y-56135302D01*
X107159999Y-56135299D01*
X107148396Y-56076963D01*
X107104193Y-56010810D01*
X107104189Y-56010806D01*
X107038036Y-55966603D01*
X106979700Y-55955000D01*
X105310001Y-55955000D01*
X105310000Y-55955001D01*
X105310000Y-56904998D01*
X105110000Y-56904998D01*
X105110000Y-55955001D01*
X105109999Y-55955000D01*
X103440299Y-55955000D01*
X103381963Y-55966603D01*
X103315810Y-56010806D01*
X103315806Y-56010810D01*
X103271603Y-56076963D01*
X103260000Y-56135299D01*
X103260000Y-56904999D01*
X100200500Y-56904999D01*
X100200500Y-55125000D01*
X100769318Y-55125000D01*
X100789955Y-55281758D01*
X100789957Y-55281766D01*
X100850462Y-55427838D01*
X100850462Y-55427839D01*
X100918935Y-55517075D01*
X100946718Y-55553282D01*
X101072159Y-55649536D01*
X101218238Y-55710044D01*
X101335809Y-55725522D01*
X101374999Y-55730682D01*
X101375000Y-55730682D01*
X101375001Y-55730682D01*
X101406352Y-55726554D01*
X101531762Y-55710044D01*
X101677841Y-55649536D01*
X101803282Y-55553282D01*
X101899536Y-55427841D01*
X101918650Y-55381691D01*
X101929562Y-55362027D01*
X101936511Y-55352301D01*
X102163781Y-54848772D01*
X102204954Y-54803512D01*
X102254016Y-54790500D01*
X102491915Y-54790500D01*
X102550106Y-54809407D01*
X102556161Y-54814177D01*
X103312809Y-55459554D01*
X103326207Y-55470981D01*
X103335688Y-55478163D01*
X103342870Y-55482977D01*
X103353183Y-55489454D01*
X103353185Y-55489455D01*
X103358895Y-55492100D01*
X103358853Y-55492190D01*
X103378218Y-55501495D01*
X103381764Y-55503865D01*
X103381772Y-55503868D01*
X103412419Y-55509963D01*
X103424517Y-55512369D01*
X103429817Y-55513732D01*
X103440358Y-55517072D01*
X103440359Y-55517072D01*
X103440368Y-55517075D01*
X103449292Y-55517812D01*
X103466692Y-55515820D01*
X103472320Y-55515500D01*
X106979747Y-55515500D01*
X106979748Y-55515500D01*
X107038231Y-55503867D01*
X107104552Y-55459552D01*
X107148867Y-55393231D01*
X107160500Y-55334748D01*
X107160500Y-55334746D01*
X122839500Y-55334746D01*
X122839501Y-55334758D01*
X122851132Y-55393227D01*
X122851134Y-55393233D01*
X122895445Y-55459548D01*
X122895448Y-55459552D01*
X122961769Y-55503867D01*
X123006231Y-55512711D01*
X123020241Y-55515498D01*
X123020246Y-55515498D01*
X123020252Y-55515500D01*
X123020253Y-55515500D01*
X126559747Y-55515500D01*
X126559748Y-55515500D01*
X126618231Y-55503867D01*
X126684552Y-55459552D01*
X126728867Y-55393231D01*
X126740500Y-55334748D01*
X126740500Y-53595252D01*
X126728867Y-53536769D01*
X126684552Y-53470448D01*
X126684548Y-53470445D01*
X126618233Y-53426134D01*
X126618231Y-53426133D01*
X126618228Y-53426132D01*
X126618227Y-53426132D01*
X126559758Y-53414501D01*
X126559748Y-53414500D01*
X123020252Y-53414500D01*
X123020251Y-53414500D01*
X123020241Y-53414501D01*
X122961772Y-53426132D01*
X122961766Y-53426134D01*
X122895451Y-53470445D01*
X122895445Y-53470451D01*
X122851134Y-53536766D01*
X122851132Y-53536772D01*
X122839501Y-53595241D01*
X122839500Y-53595253D01*
X122839500Y-55334746D01*
X107160500Y-55334746D01*
X107160500Y-53595252D01*
X107148867Y-53536769D01*
X107104552Y-53470448D01*
X107104548Y-53470445D01*
X107038233Y-53426134D01*
X107038231Y-53426133D01*
X107038228Y-53426132D01*
X107038227Y-53426132D01*
X106979758Y-53414501D01*
X106979748Y-53414500D01*
X106979747Y-53414500D01*
X103509404Y-53414500D01*
X103493129Y-53413153D01*
X103491311Y-53412850D01*
X103491310Y-53412850D01*
X103475000Y-53414304D01*
X103470601Y-53414500D01*
X103440248Y-53414500D01*
X103416398Y-53419243D01*
X103411141Y-53419999D01*
X103404587Y-53420584D01*
X103400216Y-53420974D01*
X103400211Y-53420975D01*
X103400204Y-53420977D01*
X103391062Y-53423939D01*
X103385465Y-53425397D01*
X103381774Y-53426131D01*
X103381768Y-53426133D01*
X103354517Y-53444341D01*
X103351173Y-53446388D01*
X103321689Y-53462872D01*
X103321684Y-53462876D01*
X102556161Y-54115823D01*
X102499617Y-54139200D01*
X102491915Y-54139500D01*
X102051374Y-54139500D01*
X102047073Y-54139312D01*
X102006193Y-54135736D01*
X102006187Y-54135736D01*
X101966564Y-54146353D01*
X101962349Y-54147287D01*
X101921960Y-54154410D01*
X101921948Y-54154414D01*
X101920640Y-54155170D01*
X101896786Y-54165051D01*
X101895324Y-54165442D01*
X101895316Y-54165446D01*
X101861716Y-54188972D01*
X101858080Y-54191288D01*
X101849875Y-54196025D01*
X101822545Y-54211805D01*
X101796181Y-54243224D01*
X101793263Y-54246408D01*
X101759214Y-54280458D01*
X101729938Y-54300688D01*
X101147696Y-54563488D01*
X101147695Y-54563489D01*
X101136838Y-54571108D01*
X101117861Y-54581532D01*
X101072157Y-54600464D01*
X100946723Y-54696713D01*
X100946713Y-54696723D01*
X100850462Y-54822160D01*
X100850462Y-54822161D01*
X100789957Y-54968233D01*
X100789955Y-54968241D01*
X100769318Y-55124999D01*
X100769318Y-55125000D01*
X100200500Y-55125000D01*
X100200500Y-51925000D01*
X102244318Y-51925000D01*
X102264955Y-52081758D01*
X102264957Y-52081766D01*
X102325462Y-52227838D01*
X102325462Y-52227839D01*
X102325464Y-52227841D01*
X102421718Y-52353282D01*
X102547159Y-52449536D01*
X102693238Y-52510044D01*
X102850000Y-52530682D01*
X102918560Y-52521655D01*
X102978720Y-52532804D01*
X103007235Y-52556071D01*
X103297693Y-52901288D01*
X103297696Y-52901291D01*
X103297702Y-52901298D01*
X103306138Y-52909514D01*
X103309730Y-52913833D01*
X103315445Y-52919548D01*
X103315448Y-52919552D01*
X103315451Y-52919554D01*
X103318717Y-52922820D01*
X103325134Y-52928016D01*
X103326840Y-52929677D01*
X103328902Y-52931321D01*
X103330439Y-52932547D01*
X103330437Y-52932546D01*
X103346447Y-52943548D01*
X103354450Y-52949048D01*
X103354451Y-52949048D01*
X103354452Y-52949049D01*
X103361032Y-52952264D01*
X103360817Y-52952703D01*
X103375920Y-52959959D01*
X103381767Y-52963866D01*
X103381768Y-52963866D01*
X103381769Y-52963867D01*
X103423683Y-52972203D01*
X103431362Y-52973731D01*
X103436663Y-52975094D01*
X103441628Y-52976667D01*
X103441629Y-52976667D01*
X103441635Y-52976669D01*
X103450559Y-52977406D01*
X103464412Y-52975820D01*
X103470039Y-52975500D01*
X106979747Y-52975500D01*
X106979748Y-52975500D01*
X107038231Y-52963867D01*
X107104552Y-52919552D01*
X107148867Y-52853231D01*
X107160500Y-52794748D01*
X107160500Y-52794746D01*
X122839500Y-52794746D01*
X122839501Y-52794758D01*
X122851132Y-52853227D01*
X122851134Y-52853233D01*
X122893591Y-52916773D01*
X122895448Y-52919552D01*
X122961769Y-52963867D01*
X123006231Y-52972711D01*
X123020241Y-52975498D01*
X123020246Y-52975498D01*
X123020252Y-52975500D01*
X123020253Y-52975500D01*
X126559747Y-52975500D01*
X126559748Y-52975500D01*
X126618231Y-52963867D01*
X126684552Y-52919552D01*
X126728867Y-52853231D01*
X126740500Y-52794748D01*
X126740500Y-51055252D01*
X126728867Y-50996769D01*
X126684552Y-50930448D01*
X126653907Y-50909971D01*
X126618233Y-50886134D01*
X126618231Y-50886133D01*
X126618228Y-50886132D01*
X126618227Y-50886132D01*
X126559758Y-50874501D01*
X126559748Y-50874500D01*
X123020252Y-50874500D01*
X123020251Y-50874500D01*
X123020241Y-50874501D01*
X122961772Y-50886132D01*
X122961766Y-50886134D01*
X122895451Y-50930445D01*
X122895445Y-50930451D01*
X122851134Y-50996766D01*
X122851132Y-50996772D01*
X122839501Y-51055241D01*
X122839500Y-51055253D01*
X122839500Y-52794746D01*
X107160500Y-52794746D01*
X107160500Y-51055252D01*
X107148867Y-50996769D01*
X107104552Y-50930448D01*
X107073907Y-50909971D01*
X107038233Y-50886134D01*
X107038231Y-50886133D01*
X107038228Y-50886132D01*
X107038227Y-50886132D01*
X106979758Y-50874501D01*
X106979748Y-50874500D01*
X106979747Y-50874500D01*
X103506543Y-50874500D01*
X103492902Y-50873395D01*
X103492895Y-50873459D01*
X103490873Y-50873231D01*
X103490619Y-50873211D01*
X103490460Y-50873185D01*
X103485885Y-50872670D01*
X103482559Y-50872532D01*
X103456777Y-50871470D01*
X103456773Y-50871471D01*
X103455572Y-50871783D01*
X103440404Y-50874484D01*
X103440260Y-50874498D01*
X103381769Y-50886132D01*
X103375167Y-50890544D01*
X103370464Y-50893324D01*
X103360313Y-50898591D01*
X103360304Y-50898596D01*
X103347753Y-50908641D01*
X103344327Y-50911150D01*
X103315446Y-50930449D01*
X103308553Y-50937342D01*
X103308328Y-50937117D01*
X103300993Y-50945111D01*
X103301182Y-50945304D01*
X103297702Y-50948699D01*
X103007235Y-51293928D01*
X102955304Y-51326282D01*
X102918560Y-51328344D01*
X102850001Y-51319318D01*
X102849999Y-51319318D01*
X102693241Y-51339955D01*
X102693233Y-51339957D01*
X102547161Y-51400462D01*
X102547160Y-51400462D01*
X102421723Y-51496713D01*
X102421713Y-51496723D01*
X102325462Y-51622160D01*
X102325462Y-51622161D01*
X102264957Y-51768233D01*
X102264955Y-51768241D01*
X102244318Y-51924999D01*
X102244318Y-51925000D01*
X100200500Y-51925000D01*
X100200500Y-50299500D01*
X100219407Y-50241309D01*
X100268907Y-50205345D01*
X100299500Y-50200500D01*
X129700500Y-50200500D01*
X129758691Y-50219407D01*
G37*
%TD.AperFunction*%
%TD*%
%TA.AperFunction,Conductor*%
%TO.N,/NCOMP*%
G36*
X116518044Y-80776253D02*
G01*
X116524206Y-80782239D01*
X116800747Y-81394928D01*
X116801027Y-81403878D01*
X116798356Y-81408014D01*
X116633014Y-81573356D01*
X116624741Y-81576783D01*
X116619928Y-81575747D01*
X116007239Y-81299206D01*
X116001108Y-81292679D01*
X116001232Y-81284090D01*
X116147437Y-80928802D01*
X116153753Y-80922457D01*
X116509090Y-80776232D01*
X116518044Y-80776253D01*
G37*
%TD.AperFunction*%
%TD*%
%TA.AperFunction,Conductor*%
%TO.N,/NCOMP*%
G36*
X123047642Y-79022633D02*
G01*
X123882712Y-79856722D01*
X123886144Y-79864993D01*
X123882722Y-79873268D01*
X123882712Y-79873278D01*
X123047642Y-80707366D01*
X123039367Y-80710788D01*
X123031781Y-80707990D01*
X123031049Y-80707366D01*
X122194107Y-79993503D01*
X122190037Y-79985527D01*
X122190000Y-79984601D01*
X122190000Y-79745398D01*
X122193427Y-79737125D01*
X122194093Y-79736508D01*
X123031783Y-79022008D01*
X123040300Y-79019248D01*
X123047642Y-79022633D01*
G37*
%TD.AperFunction*%
%TD*%
%TA.AperFunction,Conductor*%
%TO.N,+3V3*%
G36*
X115190909Y-93976232D02*
G01*
X115333763Y-94035018D01*
X115546195Y-94122436D01*
X115552542Y-94128754D01*
X115552563Y-94128804D01*
X115698767Y-94484090D01*
X115698746Y-94493044D01*
X115692760Y-94499206D01*
X115080071Y-94775747D01*
X115071121Y-94776027D01*
X115066985Y-94773356D01*
X114901643Y-94608014D01*
X114898216Y-94599741D01*
X114899252Y-94594928D01*
X114945238Y-94493044D01*
X115175794Y-93982238D01*
X115182320Y-93976108D01*
X115190909Y-93976232D01*
G37*
%TD.AperFunction*%
%TD*%
%TA.AperFunction,Conductor*%
%TO.N,+3V3*%
G36*
X123089244Y-61957229D02*
G01*
X123095886Y-61963235D01*
X123097015Y-61968250D01*
X123097015Y-62202100D01*
X123093588Y-62210373D01*
X123089689Y-62212952D01*
X122463796Y-62465229D01*
X122454842Y-62465143D01*
X122448623Y-62458879D01*
X122300875Y-62104499D01*
X122300855Y-62095550D01*
X122448801Y-61740693D01*
X122455148Y-61734376D01*
X122463528Y-61734175D01*
X123089244Y-61957229D01*
G37*
%TD.AperFunction*%
%TD*%
%TA.AperFunction,Conductor*%
%TO.N,+3V3*%
G36*
X123047970Y-61250536D02*
G01*
X123809197Y-62003652D01*
X123882345Y-62076020D01*
X123885816Y-62084274D01*
X123882433Y-62092566D01*
X123048854Y-62926145D01*
X123040581Y-62929572D01*
X123032308Y-62926145D01*
X123031766Y-62925565D01*
X122388388Y-62188388D01*
X122220198Y-62020198D01*
X122216771Y-62011925D01*
X122220198Y-62003652D01*
X122220472Y-62003386D01*
X123031782Y-61250278D01*
X123040177Y-61247162D01*
X123047970Y-61250536D01*
G37*
%TD.AperFunction*%
%TD*%
%TA.AperFunction,Conductor*%
%TO.N,+3V3*%
G36*
X113757254Y-72422134D02*
G01*
X113763772Y-72428274D01*
X113764801Y-72433072D01*
X113764801Y-72666904D01*
X113761374Y-72675177D01*
X113757224Y-72677853D01*
X113128646Y-72914569D01*
X113119696Y-72914278D01*
X113113724Y-72908122D01*
X112965875Y-72553499D01*
X112965855Y-72544550D01*
X113113713Y-72189904D01*
X113120060Y-72183587D01*
X113128663Y-72183469D01*
X113757254Y-72422134D01*
G37*
%TD.AperFunction*%
%TD*%
%TA.AperFunction,Conductor*%
%TO.N,+3V3*%
G36*
X112968803Y-76675166D02*
G01*
X113324531Y-76822911D01*
X113330857Y-76829249D01*
X113331155Y-76837378D01*
X113166689Y-77336397D01*
X113163850Y-77341008D01*
X112999872Y-77504986D01*
X112991599Y-77508413D01*
X112983326Y-77504986D01*
X112981441Y-77502518D01*
X112602022Y-76838577D01*
X112600892Y-76829694D01*
X112606375Y-76822614D01*
X112607664Y-76821979D01*
X112959800Y-76675165D01*
X112968752Y-76675145D01*
X112968803Y-76675166D01*
G37*
%TD.AperFunction*%
%TD*%
%TA.AperFunction,Conductor*%
%TO.N,+3V3*%
G36*
X116033014Y-93476643D02*
G01*
X116198356Y-93641985D01*
X116201783Y-93650258D01*
X116200747Y-93655071D01*
X115924206Y-94267760D01*
X115917679Y-94273891D01*
X115909090Y-94273767D01*
X115553804Y-94127563D01*
X115547457Y-94121245D01*
X115547436Y-94121195D01*
X115401232Y-93765909D01*
X115401253Y-93756955D01*
X115407237Y-93750794D01*
X116019928Y-93474251D01*
X116028878Y-93473972D01*
X116033014Y-93476643D01*
G37*
%TD.AperFunction*%
%TD*%
%TA.AperFunction,Conductor*%
%TO.N,+3V3*%
G36*
X127276396Y-103141342D02*
G01*
X127276941Y-103142474D01*
X127424123Y-103495497D01*
X127424144Y-103504451D01*
X127424123Y-103504501D01*
X127275728Y-103860434D01*
X127269381Y-103866752D01*
X127262301Y-103867333D01*
X126653963Y-103727091D01*
X126646671Y-103721893D01*
X126644891Y-103715690D01*
X126644891Y-103481920D01*
X126648318Y-103473647D01*
X126650953Y-103471668D01*
X127260509Y-103136721D01*
X127269408Y-103135741D01*
X127276396Y-103141342D01*
G37*
%TD.AperFunction*%
%TD*%
%TA.AperFunction,Conductor*%
%TO.N,+3V3*%
G36*
X125230063Y-103167636D02*
G01*
X125756649Y-103471622D01*
X125762101Y-103478726D01*
X125762500Y-103481755D01*
X125762500Y-103718244D01*
X125759073Y-103726517D01*
X125756649Y-103728377D01*
X125230064Y-104032362D01*
X125221186Y-104033530D01*
X125214922Y-104029338D01*
X124891938Y-103607109D01*
X124889633Y-103598455D01*
X124891938Y-103592891D01*
X124979268Y-103478726D01*
X125214922Y-103170660D01*
X125222670Y-103166172D01*
X125230063Y-103167636D01*
G37*
%TD.AperFunction*%
%TD*%
%TA.AperFunction,Conductor*%
%TO.N,+3V3*%
G36*
X114380071Y-78549252D02*
G01*
X114992760Y-78825793D01*
X114998891Y-78832320D01*
X114998767Y-78840909D01*
X114852563Y-79196195D01*
X114846245Y-79202542D01*
X114846195Y-79202563D01*
X114490909Y-79348767D01*
X114481955Y-79348746D01*
X114475793Y-79342760D01*
X114411676Y-79200707D01*
X114249279Y-78840909D01*
X114199252Y-78730071D01*
X114198972Y-78721121D01*
X114201641Y-78716987D01*
X114366986Y-78551642D01*
X114375258Y-78548216D01*
X114380071Y-78549252D01*
G37*
%TD.AperFunction*%
%TD*%
%TA.AperFunction,Conductor*%
%TO.N,+3V3*%
G36*
X116511348Y-103475447D02*
G01*
X117163761Y-103499584D01*
X117171901Y-103503314D01*
X117175028Y-103511247D01*
X117175987Y-103895124D01*
X117172581Y-103903405D01*
X117172546Y-103903441D01*
X116901085Y-104173945D01*
X116892805Y-104177357D01*
X116884538Y-104173916D01*
X116883947Y-104173276D01*
X116502084Y-103728287D01*
X116499263Y-103720668D01*
X116499263Y-103487140D01*
X116502690Y-103478867D01*
X116510963Y-103475440D01*
X116511348Y-103475447D01*
G37*
%TD.AperFunction*%
%TD*%
%TA.AperFunction,Conductor*%
%TO.N,+3V3*%
G36*
X120604109Y-88627712D02*
G01*
X120604146Y-88627749D01*
X120875126Y-88900087D01*
X120878532Y-88908368D01*
X120875622Y-88916061D01*
X120449138Y-89401498D01*
X120441103Y-89405452D01*
X120432626Y-89402566D01*
X120432075Y-89402049D01*
X120267054Y-89237028D01*
X120263691Y-89229980D01*
X120229832Y-88908368D01*
X120201358Y-88637901D01*
X120203900Y-88629316D01*
X120211769Y-88625041D01*
X120212970Y-88624977D01*
X120595832Y-88624301D01*
X120604109Y-88627712D01*
G37*
%TD.AperFunction*%
%TD*%
%TA.AperFunction,Conductor*%
%TO.N,+3V3*%
G36*
X120119937Y-87988962D02*
G01*
X120742375Y-88250945D01*
X120748671Y-88257313D01*
X120748656Y-88266181D01*
X120602563Y-88621195D01*
X120596245Y-88627542D01*
X120596195Y-88627563D01*
X120240677Y-88773863D01*
X120231723Y-88773842D01*
X120225672Y-88768094D01*
X119985445Y-88266181D01*
X119939485Y-88170156D01*
X119939005Y-88161216D01*
X119941764Y-88156836D01*
X120107127Y-87991473D01*
X120115399Y-87988047D01*
X120119937Y-87988962D01*
G37*
%TD.AperFunction*%
%TD*%
%TA.AperFunction,Conductor*%
%TO.N,+3V3*%
G36*
X116130063Y-103167636D02*
G01*
X116656649Y-103471622D01*
X116662101Y-103478726D01*
X116662500Y-103481755D01*
X116662500Y-103718244D01*
X116659073Y-103726517D01*
X116656649Y-103728377D01*
X116130064Y-104032362D01*
X116121186Y-104033530D01*
X116114922Y-104029338D01*
X115791938Y-103607109D01*
X115789633Y-103598455D01*
X115791938Y-103592891D01*
X115879268Y-103478726D01*
X116114922Y-103170660D01*
X116122670Y-103166172D01*
X116130063Y-103167636D01*
G37*
%TD.AperFunction*%
%TD*%
%TA.AperFunction,Conductor*%
%TO.N,+3V3*%
G36*
X115209109Y-79348719D02*
G01*
X115215427Y-79355066D01*
X115215551Y-79363655D01*
X114977859Y-79992437D01*
X114971728Y-79998964D01*
X114966915Y-80000000D01*
X114733085Y-80000000D01*
X114724812Y-79996573D01*
X114722141Y-79992437D01*
X114484448Y-79363655D01*
X114484728Y-79354705D01*
X114490889Y-79348719D01*
X114845500Y-79200875D01*
X114854449Y-79200855D01*
X115209109Y-79348719D01*
G37*
%TD.AperFunction*%
%TD*%
%TA.AperFunction,Conductor*%
%TO.N,+3V3*%
G36*
X107015669Y-104616742D02*
G01*
X108222263Y-105555571D01*
X108226688Y-105563356D01*
X108224567Y-105571650D01*
X107508046Y-106564846D01*
X107500426Y-106569551D01*
X107491712Y-106567490D01*
X107490280Y-106566270D01*
X106492385Y-105567389D01*
X106488962Y-105559114D01*
X106489425Y-105555861D01*
X106489510Y-105555571D01*
X106760051Y-104622717D01*
X106765648Y-104615726D01*
X106771289Y-104614276D01*
X107008484Y-104614276D01*
X107015669Y-104616742D01*
G37*
%TD.AperFunction*%
%TD*%
%TA.AperFunction,Conductor*%
%TO.N,+3V3*%
G36*
X121030071Y-72774252D02*
G01*
X121642760Y-73050793D01*
X121648891Y-73057320D01*
X121648767Y-73065909D01*
X121502563Y-73421195D01*
X121496245Y-73427542D01*
X121496195Y-73427563D01*
X121140909Y-73573767D01*
X121131955Y-73573746D01*
X121125793Y-73567760D01*
X121061676Y-73425707D01*
X120899279Y-73065909D01*
X120849252Y-72955071D01*
X120848972Y-72946121D01*
X120851641Y-72941987D01*
X121016986Y-72776642D01*
X121025258Y-72773216D01*
X121030071Y-72774252D01*
G37*
%TD.AperFunction*%
%TD*%
%TA.AperFunction,Conductor*%
%TO.N,+3V3*%
G36*
X113090188Y-75877427D02*
G01*
X113092859Y-75881563D01*
X113330551Y-76510344D01*
X113330271Y-76519294D01*
X113324109Y-76525280D01*
X112969502Y-76673123D01*
X112960548Y-76673144D01*
X112960498Y-76673123D01*
X112605890Y-76525280D01*
X112599572Y-76518933D01*
X112599448Y-76510345D01*
X112837141Y-75881562D01*
X112843272Y-75875036D01*
X112848085Y-75874000D01*
X113081915Y-75874000D01*
X113090188Y-75877427D01*
G37*
%TD.AperFunction*%
%TD*%
%TA.AperFunction,Conductor*%
%TO.N,+3V3*%
G36*
X113324109Y-72697719D02*
G01*
X113330427Y-72704066D01*
X113330551Y-72712655D01*
X113092859Y-73341437D01*
X113086728Y-73347964D01*
X113081915Y-73349000D01*
X112848085Y-73349000D01*
X112839812Y-73345573D01*
X112837141Y-73341437D01*
X112599448Y-72712655D01*
X112599728Y-72703705D01*
X112605889Y-72697719D01*
X112960500Y-72549875D01*
X112969449Y-72549855D01*
X113324109Y-72697719D01*
G37*
%TD.AperFunction*%
%TD*%
%TA.AperFunction,Conductor*%
%TO.N,+3V3*%
G36*
X106894862Y-103604965D02*
G01*
X107300946Y-103933964D01*
X107305217Y-103941835D01*
X107303975Y-103948426D01*
X107015770Y-104506171D01*
X107008928Y-104511948D01*
X107005376Y-104512500D01*
X106769624Y-104512500D01*
X106761351Y-104509073D01*
X106759230Y-104506171D01*
X106646635Y-104288274D01*
X106471023Y-103948424D01*
X106470270Y-103939503D01*
X106474051Y-103933966D01*
X106880136Y-103604965D01*
X106888720Y-103602421D01*
X106894862Y-103604965D01*
G37*
%TD.AperFunction*%
%TD*%
%TA.AperFunction,Conductor*%
%TO.N,+3V3*%
G36*
X109134111Y-105295059D02*
G01*
X109135342Y-105296129D01*
X109302078Y-105462865D01*
X109305505Y-105471138D01*
X109304308Y-105476293D01*
X108517722Y-107078761D01*
X108511000Y-107084678D01*
X108502064Y-107084109D01*
X108501928Y-107084041D01*
X107503822Y-106578003D01*
X107497993Y-106571206D01*
X107497877Y-106570832D01*
X107490573Y-106545686D01*
X107208759Y-105575469D01*
X107209743Y-105566570D01*
X107216731Y-105560971D01*
X107218359Y-105560622D01*
X109125442Y-105292816D01*
X109134111Y-105295059D01*
G37*
%TD.AperFunction*%
%TD*%
%TA.AperFunction,Conductor*%
%TO.N,/SCL*%
G36*
X107770294Y-79484728D02*
G01*
X107776280Y-79490890D01*
X107924123Y-79845498D01*
X107924144Y-79854452D01*
X107924123Y-79854502D01*
X107776280Y-80209109D01*
X107769933Y-80215427D01*
X107761344Y-80215551D01*
X107132563Y-79977858D01*
X107126036Y-79971727D01*
X107125000Y-79966914D01*
X107125000Y-79733085D01*
X107128427Y-79724812D01*
X107132563Y-79722141D01*
X107761345Y-79484448D01*
X107770294Y-79484728D01*
G37*
%TD.AperFunction*%
%TD*%
%TA.AperFunction,Conductor*%
%TO.N,/SCL*%
G36*
X106968204Y-79021853D02*
G01*
X107212503Y-79225914D01*
X107805801Y-79721493D01*
X107809953Y-79729426D01*
X107810000Y-79730472D01*
X107810000Y-79969637D01*
X107806573Y-79977910D01*
X107805938Y-79978500D01*
X106968187Y-80700471D01*
X106959683Y-80703276D01*
X106952317Y-80699922D01*
X106117360Y-79873277D01*
X106113892Y-79865022D01*
X106117277Y-79856732D01*
X106952436Y-79022554D01*
X106960710Y-79019133D01*
X106968204Y-79021853D01*
G37*
%TD.AperFunction*%
%TD*%
%TA.AperFunction,Conductor*%
%TO.N,/SDA*%
G36*
X107795294Y-76959728D02*
G01*
X107801280Y-76965890D01*
X107949123Y-77320497D01*
X107949144Y-77329451D01*
X107949123Y-77329501D01*
X107801280Y-77684109D01*
X107794933Y-77690427D01*
X107786344Y-77690551D01*
X107157563Y-77452858D01*
X107151036Y-77446727D01*
X107150000Y-77441914D01*
X107150000Y-77208085D01*
X107153427Y-77199812D01*
X107157563Y-77197141D01*
X107786345Y-76959448D01*
X107795294Y-76959728D01*
G37*
%TD.AperFunction*%
%TD*%
%TA.AperFunction,Conductor*%
%TO.N,/SDA*%
G36*
X106968217Y-76482008D02*
G01*
X107805893Y-77196497D01*
X107809963Y-77204472D01*
X107810000Y-77205398D01*
X107810000Y-77444601D01*
X107806573Y-77452874D01*
X107805893Y-77453503D01*
X106968218Y-78167990D01*
X106959699Y-78170751D01*
X106952357Y-78167366D01*
X106237024Y-77452874D01*
X106117286Y-77333276D01*
X106113855Y-77325007D01*
X106117276Y-77316733D01*
X106952358Y-76482632D01*
X106960632Y-76479211D01*
X106968217Y-76482008D01*
G37*
%TD.AperFunction*%
%TD*%
%TA.AperFunction,Conductor*%
%TO.N,/PHOTO*%
G36*
X122806184Y-74525083D02*
G01*
X123140606Y-74657077D01*
X123147044Y-74663302D01*
X123148011Y-74667960D01*
X123148011Y-74901805D01*
X123144584Y-74910078D01*
X123140310Y-74912800D01*
X122513572Y-75140733D01*
X122504626Y-75140341D01*
X122498774Y-75134240D01*
X122405316Y-74910078D01*
X122350875Y-74779499D01*
X122350855Y-74770550D01*
X122498656Y-74416041D01*
X122505002Y-74409725D01*
X122513749Y-74409662D01*
X122806184Y-74525083D01*
G37*
%TD.AperFunction*%
%TD*%
%TA.AperFunction,Conductor*%
%TO.N,/PHOTO*%
G36*
X123048278Y-73943379D02*
G01*
X123049240Y-73944240D01*
X123882401Y-74777401D01*
X123885828Y-74785674D01*
X123882401Y-74793947D01*
X123882369Y-74793979D01*
X123048209Y-75621669D01*
X123039922Y-75625064D01*
X123031759Y-75621701D01*
X122270013Y-74871660D01*
X122266522Y-74863414D01*
X122269884Y-74855115D01*
X122438388Y-74686612D01*
X123031834Y-73945200D01*
X123039678Y-73940884D01*
X123048278Y-73943379D01*
G37*
%TD.AperFunction*%
%TD*%
%TA.AperFunction,Conductor*%
%TO.N,/UART_RX*%
G36*
X103466206Y-53616990D02*
G01*
X106076253Y-54453859D01*
X106083085Y-54459648D01*
X106083822Y-54468572D01*
X106078033Y-54475404D01*
X106076253Y-54476141D01*
X103466206Y-55313009D01*
X103457282Y-55312272D01*
X103455041Y-55310770D01*
X102614107Y-54593503D01*
X102610037Y-54585527D01*
X102610000Y-54584601D01*
X102610000Y-54345398D01*
X102613427Y-54337125D01*
X102614093Y-54336508D01*
X103455042Y-53619228D01*
X103463560Y-53616468D01*
X103466206Y-53616990D01*
G37*
%TD.AperFunction*%
%TD*%
%TA.AperFunction,Conductor*%
%TO.N,/UART_RX*%
G36*
X101858014Y-54476643D02*
G01*
X102023356Y-54641985D01*
X102026783Y-54650258D01*
X102025747Y-54655071D01*
X101749206Y-55267760D01*
X101742679Y-55273891D01*
X101734090Y-55273767D01*
X101378804Y-55127563D01*
X101372457Y-55121245D01*
X101372436Y-55121195D01*
X101226232Y-54765909D01*
X101226253Y-54756955D01*
X101232237Y-54750794D01*
X101844928Y-54474251D01*
X101853878Y-54473972D01*
X101858014Y-54476643D01*
G37*
%TD.AperFunction*%
%TD*%
%TA.AperFunction,Conductor*%
%TO.N,/UART_TX*%
G36*
X103030696Y-51565890D02*
G01*
X103642437Y-51797141D01*
X103648964Y-51803272D01*
X103650000Y-51808085D01*
X103650000Y-52041914D01*
X103646573Y-52050187D01*
X103642437Y-52052858D01*
X103013655Y-52290551D01*
X103004705Y-52290271D01*
X102998719Y-52284109D01*
X102902306Y-52052858D01*
X102850875Y-51929499D01*
X102850855Y-51920550D01*
X102998719Y-51565889D01*
X103005066Y-51559572D01*
X103013654Y-51559448D01*
X103030696Y-51565890D01*
G37*
%TD.AperFunction*%
%TD*%
%TA.AperFunction,Conductor*%
%TO.N,/UART_TX*%
G36*
X103467472Y-51077395D02*
G01*
X105071904Y-51591830D01*
X106076253Y-51913859D01*
X106083085Y-51919648D01*
X106083822Y-51928572D01*
X106078033Y-51935404D01*
X106076253Y-51936141D01*
X103467473Y-52772603D01*
X103458549Y-52771866D01*
X103454948Y-52768995D01*
X102852747Y-52053264D01*
X102850000Y-52045731D01*
X102850000Y-51804268D01*
X102852747Y-51796735D01*
X103454948Y-51081004D01*
X103462897Y-51076880D01*
X103467472Y-51077395D01*
G37*
%TD.AperFunction*%
%TD*%
%TA.AperFunction,Conductor*%
%TO.N,/SWCLK*%
G36*
X112867449Y-98345135D02*
G01*
X113035571Y-98513257D01*
X113037918Y-98516619D01*
X113306573Y-99097589D01*
X113306935Y-99106537D01*
X113304226Y-99110773D01*
X112468963Y-99946036D01*
X112460690Y-99949463D01*
X112452417Y-99946036D01*
X112451236Y-99944656D01*
X111845842Y-99114320D01*
X111843737Y-99105616D01*
X111848267Y-99098074D01*
X112852150Y-98344052D01*
X112860822Y-98341824D01*
X112867449Y-98345135D01*
G37*
%TD.AperFunction*%
%TD*%
%TA.AperFunction,Conductor*%
%TO.N,/SWCLK*%
G36*
X119703409Y-94113732D02*
G01*
X119846263Y-94172518D01*
X120058695Y-94259936D01*
X120065042Y-94266254D01*
X120065063Y-94266304D01*
X120211267Y-94621590D01*
X120211246Y-94630544D01*
X120205260Y-94636706D01*
X119592571Y-94913247D01*
X119583621Y-94913527D01*
X119579485Y-94910856D01*
X119414143Y-94745514D01*
X119410716Y-94737241D01*
X119411752Y-94732428D01*
X119457738Y-94630544D01*
X119688294Y-94119738D01*
X119694820Y-94113608D01*
X119703409Y-94113732D01*
G37*
%TD.AperFunction*%
%TD*%
%TA.AperFunction,Conductor*%
%TO.N,/SWD*%
G36*
X120153409Y-96163732D02*
G01*
X120296263Y-96222518D01*
X120508695Y-96309936D01*
X120515042Y-96316254D01*
X120515063Y-96316304D01*
X120661267Y-96671590D01*
X120661246Y-96680544D01*
X120655260Y-96686706D01*
X120042571Y-96963247D01*
X120033621Y-96963527D01*
X120029485Y-96960856D01*
X119864143Y-96795514D01*
X119860716Y-96787241D01*
X119861752Y-96782428D01*
X119907738Y-96680544D01*
X120138294Y-96169738D01*
X120144820Y-96163608D01*
X120153409Y-96163732D01*
G37*
%TD.AperFunction*%
%TD*%
%TA.AperFunction,Conductor*%
%TO.N,/SWD*%
G36*
X118238984Y-98421903D02*
G01*
X118405942Y-98588861D01*
X118409369Y-98597134D01*
X118409368Y-98597278D01*
X118390182Y-100153901D01*
X118386654Y-100162131D01*
X118378339Y-100165456D01*
X118375641Y-100165107D01*
X117544009Y-99956887D01*
X117536816Y-99951553D01*
X117536802Y-99951530D01*
X117038077Y-99115215D01*
X117036783Y-99106354D01*
X117042133Y-99099173D01*
X117042137Y-99099170D01*
X118224886Y-98420029D01*
X118233766Y-98418882D01*
X118238984Y-98421903D01*
G37*
%TD.AperFunction*%
%TD*%
%TA.AperFunction,Conductor*%
%TO.N,/LED_CTRL*%
G36*
X107570294Y-97284728D02*
G01*
X107576280Y-97290890D01*
X107724123Y-97645498D01*
X107724144Y-97654452D01*
X107724123Y-97654502D01*
X107576280Y-98009109D01*
X107569933Y-98015427D01*
X107561344Y-98015551D01*
X106932563Y-97777858D01*
X106926036Y-97771727D01*
X106925000Y-97766914D01*
X106925000Y-97533085D01*
X106928427Y-97524812D01*
X106932563Y-97522141D01*
X107561345Y-97284448D01*
X107570294Y-97284728D01*
G37*
%TD.AperFunction*%
%TD*%
%TA.AperFunction,Conductor*%
%TO.N,/LED_CTRL*%
G36*
X106968249Y-96805471D02*
G01*
X107721362Y-97521541D01*
X107724996Y-97529724D01*
X107725000Y-97530019D01*
X107725000Y-97769944D01*
X107721573Y-97778217D01*
X107721319Y-97778464D01*
X106968260Y-98487225D01*
X106959887Y-98490400D01*
X106951974Y-98486983D01*
X106117300Y-97653290D01*
X106113868Y-97645019D01*
X106117289Y-97636746D01*
X106951934Y-96805659D01*
X106960213Y-96802251D01*
X106968249Y-96805471D01*
G37*
%TD.AperFunction*%
%TD*%
%TA.AperFunction,Conductor*%
%TO.N,Net-(D1-K)*%
G36*
X103431772Y-103472470D02*
G01*
X103438683Y-103478164D01*
X103440054Y-103483660D01*
X103440054Y-103717519D01*
X103436627Y-103725792D01*
X103433265Y-103728139D01*
X102814105Y-104014450D01*
X102805157Y-104014812D01*
X102798574Y-104008741D01*
X102798395Y-104008332D01*
X102650875Y-103654499D01*
X102650855Y-103645550D01*
X102798994Y-103290230D01*
X102805340Y-103283914D01*
X102813210Y-103283544D01*
X103431772Y-103472470D01*
G37*
%TD.AperFunction*%
%TD*%
%TA.AperFunction,Conductor*%
%TO.N,Net-(D1-K)*%
G36*
X104985077Y-103170661D02*
G01*
X105308061Y-103592891D01*
X105310366Y-103601545D01*
X105308061Y-103607109D01*
X104985077Y-104029338D01*
X104977329Y-104033827D01*
X104969935Y-104032362D01*
X104443351Y-103728377D01*
X104437899Y-103721273D01*
X104437500Y-103718244D01*
X104437500Y-103481755D01*
X104440927Y-103473482D01*
X104443349Y-103471623D01*
X104969936Y-103167636D01*
X104978813Y-103166469D01*
X104985077Y-103170661D01*
G37*
%TD.AperFunction*%
%TD*%
%TA.AperFunction,Conductor*%
%TO.N,Net-(D2-K)*%
G36*
X113820402Y-103235603D02*
G01*
X114205920Y-103592546D01*
X114209662Y-103600681D01*
X114207734Y-103607579D01*
X113915853Y-104049543D01*
X113908434Y-104054558D01*
X113900681Y-104053470D01*
X113489575Y-103839126D01*
X113486711Y-103837024D01*
X113320107Y-103670420D01*
X113316680Y-103662147D01*
X113320107Y-103653874D01*
X113320714Y-103653309D01*
X113804809Y-103235331D01*
X113813308Y-103232519D01*
X113820402Y-103235603D01*
G37*
%TD.AperFunction*%
%TD*%
%TA.AperFunction,Conductor*%
%TO.N,Net-(D2-K)*%
G36*
X113921501Y-103478567D02*
G01*
X113925231Y-103486707D01*
X113925239Y-103487140D01*
X113925239Y-103720668D01*
X113922418Y-103728287D01*
X113540554Y-104173276D01*
X113532566Y-104177323D01*
X113524056Y-104174536D01*
X113523416Y-104173945D01*
X113251955Y-103903441D01*
X113248514Y-103895174D01*
X113248514Y-103895124D01*
X113248931Y-103728287D01*
X113249473Y-103511244D01*
X113252921Y-103502982D01*
X113260739Y-103499584D01*
X113913108Y-103475448D01*
X113921501Y-103478567D01*
G37*
%TD.AperFunction*%
%TD*%
%TA.AperFunction,Conductor*%
%TO.N,/PHOTOT*%
G36*
X121975188Y-97952927D02*
G01*
X121977859Y-97957063D01*
X122215551Y-98585844D01*
X122215271Y-98594794D01*
X122209109Y-98600780D01*
X121854502Y-98748623D01*
X121845548Y-98748644D01*
X121845498Y-98748623D01*
X121490890Y-98600780D01*
X121484572Y-98594433D01*
X121484448Y-98585845D01*
X121722141Y-97957062D01*
X121728272Y-97950536D01*
X121733085Y-97949500D01*
X121966915Y-97949500D01*
X121975188Y-97952927D01*
G37*
%TD.AperFunction*%
%TD*%
%TA.AperFunction,Conductor*%
%TO.N,/PHOTOT*%
G36*
X122209109Y-83848719D02*
G01*
X122215427Y-83855066D01*
X122215551Y-83863655D01*
X121977859Y-84492437D01*
X121971728Y-84498964D01*
X121966915Y-84500000D01*
X121733085Y-84500000D01*
X121724812Y-84496573D01*
X121722141Y-84492437D01*
X121484448Y-83863655D01*
X121484728Y-83854705D01*
X121490889Y-83848719D01*
X121845500Y-83700875D01*
X121854449Y-83700855D01*
X122209109Y-83848719D01*
G37*
%TD.AperFunction*%
%TD*%
%TA.AperFunction,Conductor*%
%TO.N,/STATUS*%
G36*
X123047641Y-99342632D02*
G01*
X123882712Y-100176722D01*
X123886144Y-100184992D01*
X123882722Y-100193267D01*
X123882712Y-100193277D01*
X123047642Y-101027366D01*
X123039367Y-101030788D01*
X123031781Y-101027990D01*
X123031049Y-101027366D01*
X122194107Y-100313503D01*
X122190037Y-100305527D01*
X122190000Y-100304601D01*
X122190000Y-100065398D01*
X122193427Y-100057125D01*
X122194093Y-100056508D01*
X123031783Y-99342008D01*
X123040300Y-99339248D01*
X123047641Y-99342632D01*
G37*
%TD.AperFunction*%
%TD*%
%TA.AperFunction,Conductor*%
%TO.N,/STATUS*%
G36*
X120368044Y-99251253D02*
G01*
X120374206Y-99257239D01*
X120650747Y-99869928D01*
X120651027Y-99878878D01*
X120648356Y-99883014D01*
X120483014Y-100048356D01*
X120474741Y-100051783D01*
X120469928Y-100050747D01*
X119857239Y-99774206D01*
X119851108Y-99767679D01*
X119851232Y-99759090D01*
X119997437Y-99403802D01*
X120003753Y-99397457D01*
X120359090Y-99251232D01*
X120368044Y-99251253D01*
G37*
%TD.AperFunction*%
%TD*%
%TA.AperFunction,Conductor*%
%TO.N,Net-(D3-K)*%
G36*
X119605696Y-103240890D02*
G01*
X120217436Y-103472141D01*
X120223963Y-103478272D01*
X120224999Y-103483085D01*
X120224999Y-103716914D01*
X120221572Y-103725187D01*
X120217436Y-103727858D01*
X119588655Y-103965551D01*
X119579705Y-103965271D01*
X119573719Y-103959109D01*
X119477306Y-103727858D01*
X119425875Y-103604499D01*
X119425855Y-103595550D01*
X119573719Y-103240889D01*
X119580066Y-103234572D01*
X119588654Y-103234448D01*
X119605696Y-103240890D01*
G37*
%TD.AperFunction*%
%TD*%
%TA.AperFunction,Conductor*%
%TO.N,Net-(D3-K)*%
G36*
X122985077Y-103170661D02*
G01*
X123308061Y-103592891D01*
X123310366Y-103601545D01*
X123308061Y-103607109D01*
X122985077Y-104029338D01*
X122977329Y-104033827D01*
X122969935Y-104032362D01*
X122443351Y-103728377D01*
X122437899Y-103721273D01*
X122437500Y-103718244D01*
X122437500Y-103481755D01*
X122440927Y-103473482D01*
X122443349Y-103471623D01*
X122969936Y-103167636D01*
X122978813Y-103166469D01*
X122985077Y-103170661D01*
G37*
%TD.AperFunction*%
%TD*%
M02*
