%TF.GenerationSoftware,KiCad,Pcbnew,7.0.7-7.0.7~ubuntu22.04.1*%
%TF.CreationDate,2023-09-18T01:56:03+01:00*%
%TF.ProjectId,cam_delay_meas_photo,63616d5f-6465-46c6-9179-5f6d6561735f,rev?*%
%TF.SameCoordinates,Original*%
%TF.FileFunction,Soldermask,Top*%
%TF.FilePolarity,Negative*%
%FSLAX46Y46*%
G04 Gerber Fmt 4.6, Leading zero omitted, Abs format (unit mm)*
G04 Created by KiCad (PCBNEW 7.0.7-7.0.7~ubuntu22.04.1) date 2023-09-18 01:56:03*
%MOMM*%
%LPD*%
G01*
G04 APERTURE LIST*
G04 Aperture macros list*
%AMRoundRect*
0 Rectangle with rounded corners*
0 $1 Rounding radius*
0 $2 $3 $4 $5 $6 $7 $8 $9 X,Y pos of 4 corners*
0 Add a 4 corners polygon primitive as box body*
4,1,4,$2,$3,$4,$5,$6,$7,$8,$9,$2,$3,0*
0 Add four circle primitives for the rounded corners*
1,1,$1+$1,$2,$3*
1,1,$1+$1,$4,$5*
1,1,$1+$1,$6,$7*
1,1,$1+$1,$8,$9*
0 Add four rect primitives between the rounded corners*
20,1,$1+$1,$2,$3,$4,$5,0*
20,1,$1+$1,$4,$5,$6,$7,0*
20,1,$1+$1,$6,$7,$8,$9,0*
20,1,$1+$1,$8,$9,$2,$3,0*%
G04 Aperture macros list end*
%ADD10RoundRect,0.218750X-0.218750X-0.256250X0.218750X-0.256250X0.218750X0.256250X-0.218750X0.256250X0*%
%ADD11R,2.025000X2.025000*%
%ADD12C,2.025000*%
%ADD13R,3.500000X1.700000*%
%ADD14R,1.700000X3.500000*%
G04 APERTURE END LIST*
D10*
%TO.C,D3*%
X123312500Y-103600000D03*
X124887500Y-103600000D03*
%TD*%
%TO.C,D1*%
X105312500Y-103600000D03*
X106887500Y-103600000D03*
%TD*%
D11*
%TO.C,J1*%
X107500000Y-106575000D03*
D12*
X104000000Y-106575000D03*
%TD*%
D11*
%TO.C,J2*%
X126000000Y-106575000D03*
D12*
X122500000Y-106575000D03*
%TD*%
D13*
%TO.C,U2*%
X105210000Y-51925000D03*
X105210000Y-54465000D03*
X105210000Y-57005000D03*
X105210000Y-59545000D03*
X105210000Y-62085000D03*
X105210000Y-64625000D03*
X105210000Y-67165000D03*
X105210000Y-69705000D03*
X105210000Y-72245000D03*
X105210000Y-74785000D03*
X105210000Y-77325000D03*
X105210000Y-79865000D03*
X105210000Y-82405000D03*
X105210000Y-84945000D03*
X105210000Y-87485000D03*
X105210000Y-90025000D03*
X105210000Y-92565000D03*
X105210000Y-95105000D03*
X105210000Y-97645000D03*
X105210000Y-100185000D03*
X124790000Y-100185000D03*
X124790000Y-97645000D03*
X124790000Y-95105000D03*
X124790000Y-92565000D03*
X124790000Y-90025000D03*
X124790000Y-87485000D03*
X124790000Y-84945000D03*
X124790000Y-82405000D03*
X124790000Y-79865000D03*
X124790000Y-77325000D03*
X124790000Y-74785000D03*
X124790000Y-72245000D03*
X124790000Y-69705000D03*
X124790000Y-67165000D03*
X124790000Y-64625000D03*
X124790000Y-62085000D03*
X124790000Y-59545000D03*
X124790000Y-57005000D03*
X124790000Y-54465000D03*
X124790000Y-51925000D03*
D14*
X112460000Y-100855000D03*
X115000000Y-100855000D03*
X117540000Y-100855000D03*
%TD*%
D10*
%TO.C,D2*%
X114212500Y-103600000D03*
X115787500Y-103600000D03*
%TD*%
M02*
