M48
; DRILL file {KiCad 7.0.0-da2b9df05c~171~ubuntu22.04.1} date Вс 03 сен 2023 19:04:52
; FORMAT={-:-/ absolute / metric / decimal}
; #@! TF.CreationDate,2023-09-03T19:04:52+01:00
; #@! TF.GenerationSoftware,Kicad,Pcbnew,7.0.0-da2b9df05c~171~ubuntu22.04.1
; #@! TF.FileFunction,Plated,1,2,PTH
FMAT,2
METRIC
; #@! TA.AperFunction,Plated,PTH,ViaDrill
T1C0.400
; #@! TA.AperFunction,Plated,PTH,ComponentDrill
T2C1.350
%
G90
G05
T1
X101.375Y-55.125
X102.65Y-103.65
X107.725Y-95.1
X107.725Y-97.65
X107.925Y-69.725
X107.925Y-79.85
X107.925Y-82.4
X107.95Y-77.325
X108.375Y-57.0
X108.425Y-55.1
X112.965Y-72.549
X112.965Y-76.674
X113.25Y-103.9
X115.55Y-94.125
X117.175Y-103.9
X118.825Y-75.75
X119.425Y-103.6
X120.0Y-99.4
X120.062Y-94.262
X120.512Y-96.312
X120.6Y-88.625
X121.5Y-73.425
X121.85Y-83.7
X121.85Y-98.749
X121.9Y-82.4
X122.275Y-69.675
X122.3Y-57.0
X122.3Y-62.1
X122.35Y-74.775
X122.55Y-95.1
X127.425Y-103.5
T2
X104.0Y-106.575
X107.5Y-106.575
X122.5Y-106.575
X126.0Y-106.575
T0
M30
