%TF.GenerationSoftware,KiCad,Pcbnew,7.0.0-da2b9df05c~171~ubuntu22.04.1*%
%TF.CreationDate,2023-09-03T19:05:55+01:00*%
%TF.ProjectId,cam_delay_meas_photo,63616d5f-6465-46c6-9179-5f6d6561735f,rev?*%
%TF.SameCoordinates,Original*%
%TF.FileFunction,Copper,L1,Top*%
%TF.FilePolarity,Positive*%
%FSLAX46Y46*%
G04 Gerber Fmt 4.6, Leading zero omitted, Abs format (unit mm)*
G04 Created by KiCad (PCBNEW 7.0.0-da2b9df05c~171~ubuntu22.04.1) date 2023-09-03 19:05:55*
%MOMM*%
%LPD*%
G01*
G04 APERTURE LIST*
G04 Aperture macros list*
%AMRoundRect*
0 Rectangle with rounded corners*
0 $1 Rounding radius*
0 $2 $3 $4 $5 $6 $7 $8 $9 X,Y pos of 4 corners*
0 Add a 4 corners polygon primitive as box body*
4,1,4,$2,$3,$4,$5,$6,$7,$8,$9,$2,$3,0*
0 Add four circle primitives for the rounded corners*
1,1,$1+$1,$2,$3*
1,1,$1+$1,$4,$5*
1,1,$1+$1,$6,$7*
1,1,$1+$1,$8,$9*
0 Add four rect primitives between the rounded corners*
20,1,$1+$1,$2,$3,$4,$5,0*
20,1,$1+$1,$4,$5,$6,$7,0*
20,1,$1+$1,$6,$7,$8,$9,0*
20,1,$1+$1,$8,$9,$2,$3,0*%
G04 Aperture macros list end*
%TA.AperFunction,SMDPad,CuDef*%
%ADD10RoundRect,0.218750X-0.218750X-0.256250X0.218750X-0.256250X0.218750X0.256250X-0.218750X0.256250X0*%
%TD*%
%TA.AperFunction,ComponentPad*%
%ADD11R,2.025000X2.025000*%
%TD*%
%TA.AperFunction,ComponentPad*%
%ADD12C,2.025000*%
%TD*%
%TA.AperFunction,SMDPad,CuDef*%
%ADD13R,3.500000X1.700000*%
%TD*%
%TA.AperFunction,SMDPad,CuDef*%
%ADD14R,1.700000X3.500000*%
%TD*%
%TA.AperFunction,ViaPad*%
%ADD15C,0.800000*%
%TD*%
%TA.AperFunction,Conductor*%
%ADD16C,0.250000*%
%TD*%
G04 APERTURE END LIST*
D10*
%TO.P,D3,1,K*%
%TO.N,Net-(D3-K)*%
X123312500Y-103600000D03*
%TO.P,D3,2,A*%
%TO.N,+3V3*%
X124887500Y-103600000D03*
%TD*%
%TO.P,D1,1,K*%
%TO.N,Net-(D1-K)*%
X105312500Y-103600000D03*
%TO.P,D1,2,A*%
%TO.N,+3V3*%
X106887500Y-103600000D03*
%TD*%
D11*
%TO.P,J1,1,Pin_1*%
%TO.N,+3V3*%
X107499999Y-106574999D03*
D12*
%TO.P,J1,2,Pin_2*%
%TO.N,Net-(J1-Pin_2)*%
X104000000Y-106575000D03*
%TD*%
D11*
%TO.P,J2,1,Pin_1*%
%TO.N,Net-(J2-Pin_1)*%
X125999999Y-106574999D03*
D12*
%TO.P,J2,2,Pin_2*%
%TO.N,Net-(J2-Pin_2)*%
X122500000Y-106575000D03*
%TD*%
D13*
%TO.P,U2,1,GPIO0*%
%TO.N,/UART_TX*%
X105209999Y-51924999D03*
%TO.P,U2,2,GPIO1*%
%TO.N,/UART_RX*%
X105209999Y-54464999D03*
%TO.P,U2,3,GND*%
%TO.N,GND*%
X105209999Y-57004999D03*
%TO.P,U2,4,GPIO2*%
%TO.N,unconnected-(U2-GPIO2-Pad4)*%
X105209999Y-59544999D03*
%TO.P,U2,5,GPIO3*%
%TO.N,unconnected-(U2-GPIO3-Pad5)*%
X105209999Y-62084999D03*
%TO.P,U2,6,GPIO4*%
%TO.N,unconnected-(U2-GPIO4-Pad6)*%
X105209999Y-64624999D03*
%TO.P,U2,7,GPIO5*%
%TO.N,unconnected-(U2-GPIO5-Pad7)*%
X105209999Y-67164999D03*
%TO.P,U2,8,GND*%
%TO.N,GND*%
X105209999Y-69704999D03*
%TO.P,U2,9,GPIO6*%
%TO.N,unconnected-(U2-GPIO6-Pad9)*%
X105209999Y-72244999D03*
%TO.P,U2,10,GPIO7*%
%TO.N,unconnected-(U2-GPIO7-Pad10)*%
X105209999Y-74784999D03*
%TO.P,U2,11,GPIO8*%
%TO.N,/SDA*%
X105209999Y-77324999D03*
%TO.P,U2,12,GPIO9*%
%TO.N,/SCL*%
X105209999Y-79864999D03*
%TO.P,U2,13,GND*%
%TO.N,GND*%
X105209999Y-82404999D03*
%TO.P,U2,14,GPIO10*%
%TO.N,unconnected-(U2-GPIO10-Pad14)*%
X105209999Y-84944999D03*
%TO.P,U2,15,GPIO11*%
%TO.N,unconnected-(U2-GPIO11-Pad15)*%
X105209999Y-87484999D03*
%TO.P,U2,16,GPIO12*%
%TO.N,unconnected-(U2-GPIO12-Pad16)*%
X105209999Y-90024999D03*
%TO.P,U2,17,GPIO13*%
%TO.N,unconnected-(U2-GPIO13-Pad17)*%
X105209999Y-92564999D03*
%TO.P,U2,18,GND*%
%TO.N,GND*%
X105209999Y-95104999D03*
%TO.P,U2,19,GPIO14*%
%TO.N,/LED_CTRL*%
X105209999Y-97644999D03*
%TO.P,U2,20,GPIO15*%
%TO.N,unconnected-(U2-GPIO15-Pad20)*%
X105209999Y-100184999D03*
%TO.P,U2,21,GPIO16*%
%TO.N,/STATUS*%
X124789999Y-100184999D03*
%TO.P,U2,22,GPIO17*%
%TO.N,unconnected-(U2-GPIO17-Pad22)*%
X124789999Y-97644999D03*
%TO.P,U2,23,GND*%
%TO.N,GND*%
X124789999Y-95104999D03*
%TO.P,U2,24,GPIO18*%
%TO.N,unconnected-(U2-GPIO18-Pad24)*%
X124789999Y-92564999D03*
%TO.P,U2,25,GPIO19*%
%TO.N,unconnected-(U2-GPIO19-Pad25)*%
X124789999Y-90024999D03*
%TO.P,U2,26,GPIO20*%
%TO.N,unconnected-(U2-GPIO20-Pad26)*%
X124789999Y-87484999D03*
%TO.P,U2,27,GPIO21*%
%TO.N,unconnected-(U2-GPIO21-Pad27)*%
X124789999Y-84944999D03*
%TO.P,U2,28,GND*%
%TO.N,GND*%
X124789999Y-82404999D03*
%TO.P,U2,29,GPIO22*%
%TO.N,/COMP*%
X124789999Y-79864999D03*
%TO.P,U2,30,RUN*%
%TO.N,unconnected-(U2-RUN-Pad30)*%
X124789999Y-77324999D03*
%TO.P,U2,31,GPIO26_ADC0*%
%TO.N,/PHOTO*%
X124789999Y-74784999D03*
%TO.P,U2,32,GPIO27_ADC1*%
%TO.N,unconnected-(U2-GPIO27_ADC1-Pad32)*%
X124789999Y-72244999D03*
%TO.P,U2,33,AGND*%
%TO.N,GND*%
X124789999Y-69704999D03*
%TO.P,U2,34,GPIO28_ADC2*%
%TO.N,unconnected-(U2-GPIO28_ADC2-Pad34)*%
X124789999Y-67164999D03*
%TO.P,U2,35,ADC_VREF*%
%TO.N,unconnected-(U2-ADC_VREF-Pad35)*%
X124789999Y-64624999D03*
%TO.P,U2,36,3V3*%
%TO.N,+3V3*%
X124789999Y-62084999D03*
%TO.P,U2,37,3V3_EN*%
%TO.N,unconnected-(U2-3V3_EN-Pad37)*%
X124789999Y-59544999D03*
%TO.P,U2,38,GND*%
%TO.N,GND*%
X124789999Y-57004999D03*
%TO.P,U2,39,VSYS*%
%TO.N,unconnected-(U2-VSYS-Pad39)*%
X124789999Y-54464999D03*
%TO.P,U2,40,VBUS*%
%TO.N,unconnected-(U2-VBUS-Pad40)*%
X124789999Y-51924999D03*
D14*
%TO.P,U2,41,SWCLK*%
%TO.N,/SWCLK*%
X112459999Y-100854999D03*
%TO.P,U2,42,GND*%
%TO.N,GND*%
X114999999Y-100854999D03*
%TO.P,U2,43,SWDIO*%
%TO.N,/SWD*%
X117539999Y-100854999D03*
%TD*%
D10*
%TO.P,D2,1,K*%
%TO.N,Net-(D2-K)*%
X114212500Y-103600000D03*
%TO.P,D2,2,A*%
%TO.N,+3V3*%
X115787500Y-103600000D03*
%TD*%
D15*
%TO.N,+3V3*%
X117175000Y-103900000D03*
X115550000Y-94125000D03*
X120600000Y-88625000D03*
X112965000Y-76674000D03*
X121500000Y-73425000D03*
X127425000Y-103500000D03*
X112965000Y-72549000D03*
X122300000Y-62100000D03*
%TO.N,GND*%
X122275000Y-69675000D03*
X108375000Y-57000000D03*
X107925000Y-82400000D03*
X122300000Y-57000000D03*
X107725000Y-95100000D03*
X122550000Y-95100000D03*
X121900000Y-82400000D03*
X107925000Y-69725000D03*
%TO.N,/SCL*%
X107925000Y-79850000D03*
%TO.N,/SDA*%
X107950000Y-77325000D03*
%TO.N,/PHOTO*%
X122350000Y-74775000D03*
%TO.N,/COMP*%
X118825000Y-75750000D03*
%TO.N,/UART_RX*%
X101375000Y-55125000D03*
%TO.N,/UART_TX*%
X108425000Y-55100000D03*
%TO.N,/SWCLK*%
X120062500Y-94262500D03*
%TO.N,/SWD*%
X120512500Y-96312500D03*
%TO.N,/LED_CTRL*%
X107725000Y-97650000D03*
%TO.N,Net-(D1-K)*%
X102650000Y-103650000D03*
%TO.N,Net-(D2-K)*%
X113249502Y-103900000D03*
%TO.N,/PHOTOT*%
X121850000Y-98749500D03*
X121850000Y-83700000D03*
%TO.N,/STATUS*%
X120000000Y-99400000D03*
%TO.N,Net-(D3-K)*%
X119425000Y-103600000D03*
%TD*%
D16*
%TO.N,+3V3*%
X115550000Y-94125000D02*
X109225000Y-100450000D01*
X123965000Y-62085000D02*
X122315000Y-62085000D01*
X127325000Y-103600000D02*
X127425000Y-103500000D01*
X120625000Y-72550000D02*
X112965000Y-72550000D01*
X115550000Y-94125000D02*
X120600000Y-89075000D01*
X124585000Y-103600000D02*
X127325000Y-103600000D01*
X109225000Y-100450000D02*
X109225000Y-105375000D01*
X117175000Y-103900000D02*
X116875000Y-103600000D01*
X122315000Y-62085000D02*
X122300000Y-62100000D01*
X120600000Y-89075000D02*
X120600000Y-88625000D01*
X116875000Y-103600000D02*
X115787500Y-103600000D01*
X112965000Y-76690000D02*
X120600000Y-84325000D01*
X108025000Y-106575000D02*
X106887500Y-105437500D01*
X121500000Y-73425000D02*
X120625000Y-72550000D01*
X112965000Y-72550000D02*
X112965000Y-76690000D01*
X106887500Y-105437500D02*
X106887500Y-103600000D01*
X109225000Y-105375000D02*
X108025000Y-106575000D01*
X120600000Y-84325000D02*
X120600000Y-88625000D01*
%TO.N,/SCL*%
X106200000Y-79850000D02*
X106185000Y-79865000D01*
X107925000Y-79850000D02*
X106200000Y-79850000D01*
%TO.N,/SDA*%
X107950000Y-77325000D02*
X106185000Y-77325000D01*
%TO.N,/PHOTO*%
X122360000Y-74785000D02*
X122350000Y-74775000D01*
X123965000Y-74785000D02*
X122360000Y-74785000D01*
%TO.N,/COMP*%
X123965000Y-79865000D02*
X122940000Y-79865000D01*
X122940000Y-79865000D02*
X118825000Y-75750000D01*
%TO.N,/UART_RX*%
X102035000Y-54465000D02*
X106185000Y-54465000D01*
X101375000Y-55125000D02*
X102035000Y-54465000D01*
%TO.N,/UART_TX*%
X107900000Y-51925000D02*
X106185000Y-51925000D01*
X108425000Y-55100000D02*
X108425000Y-52450000D01*
X108425000Y-52450000D02*
X107900000Y-51925000D01*
%TO.N,/SWCLK*%
X116750000Y-97575000D02*
X113800000Y-97575000D01*
X112535000Y-98840000D02*
X112535000Y-99955000D01*
X120062500Y-94262500D02*
X116750000Y-97575000D01*
X113800000Y-97575000D02*
X112535000Y-98840000D01*
%TO.N,/SWD*%
X120512500Y-96312500D02*
X117615000Y-99210000D01*
X117615000Y-99210000D02*
X117615000Y-99955000D01*
%TO.N,/LED_CTRL*%
X107725000Y-97650000D02*
X106190000Y-97650000D01*
X106190000Y-97650000D02*
X106185000Y-97645000D01*
%TO.N,Net-(D1-K)*%
X102700000Y-103600000D02*
X102650000Y-103650000D01*
X105312500Y-103600000D02*
X102700000Y-103600000D01*
%TO.N,Net-(D2-K)*%
X113549502Y-103600000D02*
X114212500Y-103600000D01*
X113249502Y-103900000D02*
X113549502Y-103600000D01*
%TO.N,/PHOTOT*%
X121850000Y-83700000D02*
X121850000Y-98749500D01*
%TO.N,/STATUS*%
X123965000Y-100185000D02*
X120785000Y-100185000D01*
X120785000Y-100185000D02*
X120000000Y-99400000D01*
%TO.N,Net-(D3-K)*%
X119425000Y-103600000D02*
X123615000Y-103600000D01*
%TD*%
%TA.AperFunction,Conductor*%
%TO.N,/SDA*%
G36*
X107795115Y-76959649D02*
G01*
X107801280Y-76965890D01*
X107949123Y-77320498D01*
X107950024Y-77325000D01*
X107949123Y-77329502D01*
X107801280Y-77684109D01*
X107795115Y-77690350D01*
X107786344Y-77690551D01*
X107157563Y-77452859D01*
X107152075Y-77448567D01*
X107150000Y-77441915D01*
X107150000Y-77208085D01*
X107152075Y-77201433D01*
X107157563Y-77197141D01*
X107786345Y-76959448D01*
X107795115Y-76959649D01*
G37*
%TD.AperFunction*%
%TD*%
%TA.AperFunction,Conductor*%
%TO.N,+3V3*%
G36*
X123047971Y-61250537D02*
G01*
X123882345Y-62076020D01*
X123885406Y-62081268D01*
X123885423Y-62087345D01*
X123882389Y-62092610D01*
X123048854Y-62926145D01*
X123043353Y-62929239D01*
X123037045Y-62929025D01*
X123031766Y-62925565D01*
X122388510Y-62188528D01*
X122388388Y-62188388D01*
X122220197Y-62020197D01*
X122217133Y-62014813D01*
X122217248Y-62008618D01*
X122220508Y-62003353D01*
X123031782Y-61250278D01*
X123039928Y-61247155D01*
X123047971Y-61250537D01*
G37*
%TD.AperFunction*%
%TD*%
%TA.AperFunction,Conductor*%
%TO.N,Net-(D2-K)*%
G36*
X113820402Y-103235603D02*
G01*
X114205920Y-103592546D01*
X114209587Y-103599729D01*
X114207734Y-103607579D01*
X113915853Y-104049543D01*
X113909022Y-104054422D01*
X113900681Y-104053470D01*
X113489575Y-103839126D01*
X113486711Y-103837024D01*
X113320107Y-103670420D01*
X113317008Y-103664899D01*
X113317240Y-103658571D01*
X113320731Y-103653294D01*
X113804809Y-103235330D01*
X113812656Y-103232490D01*
X113820402Y-103235603D01*
G37*
%TD.AperFunction*%
%TD*%
%TA.AperFunction,Conductor*%
%TO.N,+3V3*%
G36*
X116759789Y-103484638D02*
G01*
X117163761Y-103499584D01*
X117171743Y-103503147D01*
X117175028Y-103511247D01*
X117175987Y-103895124D01*
X117175098Y-103899626D01*
X117172546Y-103903441D01*
X116901085Y-104173945D01*
X116895553Y-104177035D01*
X116889221Y-104176788D01*
X116883947Y-104173276D01*
X116502084Y-103728287D01*
X116499263Y-103720668D01*
X116499263Y-103487141D01*
X116500903Y-103481167D01*
X116505365Y-103476867D01*
X116511396Y-103475449D01*
X116759789Y-103484638D01*
G37*
%TD.AperFunction*%
%TD*%
%TA.AperFunction,Conductor*%
%TO.N,/SWD*%
G36*
X120153409Y-96163732D02*
G01*
X120296263Y-96222518D01*
X120508696Y-96309936D01*
X120512516Y-96312483D01*
X120515063Y-96316304D01*
X120661267Y-96671590D01*
X120661320Y-96680362D01*
X120655260Y-96686706D01*
X120042571Y-96963247D01*
X120035655Y-96964092D01*
X120029485Y-96960856D01*
X119864143Y-96795514D01*
X119860907Y-96789344D01*
X119861752Y-96782428D01*
X119907820Y-96680362D01*
X120138294Y-96169737D01*
X120144637Y-96163679D01*
X120153409Y-96163732D01*
G37*
%TD.AperFunction*%
%TD*%
%TA.AperFunction,Conductor*%
%TO.N,+3V3*%
G36*
X109130782Y-105293307D02*
G01*
X109135342Y-105296129D01*
X109302078Y-105462865D01*
X109305347Y-105469221D01*
X109304308Y-105476293D01*
X108517722Y-107078762D01*
X108513695Y-107083351D01*
X108507905Y-107085287D01*
X108501928Y-107084042D01*
X107503822Y-106578003D01*
X107500105Y-106575035D01*
X107497877Y-106570832D01*
X107490573Y-106545686D01*
X107208759Y-105575468D01*
X107208779Y-105568877D01*
X107212361Y-105563341D01*
X107218365Y-105560621D01*
X109125442Y-105292816D01*
X109130782Y-105293307D01*
G37*
%TD.AperFunction*%
%TD*%
%TA.AperFunction,Conductor*%
%TO.N,/PHOTOT*%
G36*
X121973567Y-97951575D02*
G01*
X121977859Y-97957063D01*
X122215551Y-98585844D01*
X122215350Y-98594615D01*
X122209109Y-98600780D01*
X121854502Y-98748623D01*
X121850000Y-98749524D01*
X121845498Y-98748623D01*
X121490890Y-98600780D01*
X121484649Y-98594615D01*
X121484448Y-98585845D01*
X121722141Y-97957062D01*
X121726433Y-97951575D01*
X121733085Y-97949500D01*
X121966915Y-97949500D01*
X121973567Y-97951575D01*
G37*
%TD.AperFunction*%
%TD*%
%TA.AperFunction,Conductor*%
%TO.N,/UART_RX*%
G36*
X101858014Y-54476643D02*
G01*
X102023356Y-54641985D01*
X102026592Y-54648155D01*
X102025747Y-54655071D01*
X101749206Y-55267760D01*
X101742862Y-55273820D01*
X101734090Y-55273767D01*
X101378804Y-55127563D01*
X101374983Y-55125016D01*
X101372436Y-55121195D01*
X101226232Y-54765909D01*
X101226179Y-54757137D01*
X101232237Y-54750794D01*
X101844928Y-54474251D01*
X101851844Y-54473407D01*
X101858014Y-54476643D01*
G37*
%TD.AperFunction*%
%TD*%
%TA.AperFunction,Conductor*%
%TO.N,/SWCLK*%
G36*
X119703409Y-94113732D02*
G01*
X119846263Y-94172518D01*
X120058696Y-94259936D01*
X120062516Y-94262483D01*
X120065063Y-94266304D01*
X120211267Y-94621590D01*
X120211320Y-94630362D01*
X120205260Y-94636706D01*
X119592571Y-94913247D01*
X119585655Y-94914092D01*
X119579485Y-94910856D01*
X119414143Y-94745514D01*
X119410907Y-94739344D01*
X119411752Y-94732428D01*
X119457820Y-94630362D01*
X119688294Y-94119737D01*
X119694637Y-94113679D01*
X119703409Y-94113732D01*
G37*
%TD.AperFunction*%
%TD*%
%TA.AperFunction,Conductor*%
%TO.N,+3V3*%
G36*
X106894862Y-103604965D02*
G01*
X107300946Y-103933964D01*
X107305033Y-103940656D01*
X107303975Y-103948426D01*
X107015770Y-104506171D01*
X107011461Y-104510793D01*
X107005376Y-104512500D01*
X106769624Y-104512500D01*
X106763539Y-104510793D01*
X106759230Y-104506171D01*
X106646635Y-104288274D01*
X106471023Y-103948424D01*
X106469966Y-103940656D01*
X106474051Y-103933966D01*
X106880137Y-103604965D01*
X106887500Y-103602357D01*
X106894862Y-103604965D01*
G37*
%TD.AperFunction*%
%TD*%
%TA.AperFunction,Conductor*%
%TO.N,+3V3*%
G36*
X125230063Y-103167636D02*
G01*
X125756649Y-103471622D01*
X125760932Y-103475905D01*
X125762500Y-103481755D01*
X125762500Y-103718245D01*
X125760932Y-103724095D01*
X125756649Y-103728377D01*
X125597035Y-103820518D01*
X125230064Y-104032362D01*
X125221924Y-104033702D01*
X125214922Y-104029338D01*
X124891938Y-103607109D01*
X124889531Y-103600000D01*
X124891938Y-103592891D01*
X124981426Y-103475905D01*
X125214922Y-103170660D01*
X125221924Y-103166297D01*
X125230063Y-103167636D01*
G37*
%TD.AperFunction*%
%TD*%
%TA.AperFunction,Conductor*%
%TO.N,/PHOTO*%
G36*
X122806184Y-74525083D02*
G01*
X123140606Y-74657077D01*
X123145984Y-74661378D01*
X123148011Y-74667960D01*
X123148011Y-74901806D01*
X123145894Y-74908518D01*
X123140310Y-74912800D01*
X122958683Y-74978855D01*
X122513572Y-75140733D01*
X122504872Y-75140452D01*
X122498774Y-75134240D01*
X122467250Y-75058630D01*
X122350875Y-74779497D01*
X122349975Y-74775000D01*
X122350875Y-74770502D01*
X122498656Y-74416041D01*
X122504899Y-74409768D01*
X122513749Y-74409662D01*
X122806184Y-74525083D01*
G37*
%TD.AperFunction*%
%TD*%
%TA.AperFunction,Conductor*%
%TO.N,+3V3*%
G36*
X122860929Y-61875840D02*
G01*
X123089245Y-61957230D01*
X123094878Y-61961508D01*
X123097016Y-61968251D01*
X123097016Y-62202101D01*
X123095013Y-62208648D01*
X123089690Y-62212953D01*
X122463796Y-62465229D01*
X122454905Y-62465170D01*
X122448623Y-62458879D01*
X122300875Y-62104497D01*
X122299975Y-62100000D01*
X122300875Y-62095502D01*
X122448801Y-61740693D01*
X122454865Y-61734497D01*
X122463528Y-61734175D01*
X122860929Y-61875840D01*
G37*
%TD.AperFunction*%
%TD*%
%TA.AperFunction,Conductor*%
%TO.N,+3V3*%
G36*
X127272906Y-103137429D02*
G01*
X127276940Y-103142473D01*
X127414187Y-103471667D01*
X127424123Y-103495497D01*
X127425024Y-103499999D01*
X127424123Y-103504501D01*
X127275728Y-103860434D01*
X127270276Y-103866339D01*
X127262301Y-103867333D01*
X127257989Y-103866339D01*
X127134630Y-103837900D01*
X126653963Y-103727091D01*
X126647436Y-103722975D01*
X126644891Y-103715690D01*
X126644891Y-103481921D01*
X126646521Y-103475964D01*
X126650957Y-103471667D01*
X126805782Y-103386591D01*
X127260510Y-103136721D01*
X127266808Y-103135295D01*
X127272906Y-103137429D01*
G37*
%TD.AperFunction*%
%TD*%
%TA.AperFunction,Conductor*%
%TO.N,+3V3*%
G36*
X107015669Y-104616742D02*
G01*
X108222263Y-105555571D01*
X108226660Y-105563146D01*
X108224567Y-105571650D01*
X107508046Y-106564846D01*
X107502773Y-106568915D01*
X107496133Y-106569447D01*
X107490280Y-106566270D01*
X106492385Y-105567389D01*
X106489330Y-105562030D01*
X106489425Y-105555861D01*
X106489510Y-105555571D01*
X106760051Y-104622717D01*
X106764262Y-104616621D01*
X106771289Y-104614276D01*
X107008484Y-104614276D01*
X107015669Y-104616742D01*
G37*
%TD.AperFunction*%
%TD*%
%TA.AperFunction,Conductor*%
%TO.N,/LED_CTRL*%
G36*
X107570115Y-97284649D02*
G01*
X107576280Y-97290890D01*
X107724123Y-97645498D01*
X107725024Y-97650000D01*
X107724123Y-97654502D01*
X107576280Y-98009109D01*
X107570115Y-98015350D01*
X107561344Y-98015551D01*
X106932563Y-97777859D01*
X106927075Y-97773567D01*
X106925000Y-97766915D01*
X106925000Y-97533085D01*
X106927075Y-97526433D01*
X106932563Y-97522141D01*
X107561345Y-97284448D01*
X107570115Y-97284649D01*
G37*
%TD.AperFunction*%
%TD*%
%TA.AperFunction,Conductor*%
%TO.N,/SDA*%
G36*
X106968217Y-76482008D02*
G01*
X107756618Y-77154468D01*
X107805893Y-77196497D01*
X107808924Y-77200497D01*
X107810000Y-77205399D01*
X107810000Y-77444601D01*
X107808924Y-77449503D01*
X107805893Y-77453503D01*
X106968218Y-78167990D01*
X106960165Y-78170779D01*
X106952357Y-78167366D01*
X106117287Y-77333277D01*
X106114254Y-77328029D01*
X106114254Y-77321969D01*
X106117284Y-77316725D01*
X106952358Y-76482632D01*
X106960165Y-76479220D01*
X106968217Y-76482008D01*
G37*
%TD.AperFunction*%
%TD*%
%TA.AperFunction,Conductor*%
%TO.N,+3V3*%
G36*
X112969497Y-72549875D02*
G01*
X113324109Y-72697719D01*
X113330350Y-72703884D01*
X113330551Y-72712655D01*
X113092859Y-73341437D01*
X113088567Y-73346925D01*
X113081915Y-73349000D01*
X112848085Y-73349000D01*
X112841433Y-73346925D01*
X112837141Y-73341437D01*
X112599448Y-72712655D01*
X112599649Y-72703884D01*
X112605889Y-72697719D01*
X112960502Y-72549875D01*
X112965000Y-72548975D01*
X112969497Y-72549875D01*
G37*
%TD.AperFunction*%
%TD*%
%TA.AperFunction,Conductor*%
%TO.N,/COMP*%
G36*
X119199206Y-75607239D02*
G01*
X119475747Y-76219928D01*
X119476592Y-76226844D01*
X119473356Y-76233014D01*
X119308014Y-76398356D01*
X119301844Y-76401592D01*
X119294928Y-76400747D01*
X118682239Y-76124206D01*
X118676179Y-76117862D01*
X118676232Y-76109090D01*
X118822437Y-75753801D01*
X118824983Y-75749983D01*
X118828801Y-75747437D01*
X119184090Y-75601231D01*
X119192862Y-75601179D01*
X119199206Y-75607239D01*
G37*
%TD.AperFunction*%
%TD*%
%TA.AperFunction,Conductor*%
%TO.N,+3V3*%
G36*
X113339110Y-76531485D02*
G01*
X113606334Y-77150412D01*
X113607084Y-77157247D01*
X113603865Y-77163323D01*
X113438510Y-77328678D01*
X113432258Y-77331929D01*
X113425272Y-77330999D01*
X112822025Y-77048284D01*
X112816086Y-77041933D01*
X112816169Y-77033241D01*
X112962437Y-76677801D01*
X112964983Y-76673983D01*
X112968801Y-76671437D01*
X113323918Y-76525302D01*
X113332777Y-76525286D01*
X113339110Y-76531485D01*
G37*
%TD.AperFunction*%
%TD*%
%TA.AperFunction,Conductor*%
%TO.N,/SCL*%
G36*
X107770115Y-79484649D02*
G01*
X107776280Y-79490890D01*
X107924123Y-79845498D01*
X107925024Y-79850000D01*
X107924123Y-79854502D01*
X107776280Y-80209109D01*
X107770115Y-80215350D01*
X107761344Y-80215551D01*
X107132563Y-79977859D01*
X107127075Y-79973567D01*
X107125000Y-79966915D01*
X107125000Y-79733085D01*
X107127075Y-79726433D01*
X107132563Y-79722141D01*
X107761345Y-79484448D01*
X107770115Y-79484649D01*
G37*
%TD.AperFunction*%
%TD*%
%TA.AperFunction,Conductor*%
%TO.N,/STATUS*%
G36*
X123047642Y-99342633D02*
G01*
X123882712Y-100176722D01*
X123885745Y-100181970D01*
X123885745Y-100188030D01*
X123882712Y-100193278D01*
X123047642Y-101027366D01*
X123039834Y-101030779D01*
X123031781Y-101027990D01*
X123031049Y-101027366D01*
X122194107Y-100313503D01*
X122191076Y-100309503D01*
X122190000Y-100304601D01*
X122190000Y-100065399D01*
X122191076Y-100060497D01*
X122194107Y-100056497D01*
X122212317Y-100040964D01*
X123031783Y-99342008D01*
X123039834Y-99339220D01*
X123047642Y-99342633D01*
G37*
%TD.AperFunction*%
%TD*%
%TA.AperFunction,Conductor*%
%TO.N,+3V3*%
G36*
X113088567Y-75876075D02*
G01*
X113092859Y-75881563D01*
X113330551Y-76510344D01*
X113330350Y-76519115D01*
X113324109Y-76525280D01*
X112969502Y-76673123D01*
X112965000Y-76674024D01*
X112960498Y-76673123D01*
X112605890Y-76525280D01*
X112599649Y-76519115D01*
X112599448Y-76510345D01*
X112837141Y-75881562D01*
X112841433Y-75876075D01*
X112848085Y-75874000D01*
X113081915Y-75874000D01*
X113088567Y-75876075D01*
G37*
%TD.AperFunction*%
%TD*%
%TA.AperFunction,Conductor*%
%TO.N,+3V3*%
G36*
X121030071Y-72774252D02*
G01*
X121642760Y-73050793D01*
X121648820Y-73057137D01*
X121648767Y-73065909D01*
X121502563Y-73421195D01*
X121500016Y-73425016D01*
X121496195Y-73427563D01*
X121140909Y-73573767D01*
X121132137Y-73573820D01*
X121125793Y-73567760D01*
X121061676Y-73425707D01*
X120895320Y-73057137D01*
X120849252Y-72955071D01*
X120848407Y-72948155D01*
X120851641Y-72941987D01*
X121016987Y-72776641D01*
X121023155Y-72773407D01*
X121030071Y-72774252D01*
G37*
%TD.AperFunction*%
%TD*%
%TA.AperFunction,Conductor*%
%TO.N,+3V3*%
G36*
X120723567Y-87827075D02*
G01*
X120727859Y-87832563D01*
X120965551Y-88461344D01*
X120965350Y-88470115D01*
X120959109Y-88476280D01*
X120604501Y-88624123D01*
X120599999Y-88625024D01*
X120595498Y-88624123D01*
X120434555Y-88557023D01*
X120240890Y-88476280D01*
X120234649Y-88470115D01*
X120234448Y-88461345D01*
X120472141Y-87832562D01*
X120476433Y-87827075D01*
X120483085Y-87825000D01*
X120716915Y-87825000D01*
X120723567Y-87827075D01*
G37*
%TD.AperFunction*%
%TD*%
%TA.AperFunction,Conductor*%
%TO.N,+3V3*%
G36*
X116130063Y-103167636D02*
G01*
X116656649Y-103471622D01*
X116660932Y-103475905D01*
X116662500Y-103481755D01*
X116662500Y-103718245D01*
X116660932Y-103724095D01*
X116656649Y-103728377D01*
X116497035Y-103820518D01*
X116130064Y-104032362D01*
X116121924Y-104033702D01*
X116114922Y-104029338D01*
X115791938Y-103607109D01*
X115789531Y-103600000D01*
X115791938Y-103592891D01*
X115881426Y-103475905D01*
X116114922Y-103170660D01*
X116121924Y-103166297D01*
X116130063Y-103167636D01*
G37*
%TD.AperFunction*%
%TD*%
%TA.AperFunction,Conductor*%
%TO.N,/PHOTOT*%
G36*
X121854497Y-83700875D02*
G01*
X122209109Y-83848719D01*
X122215350Y-83854884D01*
X122215551Y-83863655D01*
X121977859Y-84492437D01*
X121973567Y-84497925D01*
X121966915Y-84500000D01*
X121733085Y-84500000D01*
X121726433Y-84497925D01*
X121722141Y-84492437D01*
X121484448Y-83863655D01*
X121484649Y-83854884D01*
X121490889Y-83848719D01*
X121845502Y-83700875D01*
X121850000Y-83699975D01*
X121854497Y-83700875D01*
G37*
%TD.AperFunction*%
%TD*%
%TA.AperFunction,Conductor*%
%TO.N,/STATUS*%
G36*
X120374206Y-99257239D02*
G01*
X120650747Y-99869928D01*
X120651592Y-99876844D01*
X120648356Y-99883014D01*
X120483014Y-100048356D01*
X120476844Y-100051592D01*
X120469928Y-100050747D01*
X119857239Y-99774206D01*
X119851179Y-99767862D01*
X119851232Y-99759090D01*
X119997437Y-99403801D01*
X119999983Y-99399983D01*
X120003801Y-99397437D01*
X120359090Y-99251231D01*
X120367862Y-99251179D01*
X120374206Y-99257239D01*
G37*
%TD.AperFunction*%
%TD*%
%TA.AperFunction,Conductor*%
%TO.N,+3V3*%
G36*
X120600333Y-88625193D02*
G01*
X120604146Y-88627749D01*
X120875126Y-88900087D01*
X120878526Y-88907976D01*
X120875622Y-88916061D01*
X120449138Y-89401498D01*
X120443860Y-89404937D01*
X120437564Y-89405140D01*
X120432075Y-89402049D01*
X120267054Y-89237028D01*
X120263691Y-89229980D01*
X120228960Y-88900087D01*
X120201358Y-88637900D01*
X120202475Y-88631555D01*
X120206782Y-88626762D01*
X120212972Y-88624977D01*
X120595834Y-88624301D01*
X120600333Y-88625193D01*
G37*
%TD.AperFunction*%
%TD*%
%TA.AperFunction,Conductor*%
%TO.N,Net-(D3-K)*%
G36*
X122985077Y-103170661D02*
G01*
X123308061Y-103592891D01*
X123310468Y-103600000D01*
X123308061Y-103607109D01*
X122985077Y-104029338D01*
X122978075Y-104033702D01*
X122969935Y-104032362D01*
X122758177Y-103910119D01*
X122443350Y-103728377D01*
X122439068Y-103724095D01*
X122437500Y-103718245D01*
X122437500Y-103481755D01*
X122439068Y-103475905D01*
X122443350Y-103471622D01*
X122969936Y-103167636D01*
X122978075Y-103166297D01*
X122985077Y-103170661D01*
G37*
%TD.AperFunction*%
%TD*%
%TA.AperFunction,Conductor*%
%TO.N,Net-(D2-K)*%
G36*
X113919137Y-103476867D02*
G01*
X113923599Y-103481167D01*
X113925239Y-103487141D01*
X113925239Y-103720668D01*
X113922418Y-103728287D01*
X113540554Y-104173276D01*
X113535280Y-104176788D01*
X113528948Y-104177035D01*
X113523416Y-104173945D01*
X113251955Y-103903441D01*
X113249403Y-103899626D01*
X113248514Y-103895124D01*
X113248931Y-103728287D01*
X113249473Y-103511244D01*
X113252758Y-103503147D01*
X113260739Y-103499584D01*
X113690858Y-103483671D01*
X113913106Y-103475449D01*
X113919137Y-103476867D01*
G37*
%TD.AperFunction*%
%TD*%
%TA.AperFunction,Conductor*%
%TO.N,/UART_TX*%
G36*
X108548567Y-54302075D02*
G01*
X108552859Y-54307563D01*
X108790551Y-54936344D01*
X108790350Y-54945115D01*
X108784109Y-54951280D01*
X108429501Y-55099123D01*
X108424999Y-55100024D01*
X108420498Y-55099123D01*
X108259555Y-55032023D01*
X108065890Y-54951280D01*
X108059649Y-54945115D01*
X108059448Y-54936345D01*
X108297141Y-54307562D01*
X108301433Y-54302075D01*
X108308085Y-54300000D01*
X108541915Y-54300000D01*
X108548567Y-54302075D01*
G37*
%TD.AperFunction*%
%TD*%
%TA.AperFunction,Conductor*%
%TO.N,/COMP*%
G36*
X123045591Y-79020591D02*
G01*
X123880865Y-79855865D01*
X123884049Y-79861765D01*
X123883471Y-79868445D01*
X123879320Y-79873710D01*
X123049650Y-80456884D01*
X123043931Y-80458968D01*
X123037938Y-80457898D01*
X123033296Y-80453962D01*
X122326823Y-79431082D01*
X122324799Y-79423378D01*
X122328177Y-79416163D01*
X122496462Y-79247878D01*
X122500136Y-79245395D01*
X123032730Y-79018102D01*
X123039539Y-79017377D01*
X123045591Y-79020591D01*
G37*
%TD.AperFunction*%
%TD*%
%TA.AperFunction,Conductor*%
%TO.N,+3V3*%
G36*
X116033014Y-93476643D02*
G01*
X116198356Y-93641985D01*
X116201592Y-93648155D01*
X116200747Y-93655071D01*
X115924206Y-94267760D01*
X115917862Y-94273820D01*
X115909090Y-94273767D01*
X115553804Y-94127563D01*
X115549983Y-94125016D01*
X115547436Y-94121195D01*
X115401232Y-93765909D01*
X115401179Y-93757137D01*
X115407237Y-93750794D01*
X116019928Y-93474251D01*
X116026844Y-93473407D01*
X116033014Y-93476643D01*
G37*
%TD.AperFunction*%
%TD*%
%TA.AperFunction,Conductor*%
%TO.N,/UART_RX*%
G36*
X103466206Y-53616990D02*
G01*
X106076253Y-54453859D01*
X106082133Y-54458105D01*
X106084381Y-54465000D01*
X106082133Y-54471895D01*
X106076253Y-54476141D01*
X103466206Y-55313009D01*
X103460333Y-55313339D01*
X103455041Y-55310770D01*
X102614107Y-54593503D01*
X102611076Y-54589503D01*
X102610000Y-54584601D01*
X102610000Y-54345399D01*
X102611076Y-54340497D01*
X102614107Y-54336497D01*
X102646450Y-54308909D01*
X103455043Y-53619228D01*
X103460333Y-53616660D01*
X103466206Y-53616990D01*
G37*
%TD.AperFunction*%
%TD*%
%TA.AperFunction,Conductor*%
%TO.N,/SWCLK*%
G36*
X112867449Y-98345135D02*
G01*
X113035571Y-98513257D01*
X113037918Y-98516619D01*
X113306573Y-99097589D01*
X113307472Y-99104550D01*
X113304226Y-99110773D01*
X112468963Y-99946036D01*
X112463129Y-99949206D01*
X112456509Y-99948691D01*
X112451236Y-99944656D01*
X111845842Y-99114320D01*
X111843724Y-99105698D01*
X111848267Y-99098074D01*
X112852151Y-98344052D01*
X112860001Y-98341737D01*
X112867449Y-98345135D01*
G37*
%TD.AperFunction*%
%TD*%
%TA.AperFunction,Conductor*%
%TO.N,Net-(D1-K)*%
G36*
X104985077Y-103170661D02*
G01*
X105308061Y-103592891D01*
X105310468Y-103600000D01*
X105308061Y-103607109D01*
X104985077Y-104029338D01*
X104978075Y-104033702D01*
X104969935Y-104032362D01*
X104758177Y-103910119D01*
X104443350Y-103728377D01*
X104439068Y-103724095D01*
X104437500Y-103718245D01*
X104437500Y-103481755D01*
X104439068Y-103475905D01*
X104443350Y-103471622D01*
X104969936Y-103167636D01*
X104978075Y-103166297D01*
X104985077Y-103170661D01*
G37*
%TD.AperFunction*%
%TD*%
%TA.AperFunction,Conductor*%
%TO.N,+3V3*%
G36*
X113482665Y-72317877D02*
G01*
X113757254Y-72422135D01*
X113762731Y-72426428D01*
X113764801Y-72433073D01*
X113764801Y-72666904D01*
X113762722Y-72673562D01*
X113757224Y-72677853D01*
X113128646Y-72914569D01*
X113119883Y-72914360D01*
X113113724Y-72908122D01*
X112965875Y-72553497D01*
X112964975Y-72549000D01*
X112965875Y-72544502D01*
X113113713Y-72189904D01*
X113119886Y-72183660D01*
X113128663Y-72183469D01*
X113482665Y-72317877D01*
G37*
%TD.AperFunction*%
%TD*%
%TA.AperFunction,Conductor*%
%TO.N,/PHOTO*%
G36*
X123049240Y-73944240D02*
G01*
X123882401Y-74777401D01*
X123885433Y-74782660D01*
X123885421Y-74788732D01*
X123882369Y-74793979D01*
X123048209Y-75621669D01*
X123039991Y-75625064D01*
X123031759Y-75621701D01*
X122270013Y-74871660D01*
X122266936Y-74866409D01*
X122266913Y-74860324D01*
X122269947Y-74855052D01*
X122438388Y-74686612D01*
X123031835Y-73945200D01*
X123037116Y-73941465D01*
X123043577Y-73941108D01*
X123049240Y-73944240D01*
G37*
%TD.AperFunction*%
%TD*%
%TA.AperFunction,Conductor*%
%TO.N,/UART_TX*%
G36*
X106968217Y-51082008D02*
G01*
X107756618Y-51754468D01*
X107805893Y-51796497D01*
X107808924Y-51800497D01*
X107810000Y-51805399D01*
X107810000Y-52044601D01*
X107808924Y-52049503D01*
X107805893Y-52053503D01*
X106968218Y-52767990D01*
X106960165Y-52770779D01*
X106952357Y-52767366D01*
X106237654Y-52053503D01*
X106117285Y-51933276D01*
X106114254Y-51928030D01*
X106114254Y-51921970D01*
X106117285Y-51916723D01*
X106952358Y-51082632D01*
X106960165Y-51079220D01*
X106968217Y-51082008D01*
G37*
%TD.AperFunction*%
%TD*%
%TA.AperFunction,Conductor*%
%TO.N,Net-(D1-K)*%
G36*
X103431773Y-103472470D02*
G01*
X103437758Y-103476699D01*
X103440054Y-103483660D01*
X103440054Y-103717519D01*
X103438212Y-103723821D01*
X103433265Y-103728139D01*
X102814105Y-104014450D01*
X102807989Y-104015468D01*
X102802212Y-104013218D01*
X102798395Y-104008332D01*
X102650875Y-103654498D01*
X102649975Y-103649999D01*
X102650874Y-103645503D01*
X102798994Y-103290230D01*
X102804812Y-103284147D01*
X102813210Y-103283544D01*
X103431773Y-103472470D01*
G37*
%TD.AperFunction*%
%TD*%
%TA.AperFunction,Conductor*%
%TO.N,/SWD*%
G36*
X118238984Y-98421903D02*
G01*
X118405942Y-98588861D01*
X118408506Y-98592723D01*
X118409368Y-98597278D01*
X118390182Y-100153901D01*
X118388049Y-100160494D01*
X118382560Y-100164724D01*
X118375641Y-100165107D01*
X117544009Y-99956887D01*
X117539871Y-99954927D01*
X117536802Y-99951530D01*
X117038077Y-99115215D01*
X117036426Y-99109323D01*
X117037975Y-99103404D01*
X117042297Y-99099078D01*
X118224887Y-98420029D01*
X118232252Y-98418578D01*
X118238984Y-98421903D01*
G37*
%TD.AperFunction*%
%TD*%
%TA.AperFunction,Conductor*%
%TO.N,/LED_CTRL*%
G36*
X106968250Y-96805473D02*
G01*
X107721362Y-97521541D01*
X107724052Y-97525407D01*
X107725000Y-97530020D01*
X107725000Y-97769944D01*
X107724040Y-97774585D01*
X107721319Y-97778464D01*
X106968260Y-98487225D01*
X106960067Y-98490404D01*
X106951973Y-98486983D01*
X106239153Y-97775000D01*
X106117300Y-97653290D01*
X106114266Y-97648037D01*
X106114270Y-97641970D01*
X106117311Y-97636724D01*
X106951934Y-96805660D01*
X106960053Y-96802253D01*
X106968250Y-96805473D01*
G37*
%TD.AperFunction*%
%TD*%
%TA.AperFunction,Conductor*%
%TO.N,Net-(D3-K)*%
G36*
X119605696Y-103240890D02*
G01*
X120217437Y-103472141D01*
X120222925Y-103476433D01*
X120225000Y-103483085D01*
X120225000Y-103716915D01*
X120222925Y-103723567D01*
X120217437Y-103727859D01*
X119588655Y-103965551D01*
X119579884Y-103965350D01*
X119573719Y-103959109D01*
X119425875Y-103604498D01*
X119424975Y-103599999D01*
X119425874Y-103595503D01*
X119573719Y-103240889D01*
X119579884Y-103234649D01*
X119588654Y-103234448D01*
X119605696Y-103240890D01*
G37*
%TD.AperFunction*%
%TD*%
%TA.AperFunction,Conductor*%
%TO.N,+3V3*%
G36*
X115190909Y-93976232D02*
G01*
X115333763Y-94035018D01*
X115546196Y-94122436D01*
X115550016Y-94124983D01*
X115552563Y-94128804D01*
X115698767Y-94484090D01*
X115698820Y-94492862D01*
X115692760Y-94499206D01*
X115080071Y-94775747D01*
X115073155Y-94776592D01*
X115066985Y-94773356D01*
X114901643Y-94608014D01*
X114898407Y-94601844D01*
X114899252Y-94594928D01*
X114945320Y-94492862D01*
X115175794Y-93982237D01*
X115182137Y-93976179D01*
X115190909Y-93976232D01*
G37*
%TD.AperFunction*%
%TD*%
%TA.AperFunction,Conductor*%
%TO.N,/SCL*%
G36*
X106968204Y-79021853D02*
G01*
X107805801Y-79721493D01*
X107808898Y-79725517D01*
X107810000Y-79730473D01*
X107810000Y-79969638D01*
X107808936Y-79974513D01*
X107805938Y-79978501D01*
X106968188Y-80700472D01*
X106960146Y-80703302D01*
X106952318Y-80699923D01*
X106117360Y-79873277D01*
X106114300Y-79868027D01*
X106114287Y-79861949D01*
X106117322Y-79856686D01*
X106952436Y-79022554D01*
X106960183Y-79019145D01*
X106968204Y-79021853D01*
G37*
%TD.AperFunction*%
%TD*%
%TA.AperFunction,Conductor*%
%TO.N,GND*%
G36*
X129750000Y-50213763D02*
G01*
X129786237Y-50250000D01*
X129799500Y-50299500D01*
X129799500Y-114700500D01*
X129786237Y-114750000D01*
X129750000Y-114786237D01*
X129700500Y-114799500D01*
X100299500Y-114799500D01*
X100250000Y-114786237D01*
X100213763Y-114750000D01*
X100200500Y-114700500D01*
X100200500Y-106575000D01*
X102782367Y-106575000D01*
X102782744Y-106579309D01*
X102800489Y-106782139D01*
X102800490Y-106782146D01*
X102800866Y-106786440D01*
X102801980Y-106790601D01*
X102801982Y-106790607D01*
X102854680Y-106987282D01*
X102854683Y-106987290D01*
X102855799Y-106991455D01*
X102857624Y-106995369D01*
X102857626Y-106995374D01*
X102943668Y-107179892D01*
X102943671Y-107179898D01*
X102945499Y-107183817D01*
X102947979Y-107187359D01*
X102947981Y-107187362D01*
X103064759Y-107354138D01*
X103064762Y-107354141D01*
X103067239Y-107357679D01*
X103217321Y-107507761D01*
X103391183Y-107629501D01*
X103583545Y-107719201D01*
X103788560Y-107774134D01*
X104000000Y-107792633D01*
X104211440Y-107774134D01*
X104416455Y-107719201D01*
X104608817Y-107629501D01*
X104782679Y-107507761D01*
X104932761Y-107357679D01*
X105054501Y-107183817D01*
X105144201Y-106991455D01*
X105199134Y-106786440D01*
X105217633Y-106575000D01*
X105199134Y-106363560D01*
X105144201Y-106158545D01*
X105054501Y-105966184D01*
X104932761Y-105792321D01*
X104782679Y-105642239D01*
X104779141Y-105639762D01*
X104779138Y-105639759D01*
X104612362Y-105522981D01*
X104612359Y-105522979D01*
X104608817Y-105520499D01*
X104604898Y-105518671D01*
X104604892Y-105518668D01*
X104420374Y-105432626D01*
X104420369Y-105432624D01*
X104416455Y-105430799D01*
X104412290Y-105429683D01*
X104412282Y-105429680D01*
X104215607Y-105376982D01*
X104215601Y-105376980D01*
X104211440Y-105375866D01*
X104207146Y-105375490D01*
X104207139Y-105375489D01*
X104004309Y-105357744D01*
X104000000Y-105357367D01*
X103995691Y-105357744D01*
X103792860Y-105375489D01*
X103792851Y-105375490D01*
X103788560Y-105375866D01*
X103784400Y-105376980D01*
X103784392Y-105376982D01*
X103587717Y-105429680D01*
X103587705Y-105429684D01*
X103583545Y-105430799D01*
X103579634Y-105432622D01*
X103579625Y-105432626D01*
X103395108Y-105518668D01*
X103395097Y-105518674D01*
X103391184Y-105520499D01*
X103387645Y-105522976D01*
X103387638Y-105522981D01*
X103220861Y-105639759D01*
X103220851Y-105639766D01*
X103217321Y-105642239D01*
X103214273Y-105645286D01*
X103214267Y-105645292D01*
X103070292Y-105789267D01*
X103070286Y-105789273D01*
X103067239Y-105792321D01*
X103064766Y-105795851D01*
X103064759Y-105795861D01*
X102947981Y-105962638D01*
X102947976Y-105962645D01*
X102945499Y-105966184D01*
X102943674Y-105970097D01*
X102943668Y-105970108D01*
X102857626Y-106154625D01*
X102857622Y-106154634D01*
X102855799Y-106158545D01*
X102854684Y-106162705D01*
X102854680Y-106162717D01*
X102801982Y-106359392D01*
X102801980Y-106359400D01*
X102800866Y-106363560D01*
X102800490Y-106367851D01*
X102800489Y-106367860D01*
X102782816Y-106569858D01*
X102782367Y-106575000D01*
X100200500Y-106575000D01*
X100200500Y-103650000D01*
X102044318Y-103650000D01*
X102045165Y-103656434D01*
X102064108Y-103800326D01*
X102064109Y-103800331D01*
X102064956Y-103806762D01*
X102067439Y-103812758D01*
X102067440Y-103812759D01*
X102117925Y-103934642D01*
X102125464Y-103952841D01*
X102129413Y-103957988D01*
X102129414Y-103957989D01*
X102213329Y-104067350D01*
X102221718Y-104078282D01*
X102347159Y-104174536D01*
X102493238Y-104235044D01*
X102650000Y-104255682D01*
X102806762Y-104235044D01*
X102851742Y-104216411D01*
X102860429Y-104213281D01*
X102900357Y-104200973D01*
X103476309Y-103934641D01*
X103517861Y-103925500D01*
X104347258Y-103925500D01*
X104396752Y-103938760D01*
X104832636Y-104190385D01*
X104839309Y-104194718D01*
X104844249Y-104199658D01*
X104962580Y-104259951D01*
X105060754Y-104275500D01*
X105560353Y-104275500D01*
X105564246Y-104275500D01*
X105662420Y-104259951D01*
X105780751Y-104199658D01*
X105874658Y-104105751D01*
X105934951Y-103987420D01*
X105950500Y-103889246D01*
X106249500Y-103889246D01*
X106250108Y-103893090D01*
X106250109Y-103893092D01*
X106263829Y-103979722D01*
X106263830Y-103979725D01*
X106265049Y-103987420D01*
X106276909Y-104010698D01*
X106276913Y-104010704D01*
X106283097Y-104025805D01*
X106288457Y-104042762D01*
X106290394Y-104046511D01*
X106290398Y-104046520D01*
X106543070Y-104535497D01*
X106553649Y-104571324D01*
X106550200Y-104608520D01*
X106292977Y-105495450D01*
X106292975Y-105495458D01*
X106292058Y-105498621D01*
X106291568Y-105501883D01*
X106291568Y-105501887D01*
X106285440Y-105542752D01*
X106283949Y-105552697D01*
X106283854Y-105558866D01*
X106284241Y-105562136D01*
X106284242Y-105562142D01*
X106286312Y-105579601D01*
X106287000Y-105591255D01*
X106287000Y-107607248D01*
X106287946Y-107612006D01*
X106287947Y-107612011D01*
X106291426Y-107629501D01*
X106298633Y-107665731D01*
X106304050Y-107673838D01*
X106304051Y-107673840D01*
X106334361Y-107719201D01*
X106342948Y-107732052D01*
X106409269Y-107776367D01*
X106467752Y-107788000D01*
X108527390Y-107788000D01*
X108532248Y-107788000D01*
X108590731Y-107776367D01*
X108657052Y-107732052D01*
X108701367Y-107665731D01*
X108713000Y-107607248D01*
X108713000Y-107170291D01*
X108723129Y-107126668D01*
X108888087Y-106790607D01*
X108993919Y-106575000D01*
X121282367Y-106575000D01*
X121282744Y-106579309D01*
X121300489Y-106782139D01*
X121300490Y-106782146D01*
X121300866Y-106786440D01*
X121301980Y-106790601D01*
X121301982Y-106790607D01*
X121354680Y-106987282D01*
X121354683Y-106987290D01*
X121355799Y-106991455D01*
X121357624Y-106995369D01*
X121357626Y-106995374D01*
X121443668Y-107179892D01*
X121443671Y-107179898D01*
X121445499Y-107183817D01*
X121447979Y-107187359D01*
X121447981Y-107187362D01*
X121564759Y-107354138D01*
X121564762Y-107354141D01*
X121567239Y-107357679D01*
X121717321Y-107507761D01*
X121891183Y-107629501D01*
X122083545Y-107719201D01*
X122288560Y-107774134D01*
X122500000Y-107792633D01*
X122711440Y-107774134D01*
X122916455Y-107719201D01*
X123108817Y-107629501D01*
X123140597Y-107607248D01*
X124787000Y-107607248D01*
X124787946Y-107612006D01*
X124787947Y-107612011D01*
X124791426Y-107629501D01*
X124798633Y-107665731D01*
X124804050Y-107673838D01*
X124804051Y-107673840D01*
X124834361Y-107719201D01*
X124842948Y-107732052D01*
X124909269Y-107776367D01*
X124967752Y-107788000D01*
X127027390Y-107788000D01*
X127032248Y-107788000D01*
X127090731Y-107776367D01*
X127157052Y-107732052D01*
X127201367Y-107665731D01*
X127213000Y-107607248D01*
X127213000Y-105542752D01*
X127201367Y-105484269D01*
X127157052Y-105417948D01*
X127135889Y-105403807D01*
X127098840Y-105379051D01*
X127098838Y-105379050D01*
X127090731Y-105373633D01*
X127081167Y-105371730D01*
X127081166Y-105371730D01*
X127037011Y-105362947D01*
X127037006Y-105362946D01*
X127032248Y-105362000D01*
X124967752Y-105362000D01*
X124962994Y-105362946D01*
X124962988Y-105362947D01*
X124918833Y-105371730D01*
X124918830Y-105371731D01*
X124909269Y-105373633D01*
X124901163Y-105379049D01*
X124901159Y-105379051D01*
X124851058Y-105412528D01*
X124851055Y-105412530D01*
X124842948Y-105417948D01*
X124837530Y-105426055D01*
X124837528Y-105426058D01*
X124804051Y-105476159D01*
X124804049Y-105476163D01*
X124798633Y-105484269D01*
X124796731Y-105493830D01*
X124796730Y-105493833D01*
X124787947Y-105537988D01*
X124787946Y-105537994D01*
X124787000Y-105542752D01*
X124787000Y-107607248D01*
X123140597Y-107607248D01*
X123282679Y-107507761D01*
X123432761Y-107357679D01*
X123554501Y-107183817D01*
X123644201Y-106991455D01*
X123699134Y-106786440D01*
X123717633Y-106575000D01*
X123699134Y-106363560D01*
X123644201Y-106158545D01*
X123554501Y-105966184D01*
X123432761Y-105792321D01*
X123282679Y-105642239D01*
X123279141Y-105639762D01*
X123279138Y-105639759D01*
X123112362Y-105522981D01*
X123112359Y-105522979D01*
X123108817Y-105520499D01*
X123104898Y-105518671D01*
X123104892Y-105518668D01*
X122920374Y-105432626D01*
X122920369Y-105432624D01*
X122916455Y-105430799D01*
X122912290Y-105429683D01*
X122912282Y-105429680D01*
X122715607Y-105376982D01*
X122715601Y-105376980D01*
X122711440Y-105375866D01*
X122707146Y-105375490D01*
X122707139Y-105375489D01*
X122504309Y-105357744D01*
X122500000Y-105357367D01*
X122495691Y-105357744D01*
X122292860Y-105375489D01*
X122292851Y-105375490D01*
X122288560Y-105375866D01*
X122284400Y-105376980D01*
X122284392Y-105376982D01*
X122087717Y-105429680D01*
X122087705Y-105429684D01*
X122083545Y-105430799D01*
X122079634Y-105432622D01*
X122079625Y-105432626D01*
X121895108Y-105518668D01*
X121895097Y-105518674D01*
X121891184Y-105520499D01*
X121887645Y-105522976D01*
X121887638Y-105522981D01*
X121720861Y-105639759D01*
X121720851Y-105639766D01*
X121717321Y-105642239D01*
X121714273Y-105645286D01*
X121714267Y-105645292D01*
X121570292Y-105789267D01*
X121570286Y-105789273D01*
X121567239Y-105792321D01*
X121564766Y-105795851D01*
X121564759Y-105795861D01*
X121447981Y-105962638D01*
X121447976Y-105962645D01*
X121445499Y-105966184D01*
X121443674Y-105970097D01*
X121443668Y-105970108D01*
X121357626Y-106154625D01*
X121357622Y-106154634D01*
X121355799Y-106158545D01*
X121354684Y-106162705D01*
X121354680Y-106162717D01*
X121301982Y-106359392D01*
X121301980Y-106359400D01*
X121300866Y-106363560D01*
X121300490Y-106367851D01*
X121300489Y-106367860D01*
X121282816Y-106569858D01*
X121282367Y-106575000D01*
X108993919Y-106575000D01*
X109479877Y-105584984D01*
X109482988Y-105579148D01*
X109497637Y-105553775D01*
X109502254Y-105546529D01*
X109524554Y-105514684D01*
X109526796Y-105506312D01*
X109529261Y-105501027D01*
X109531254Y-105495549D01*
X109535588Y-105488045D01*
X109542341Y-105449743D01*
X109544198Y-105441366D01*
X109554263Y-105403807D01*
X109550877Y-105365103D01*
X109550500Y-105356475D01*
X109550500Y-103900000D01*
X112643820Y-103900000D01*
X112644667Y-103906434D01*
X112663610Y-104050326D01*
X112663611Y-104050331D01*
X112664458Y-104056762D01*
X112666941Y-104062758D01*
X112666942Y-104062759D01*
X112722146Y-104196035D01*
X112724966Y-104202841D01*
X112728915Y-104207988D01*
X112728916Y-104207989D01*
X112808738Y-104312016D01*
X112821220Y-104328282D01*
X112946661Y-104424536D01*
X113092740Y-104485044D01*
X113249502Y-104505682D01*
X113406264Y-104485044D01*
X113552343Y-104424536D01*
X113677784Y-104328282D01*
X113683010Y-104321470D01*
X113691828Y-104312014D01*
X113691581Y-104311770D01*
X113693958Y-104309355D01*
X113696504Y-104307103D01*
X113724480Y-104274501D01*
X113759482Y-104248470D01*
X113802278Y-104240010D01*
X113844551Y-104250764D01*
X113862580Y-104259951D01*
X113960754Y-104275500D01*
X114460353Y-104275500D01*
X114464246Y-104275500D01*
X114562420Y-104259951D01*
X114680751Y-104199658D01*
X114774658Y-104105751D01*
X114834951Y-103987420D01*
X114850500Y-103889246D01*
X114850500Y-103310754D01*
X114834951Y-103212580D01*
X114774658Y-103094249D01*
X114680751Y-103000342D01*
X114664790Y-102992209D01*
X114626148Y-102957047D01*
X114610785Y-102907110D01*
X114622982Y-102856306D01*
X114659341Y-102818787D01*
X114709736Y-102805000D01*
X114886967Y-102805000D01*
X114897245Y-102802245D01*
X114900000Y-102791967D01*
X115100000Y-102791967D01*
X115102754Y-102802245D01*
X115113033Y-102805000D01*
X115290264Y-102805000D01*
X115340659Y-102818787D01*
X115377018Y-102856306D01*
X115389215Y-102907110D01*
X115373852Y-102957047D01*
X115335209Y-102992210D01*
X115326188Y-102996806D01*
X115326186Y-102996807D01*
X115319249Y-103000342D01*
X115313745Y-103005845D01*
X115313742Y-103005848D01*
X115230848Y-103088742D01*
X115230845Y-103088745D01*
X115225342Y-103094249D01*
X115221807Y-103101186D01*
X115221806Y-103101188D01*
X115168585Y-103205639D01*
X115168583Y-103205642D01*
X115165049Y-103212580D01*
X115163830Y-103220271D01*
X115163830Y-103220274D01*
X115150109Y-103306907D01*
X115149500Y-103310754D01*
X115149500Y-103889246D01*
X115150108Y-103893090D01*
X115150109Y-103893092D01*
X115160387Y-103957989D01*
X115165049Y-103987420D01*
X115168584Y-103994359D01*
X115168585Y-103994360D01*
X115183243Y-104023128D01*
X115225342Y-104105751D01*
X115319249Y-104199658D01*
X115437580Y-104259951D01*
X115535754Y-104275500D01*
X116035353Y-104275500D01*
X116039246Y-104275500D01*
X116137420Y-104259951D01*
X116255751Y-104199658D01*
X116260690Y-104194717D01*
X116267355Y-104190389D01*
X116437288Y-104092291D01*
X116480664Y-104079220D01*
X116525323Y-104086841D01*
X116561908Y-104113558D01*
X116727997Y-104307103D01*
X116730540Y-104309354D01*
X116732921Y-104311772D01*
X116732672Y-104312016D01*
X116741489Y-104321468D01*
X116746718Y-104328282D01*
X116872159Y-104424536D01*
X117018238Y-104485044D01*
X117175000Y-104505682D01*
X117331762Y-104485044D01*
X117477841Y-104424536D01*
X117603282Y-104328282D01*
X117699536Y-104202841D01*
X117760044Y-104056762D01*
X117780682Y-103900000D01*
X117760044Y-103743238D01*
X117700713Y-103600000D01*
X118819318Y-103600000D01*
X118820165Y-103606434D01*
X118839108Y-103750326D01*
X118839109Y-103750331D01*
X118839956Y-103756762D01*
X118842439Y-103762758D01*
X118842440Y-103762759D01*
X118896425Y-103893092D01*
X118900464Y-103902841D01*
X118904413Y-103907988D01*
X118904414Y-103907989D01*
X118965363Y-103987420D01*
X118996718Y-104028282D01*
X119122159Y-104124536D01*
X119268238Y-104185044D01*
X119425000Y-104205682D01*
X119581762Y-104185044D01*
X119627699Y-104166015D01*
X119648910Y-104159895D01*
X119661320Y-104157775D01*
X120258852Y-103931895D01*
X120293858Y-103925500D01*
X122347258Y-103925500D01*
X122396752Y-103938760D01*
X122832636Y-104190385D01*
X122839309Y-104194718D01*
X122844249Y-104199658D01*
X122962580Y-104259951D01*
X123060754Y-104275500D01*
X123560353Y-104275500D01*
X123564246Y-104275500D01*
X123662420Y-104259951D01*
X123780751Y-104199658D01*
X123874658Y-104105751D01*
X123934951Y-103987420D01*
X123950500Y-103889246D01*
X124249500Y-103889246D01*
X124250108Y-103893090D01*
X124250109Y-103893092D01*
X124260387Y-103957989D01*
X124265049Y-103987420D01*
X124268584Y-103994359D01*
X124268585Y-103994360D01*
X124283243Y-104023128D01*
X124325342Y-104105751D01*
X124419249Y-104199658D01*
X124537580Y-104259951D01*
X124635754Y-104275500D01*
X125135353Y-104275500D01*
X125139246Y-104275500D01*
X125237420Y-104259951D01*
X125355751Y-104199658D01*
X125360690Y-104194717D01*
X125367355Y-104190389D01*
X125803246Y-103938760D01*
X125852741Y-103925500D01*
X126588557Y-103925500D01*
X126610796Y-103928030D01*
X126718421Y-103952841D01*
X127216137Y-104067581D01*
X127218531Y-104067703D01*
X127241413Y-104073932D01*
X127268238Y-104085044D01*
X127425000Y-104105682D01*
X127581762Y-104085044D01*
X127727841Y-104024536D01*
X127853282Y-103928282D01*
X127949536Y-103802841D01*
X128010044Y-103656762D01*
X128030682Y-103500000D01*
X128010044Y-103343238D01*
X127949536Y-103197159D01*
X127853282Y-103071718D01*
X127843364Y-103064108D01*
X127732989Y-102979414D01*
X127732988Y-102979413D01*
X127727841Y-102975464D01*
X127721847Y-102972981D01*
X127721845Y-102972980D01*
X127587759Y-102917440D01*
X127587758Y-102917439D01*
X127581762Y-102914956D01*
X127575331Y-102914109D01*
X127575326Y-102914108D01*
X127431434Y-102895165D01*
X127425000Y-102894318D01*
X127418566Y-102895165D01*
X127274666Y-102914109D01*
X127274660Y-102914110D01*
X127268238Y-102914956D01*
X127262252Y-102917435D01*
X127262246Y-102917437D01*
X127223311Y-102933564D01*
X127216584Y-102935964D01*
X127215129Y-102936294D01*
X127211899Y-102937518D01*
X127211893Y-102937521D01*
X127164780Y-102955393D01*
X127164777Y-102955394D01*
X127161546Y-102956620D01*
X127158521Y-102958281D01*
X127158510Y-102958287D01*
X127147604Y-102964279D01*
X127137831Y-102968971D01*
X127128151Y-102972981D01*
X127128147Y-102972983D01*
X127122159Y-102975464D01*
X127117014Y-102979410D01*
X127117011Y-102979413D01*
X127115282Y-102980740D01*
X127102704Y-102988952D01*
X126959281Y-103067763D01*
X126605317Y-103262264D01*
X126557643Y-103274500D01*
X125852742Y-103274500D01*
X125803247Y-103261239D01*
X125702628Y-103203154D01*
X125504438Y-103088743D01*
X125367359Y-103009610D01*
X125360686Y-103005277D01*
X125355751Y-103000342D01*
X125348811Y-102996806D01*
X125348810Y-102996805D01*
X125244360Y-102943585D01*
X125244359Y-102943584D01*
X125237420Y-102940049D01*
X125229726Y-102938830D01*
X125229725Y-102938830D01*
X125143092Y-102925109D01*
X125143090Y-102925108D01*
X125139246Y-102924500D01*
X124635754Y-102924500D01*
X124631910Y-102925108D01*
X124631907Y-102925109D01*
X124545274Y-102938830D01*
X124545271Y-102938830D01*
X124537580Y-102940049D01*
X124530642Y-102943583D01*
X124530639Y-102943585D01*
X124426188Y-102996806D01*
X124426186Y-102996807D01*
X124419249Y-103000342D01*
X124413745Y-103005845D01*
X124413742Y-103005848D01*
X124330848Y-103088742D01*
X124330845Y-103088745D01*
X124325342Y-103094249D01*
X124321807Y-103101186D01*
X124321806Y-103101188D01*
X124268585Y-103205639D01*
X124268583Y-103205642D01*
X124265049Y-103212580D01*
X124263830Y-103220271D01*
X124263830Y-103220274D01*
X124250109Y-103306907D01*
X124249500Y-103310754D01*
X124249500Y-103889246D01*
X123950500Y-103889246D01*
X123950500Y-103310754D01*
X123934951Y-103212580D01*
X123874658Y-103094249D01*
X123780751Y-103000342D01*
X123662420Y-102940049D01*
X123654726Y-102938830D01*
X123654725Y-102938830D01*
X123568092Y-102925109D01*
X123568090Y-102925108D01*
X123564246Y-102924500D01*
X123060754Y-102924500D01*
X123056910Y-102925108D01*
X123056907Y-102925109D01*
X122970274Y-102938830D01*
X122970271Y-102938830D01*
X122962580Y-102940049D01*
X122955642Y-102943583D01*
X122955639Y-102943585D01*
X122851190Y-102996805D01*
X122851188Y-102996806D01*
X122844249Y-103000342D01*
X122839312Y-103005278D01*
X122832645Y-103009606D01*
X122396750Y-103261239D01*
X122347257Y-103274500D01*
X120293858Y-103274500D01*
X120258852Y-103268104D01*
X120125682Y-103217763D01*
X119678361Y-103048666D01*
X119678358Y-103048665D01*
X119669099Y-103045165D01*
X119665766Y-103043905D01*
X119665764Y-103043904D01*
X119661316Y-103042223D01*
X119656627Y-103041421D01*
X119656621Y-103041420D01*
X119648892Y-103040099D01*
X119627691Y-103033980D01*
X119587752Y-103017437D01*
X119587751Y-103017436D01*
X119581762Y-103014956D01*
X119575331Y-103014109D01*
X119575330Y-103014109D01*
X119431434Y-102995165D01*
X119425000Y-102994318D01*
X119418566Y-102995165D01*
X119274673Y-103014108D01*
X119274666Y-103014109D01*
X119268238Y-103014956D01*
X119262243Y-103017439D01*
X119262240Y-103017440D01*
X119128154Y-103072980D01*
X119128149Y-103072982D01*
X119122159Y-103075464D01*
X119117015Y-103079411D01*
X119117010Y-103079414D01*
X119001871Y-103167763D01*
X119001866Y-103167767D01*
X118996718Y-103171718D01*
X118992767Y-103176866D01*
X118992763Y-103176871D01*
X118904414Y-103292010D01*
X118904411Y-103292015D01*
X118900464Y-103297159D01*
X118897982Y-103303149D01*
X118897980Y-103303154D01*
X118842440Y-103437240D01*
X118839956Y-103443238D01*
X118839109Y-103449666D01*
X118839108Y-103449673D01*
X118833373Y-103493238D01*
X118819318Y-103600000D01*
X117700713Y-103600000D01*
X117699536Y-103597159D01*
X117603282Y-103471718D01*
X117574552Y-103449673D01*
X117482989Y-103379414D01*
X117482988Y-103379413D01*
X117477841Y-103375464D01*
X117471847Y-103372981D01*
X117471845Y-103372980D01*
X117337759Y-103317440D01*
X117337758Y-103317439D01*
X117331762Y-103314956D01*
X117325331Y-103314109D01*
X117325326Y-103314108D01*
X117181313Y-103295149D01*
X117181311Y-103295148D01*
X117175000Y-103294318D01*
X117172930Y-103294590D01*
X117171359Y-103294225D01*
X117111498Y-103292010D01*
X116980725Y-103287171D01*
X116967196Y-103285735D01*
X116949784Y-103282665D01*
X116941359Y-103280797D01*
X116928991Y-103277484D01*
X116912169Y-103272976D01*
X116912166Y-103272975D01*
X116903807Y-103270736D01*
X116895184Y-103271490D01*
X116895180Y-103271490D01*
X116865095Y-103274123D01*
X116856466Y-103274500D01*
X116752742Y-103274500D01*
X116703247Y-103261239D01*
X116602628Y-103203154D01*
X116404438Y-103088743D01*
X116267359Y-103009610D01*
X116260686Y-103005277D01*
X116255751Y-103000342D01*
X116248811Y-102996806D01*
X116248810Y-102996805D01*
X116144360Y-102943585D01*
X116144359Y-102943584D01*
X116137420Y-102940049D01*
X116129726Y-102938830D01*
X116129725Y-102938830D01*
X116039246Y-102924500D01*
X116039515Y-102922796D01*
X115994271Y-102905589D01*
X115961151Y-102860919D01*
X115957338Y-102805441D01*
X115984034Y-102756659D01*
X115999609Y-102741084D01*
X116032979Y-102691142D01*
X116040298Y-102673473D01*
X116049052Y-102629461D01*
X116049516Y-102624748D01*
X116489500Y-102624748D01*
X116501133Y-102683231D01*
X116506550Y-102691338D01*
X116506551Y-102691340D01*
X116540028Y-102741441D01*
X116545448Y-102749552D01*
X116611769Y-102793867D01*
X116670252Y-102805500D01*
X118404890Y-102805500D01*
X118409748Y-102805500D01*
X118468231Y-102793867D01*
X118534552Y-102749552D01*
X118578867Y-102683231D01*
X118590500Y-102624748D01*
X118590500Y-100195989D01*
X118591806Y-100179961D01*
X118595063Y-100160108D01*
X118595666Y-100156434D01*
X118604989Y-99400000D01*
X119394318Y-99400000D01*
X119395165Y-99406434D01*
X119414108Y-99550326D01*
X119414109Y-99550331D01*
X119414956Y-99556762D01*
X119475464Y-99702841D01*
X119479413Y-99707988D01*
X119479414Y-99707989D01*
X119528088Y-99771423D01*
X119571718Y-99828282D01*
X119697159Y-99924536D01*
X119703156Y-99927020D01*
X119743089Y-99943561D01*
X119762410Y-99954226D01*
X119772698Y-99961511D01*
X119777037Y-99963469D01*
X119777038Y-99963470D01*
X120354935Y-100224307D01*
X120384211Y-100244537D01*
X120541730Y-100402056D01*
X120547564Y-100408424D01*
X120566975Y-100431557D01*
X120566978Y-100431559D01*
X120572545Y-100438194D01*
X120606215Y-100457633D01*
X120613477Y-100462260D01*
X120622437Y-100468534D01*
X120638219Y-100479585D01*
X120638220Y-100479585D01*
X120645316Y-100484554D01*
X120653682Y-100486795D01*
X120658964Y-100489258D01*
X120664450Y-100491254D01*
X120671955Y-100495588D01*
X120705498Y-100501502D01*
X120710220Y-100502335D01*
X120718652Y-100504204D01*
X120756193Y-100514264D01*
X120794908Y-100510877D01*
X120803537Y-100510500D01*
X122071915Y-100510500D01*
X122106150Y-100516608D01*
X122136161Y-100534177D01*
X122815051Y-101113231D01*
X122898422Y-101184341D01*
X122924668Y-101199361D01*
X122930481Y-101202961D01*
X122953659Y-101218448D01*
X122961769Y-101223867D01*
X123020252Y-101235500D01*
X123043731Y-101235500D01*
X123047917Y-101236120D01*
X123050617Y-101235500D01*
X126559748Y-101235500D01*
X126618231Y-101223867D01*
X126684552Y-101179552D01*
X126728867Y-101113231D01*
X126740500Y-101054748D01*
X126740500Y-99315252D01*
X126728867Y-99256769D01*
X126684552Y-99190448D01*
X126676441Y-99185028D01*
X126626340Y-99151551D01*
X126626338Y-99151550D01*
X126618231Y-99146133D01*
X126608667Y-99144230D01*
X126608666Y-99144230D01*
X126564511Y-99135447D01*
X126564506Y-99135446D01*
X126559748Y-99134500D01*
X126554890Y-99134500D01*
X123051220Y-99134500D01*
X123050624Y-99134500D01*
X123047920Y-99133879D01*
X123043726Y-99134500D01*
X123020252Y-99134500D01*
X123015494Y-99135446D01*
X123015488Y-99135447D01*
X122971331Y-99144230D01*
X122971326Y-99144231D01*
X122961769Y-99146133D01*
X122953665Y-99151547D01*
X122953662Y-99151549D01*
X122930483Y-99167037D01*
X122924658Y-99170643D01*
X122902436Y-99183360D01*
X122902428Y-99183365D01*
X122898424Y-99185657D01*
X122894918Y-99188647D01*
X122894910Y-99188653D01*
X122136161Y-99835823D01*
X122106150Y-99853392D01*
X122071915Y-99859500D01*
X120960834Y-99859500D01*
X120922948Y-99851964D01*
X120890830Y-99830504D01*
X120844537Y-99784211D01*
X120824307Y-99754935D01*
X120563470Y-99177038D01*
X120563469Y-99177037D01*
X120561511Y-99172698D01*
X120554226Y-99162410D01*
X120543561Y-99143089D01*
X120527020Y-99103156D01*
X120527019Y-99103154D01*
X120524536Y-99097159D01*
X120428282Y-98971718D01*
X120350793Y-98912259D01*
X120307989Y-98879414D01*
X120307988Y-98879413D01*
X120302841Y-98875464D01*
X120296847Y-98872981D01*
X120296845Y-98872980D01*
X120162759Y-98817440D01*
X120162758Y-98817439D01*
X120156762Y-98814956D01*
X120150331Y-98814109D01*
X120150326Y-98814108D01*
X120006434Y-98795165D01*
X120000000Y-98794318D01*
X119993566Y-98795165D01*
X119849673Y-98814108D01*
X119849666Y-98814109D01*
X119843238Y-98814956D01*
X119837243Y-98817439D01*
X119837240Y-98817440D01*
X119703154Y-98872980D01*
X119703149Y-98872982D01*
X119697159Y-98875464D01*
X119692015Y-98879411D01*
X119692010Y-98879414D01*
X119576871Y-98967763D01*
X119576866Y-98967767D01*
X119571718Y-98971718D01*
X119567767Y-98976866D01*
X119567763Y-98976871D01*
X119479414Y-99092010D01*
X119479411Y-99092015D01*
X119475464Y-99097159D01*
X119472982Y-99103149D01*
X119472980Y-99103154D01*
X119436822Y-99190448D01*
X119414956Y-99243238D01*
X119414109Y-99249666D01*
X119414108Y-99249673D01*
X119402935Y-99334544D01*
X119394318Y-99400000D01*
X118604989Y-99400000D01*
X118613006Y-98749500D01*
X121244318Y-98749500D01*
X121245165Y-98755934D01*
X121264108Y-98899826D01*
X121264109Y-98899831D01*
X121264956Y-98906262D01*
X121267439Y-98912258D01*
X121267440Y-98912259D01*
X121319280Y-99037413D01*
X121325464Y-99052341D01*
X121329413Y-99057488D01*
X121329414Y-99057489D01*
X121409926Y-99162415D01*
X121421718Y-99177782D01*
X121547159Y-99274036D01*
X121693238Y-99334544D01*
X121850000Y-99355182D01*
X122006762Y-99334544D01*
X122152841Y-99274036D01*
X122278282Y-99177782D01*
X122374536Y-99052341D01*
X122435044Y-98906262D01*
X122455682Y-98749500D01*
X122435044Y-98592738D01*
X122416017Y-98546805D01*
X122409895Y-98525592D01*
X122408043Y-98514748D01*
X122839500Y-98514748D01*
X122840446Y-98519506D01*
X122840447Y-98519511D01*
X122849230Y-98563666D01*
X122851133Y-98573231D01*
X122856550Y-98581338D01*
X122856551Y-98581340D01*
X122868466Y-98599171D01*
X122895448Y-98639552D01*
X122961769Y-98683867D01*
X123020252Y-98695500D01*
X126554890Y-98695500D01*
X126559748Y-98695500D01*
X126618231Y-98683867D01*
X126684552Y-98639552D01*
X126728867Y-98573231D01*
X126740500Y-98514748D01*
X126740500Y-96775252D01*
X126728867Y-96716769D01*
X126684552Y-96650448D01*
X126632012Y-96615341D01*
X126626340Y-96611551D01*
X126626338Y-96611550D01*
X126618231Y-96606133D01*
X126608667Y-96604230D01*
X126608666Y-96604230D01*
X126564511Y-96595447D01*
X126564506Y-96595446D01*
X126559748Y-96594500D01*
X123020252Y-96594500D01*
X123015494Y-96595446D01*
X123015488Y-96595447D01*
X122971333Y-96604230D01*
X122971330Y-96604231D01*
X122961769Y-96606133D01*
X122953663Y-96611549D01*
X122953659Y-96611551D01*
X122903558Y-96645028D01*
X122903555Y-96645030D01*
X122895448Y-96650448D01*
X122890030Y-96658555D01*
X122890028Y-96658558D01*
X122856551Y-96708659D01*
X122856549Y-96708663D01*
X122851133Y-96716769D01*
X122849231Y-96726330D01*
X122849230Y-96726333D01*
X122840447Y-96770488D01*
X122840446Y-96770494D01*
X122839500Y-96775252D01*
X122839500Y-98514748D01*
X122408043Y-98514748D01*
X122407775Y-98513179D01*
X122181895Y-97915647D01*
X122175500Y-97880642D01*
X122175500Y-95969840D01*
X122840000Y-95969840D01*
X122840947Y-95979461D01*
X122849701Y-96023473D01*
X122857020Y-96041142D01*
X122890389Y-96091082D01*
X122903917Y-96104610D01*
X122953857Y-96137979D01*
X122971526Y-96145298D01*
X123015538Y-96154052D01*
X123025160Y-96155000D01*
X124676967Y-96155000D01*
X124687245Y-96152245D01*
X124690000Y-96141967D01*
X124890000Y-96141967D01*
X124892754Y-96152245D01*
X124903033Y-96155000D01*
X126554840Y-96155000D01*
X126564461Y-96154052D01*
X126608473Y-96145298D01*
X126626142Y-96137979D01*
X126676082Y-96104610D01*
X126689610Y-96091082D01*
X126722979Y-96041142D01*
X126730298Y-96023473D01*
X126739052Y-95979461D01*
X126740000Y-95969840D01*
X126740000Y-95218033D01*
X126737245Y-95207754D01*
X126726967Y-95205000D01*
X124903033Y-95205000D01*
X124892754Y-95207754D01*
X124890000Y-95218033D01*
X124890000Y-96141967D01*
X124690000Y-96141967D01*
X124690000Y-95218033D01*
X124687245Y-95207754D01*
X124676967Y-95205000D01*
X122853033Y-95205000D01*
X122842754Y-95207754D01*
X122840000Y-95218033D01*
X122840000Y-95969840D01*
X122175500Y-95969840D01*
X122175500Y-94991967D01*
X122840000Y-94991967D01*
X122842754Y-95002245D01*
X122853033Y-95005000D01*
X124676967Y-95005000D01*
X124687245Y-95002245D01*
X124690000Y-94991967D01*
X124890000Y-94991967D01*
X124892754Y-95002245D01*
X124903033Y-95005000D01*
X126726967Y-95005000D01*
X126737245Y-95002245D01*
X126740000Y-94991967D01*
X126740000Y-94240160D01*
X126739052Y-94230538D01*
X126730298Y-94186526D01*
X126722979Y-94168857D01*
X126689610Y-94118917D01*
X126676082Y-94105389D01*
X126626142Y-94072020D01*
X126608473Y-94064701D01*
X126564461Y-94055947D01*
X126554840Y-94055000D01*
X124903033Y-94055000D01*
X124892754Y-94057754D01*
X124890000Y-94068033D01*
X124890000Y-94991967D01*
X124690000Y-94991967D01*
X124690000Y-94068033D01*
X124687245Y-94057754D01*
X124676967Y-94055000D01*
X123025160Y-94055000D01*
X123015538Y-94055947D01*
X122971526Y-94064701D01*
X122953857Y-94072020D01*
X122903917Y-94105389D01*
X122890389Y-94118917D01*
X122857020Y-94168857D01*
X122849701Y-94186526D01*
X122840947Y-94230538D01*
X122840000Y-94240160D01*
X122840000Y-94991967D01*
X122175500Y-94991967D01*
X122175500Y-93434748D01*
X122839500Y-93434748D01*
X122851133Y-93493231D01*
X122895448Y-93559552D01*
X122961769Y-93603867D01*
X123020252Y-93615500D01*
X126554890Y-93615500D01*
X126559748Y-93615500D01*
X126618231Y-93603867D01*
X126684552Y-93559552D01*
X126728867Y-93493231D01*
X126740500Y-93434748D01*
X126740500Y-91695252D01*
X126728867Y-91636769D01*
X126684552Y-91570448D01*
X126676441Y-91565028D01*
X126626340Y-91531551D01*
X126626338Y-91531550D01*
X126618231Y-91526133D01*
X126608667Y-91524230D01*
X126608666Y-91524230D01*
X126564511Y-91515447D01*
X126564506Y-91515446D01*
X126559748Y-91514500D01*
X123020252Y-91514500D01*
X123015494Y-91515446D01*
X123015488Y-91515447D01*
X122971333Y-91524230D01*
X122971330Y-91524231D01*
X122961769Y-91526133D01*
X122953663Y-91531549D01*
X122953659Y-91531551D01*
X122903558Y-91565028D01*
X122903555Y-91565030D01*
X122895448Y-91570448D01*
X122890030Y-91578555D01*
X122890028Y-91578558D01*
X122856551Y-91628659D01*
X122856549Y-91628663D01*
X122851133Y-91636769D01*
X122849231Y-91646330D01*
X122849230Y-91646333D01*
X122840447Y-91690488D01*
X122840446Y-91690494D01*
X122839500Y-91695252D01*
X122839500Y-93434748D01*
X122175500Y-93434748D01*
X122175500Y-90894748D01*
X122839500Y-90894748D01*
X122851133Y-90953231D01*
X122895448Y-91019552D01*
X122961769Y-91063867D01*
X123020252Y-91075500D01*
X126554890Y-91075500D01*
X126559748Y-91075500D01*
X126618231Y-91063867D01*
X126684552Y-91019552D01*
X126728867Y-90953231D01*
X126740500Y-90894748D01*
X126740500Y-89155252D01*
X126728867Y-89096769D01*
X126684552Y-89030448D01*
X126676441Y-89025028D01*
X126626340Y-88991551D01*
X126626338Y-88991550D01*
X126618231Y-88986133D01*
X126608667Y-88984230D01*
X126608666Y-88984230D01*
X126564511Y-88975447D01*
X126564506Y-88975446D01*
X126559748Y-88974500D01*
X123020252Y-88974500D01*
X123015494Y-88975446D01*
X123015488Y-88975447D01*
X122971333Y-88984230D01*
X122971330Y-88984231D01*
X122961769Y-88986133D01*
X122953663Y-88991549D01*
X122953659Y-88991551D01*
X122903558Y-89025028D01*
X122903555Y-89025030D01*
X122895448Y-89030448D01*
X122890030Y-89038555D01*
X122890028Y-89038558D01*
X122856551Y-89088659D01*
X122856549Y-89088663D01*
X122851133Y-89096769D01*
X122849231Y-89106330D01*
X122849230Y-89106333D01*
X122840447Y-89150488D01*
X122840446Y-89150494D01*
X122839500Y-89155252D01*
X122839500Y-90894748D01*
X122175500Y-90894748D01*
X122175500Y-88354748D01*
X122839500Y-88354748D01*
X122840446Y-88359506D01*
X122840447Y-88359511D01*
X122849230Y-88403666D01*
X122851133Y-88413231D01*
X122856550Y-88421338D01*
X122856551Y-88421340D01*
X122887888Y-88468238D01*
X122895448Y-88479552D01*
X122961769Y-88523867D01*
X123020252Y-88535500D01*
X126554890Y-88535500D01*
X126559748Y-88535500D01*
X126618231Y-88523867D01*
X126684552Y-88479552D01*
X126728867Y-88413231D01*
X126740500Y-88354748D01*
X126740500Y-86615252D01*
X126728867Y-86556769D01*
X126684552Y-86490448D01*
X126676441Y-86485028D01*
X126626340Y-86451551D01*
X126626338Y-86451550D01*
X126618231Y-86446133D01*
X126608667Y-86444230D01*
X126608666Y-86444230D01*
X126564511Y-86435447D01*
X126564506Y-86435446D01*
X126559748Y-86434500D01*
X123020252Y-86434500D01*
X123015494Y-86435446D01*
X123015488Y-86435447D01*
X122971333Y-86444230D01*
X122971330Y-86444231D01*
X122961769Y-86446133D01*
X122953663Y-86451549D01*
X122953659Y-86451551D01*
X122903558Y-86485028D01*
X122903555Y-86485030D01*
X122895448Y-86490448D01*
X122890030Y-86498555D01*
X122890028Y-86498558D01*
X122856551Y-86548659D01*
X122856549Y-86548663D01*
X122851133Y-86556769D01*
X122849231Y-86566330D01*
X122849230Y-86566333D01*
X122840447Y-86610488D01*
X122840446Y-86610494D01*
X122839500Y-86615252D01*
X122839500Y-88354748D01*
X122175500Y-88354748D01*
X122175500Y-85814748D01*
X122839500Y-85814748D01*
X122851133Y-85873231D01*
X122895448Y-85939552D01*
X122961769Y-85983867D01*
X123020252Y-85995500D01*
X126554890Y-85995500D01*
X126559748Y-85995500D01*
X126618231Y-85983867D01*
X126684552Y-85939552D01*
X126728867Y-85873231D01*
X126740500Y-85814748D01*
X126740500Y-84075252D01*
X126728867Y-84016769D01*
X126684552Y-83950448D01*
X126670076Y-83940775D01*
X126626340Y-83911551D01*
X126626338Y-83911550D01*
X126618231Y-83906133D01*
X126608667Y-83904230D01*
X126608666Y-83904230D01*
X126564511Y-83895447D01*
X126564506Y-83895446D01*
X126559748Y-83894500D01*
X123020252Y-83894500D01*
X123015494Y-83895446D01*
X123015488Y-83895447D01*
X122971333Y-83904230D01*
X122971330Y-83904231D01*
X122961769Y-83906133D01*
X122953663Y-83911549D01*
X122953659Y-83911551D01*
X122903558Y-83945028D01*
X122903555Y-83945030D01*
X122895448Y-83950448D01*
X122890030Y-83958555D01*
X122890028Y-83958558D01*
X122856551Y-84008659D01*
X122856549Y-84008663D01*
X122851133Y-84016769D01*
X122849231Y-84026330D01*
X122849230Y-84026333D01*
X122840447Y-84070488D01*
X122840446Y-84070494D01*
X122839500Y-84075252D01*
X122839500Y-85814748D01*
X122175500Y-85814748D01*
X122175500Y-84568858D01*
X122181896Y-84533852D01*
X122407775Y-83936320D01*
X122409895Y-83923910D01*
X122416015Y-83902699D01*
X122435044Y-83856762D01*
X122455682Y-83700000D01*
X122435044Y-83543238D01*
X122374536Y-83397159D01*
X122278282Y-83271718D01*
X122275835Y-83269840D01*
X122840000Y-83269840D01*
X122840947Y-83279461D01*
X122849701Y-83323473D01*
X122857020Y-83341142D01*
X122890389Y-83391082D01*
X122903917Y-83404610D01*
X122953857Y-83437979D01*
X122971526Y-83445298D01*
X123015538Y-83454052D01*
X123025160Y-83455000D01*
X124676967Y-83455000D01*
X124687245Y-83452245D01*
X124690000Y-83441967D01*
X124890000Y-83441967D01*
X124892754Y-83452245D01*
X124903033Y-83455000D01*
X126554840Y-83455000D01*
X126564461Y-83454052D01*
X126608473Y-83445298D01*
X126626142Y-83437979D01*
X126676082Y-83404610D01*
X126689610Y-83391082D01*
X126722979Y-83341142D01*
X126730298Y-83323473D01*
X126739052Y-83279461D01*
X126740000Y-83269840D01*
X126740000Y-82518033D01*
X126737245Y-82507754D01*
X126726967Y-82505000D01*
X124903033Y-82505000D01*
X124892754Y-82507754D01*
X124890000Y-82518033D01*
X124890000Y-83441967D01*
X124690000Y-83441967D01*
X124690000Y-82518033D01*
X124687245Y-82507754D01*
X124676967Y-82505000D01*
X122853033Y-82505000D01*
X122842754Y-82507754D01*
X122840000Y-82518033D01*
X122840000Y-83269840D01*
X122275835Y-83269840D01*
X122152841Y-83175464D01*
X122146847Y-83172981D01*
X122146845Y-83172980D01*
X122012759Y-83117440D01*
X122012758Y-83117439D01*
X122006762Y-83114956D01*
X122000331Y-83114109D01*
X122000326Y-83114108D01*
X121856434Y-83095165D01*
X121850000Y-83094318D01*
X121843566Y-83095165D01*
X121699673Y-83114108D01*
X121699666Y-83114109D01*
X121693238Y-83114956D01*
X121687243Y-83117439D01*
X121687240Y-83117440D01*
X121553154Y-83172980D01*
X121553149Y-83172982D01*
X121547159Y-83175464D01*
X121542015Y-83179411D01*
X121542010Y-83179414D01*
X121426871Y-83267763D01*
X121426866Y-83267767D01*
X121421718Y-83271718D01*
X121417767Y-83276866D01*
X121417763Y-83276871D01*
X121329414Y-83392010D01*
X121329411Y-83392015D01*
X121325464Y-83397159D01*
X121322982Y-83403149D01*
X121322980Y-83403154D01*
X121301505Y-83455000D01*
X121264956Y-83543238D01*
X121264109Y-83549666D01*
X121264108Y-83549673D01*
X121245165Y-83693566D01*
X121244318Y-83700000D01*
X121264956Y-83856762D01*
X121267436Y-83862751D01*
X121267437Y-83862752D01*
X121283980Y-83902691D01*
X121290099Y-83923892D01*
X121291421Y-83931627D01*
X121291423Y-83931635D01*
X121292224Y-83936320D01*
X121293905Y-83940768D01*
X121293906Y-83940770D01*
X121396420Y-84211955D01*
X121490120Y-84459826D01*
X121518104Y-84533852D01*
X121524500Y-84568858D01*
X121524500Y-97880641D01*
X121518104Y-97915647D01*
X121389564Y-98255682D01*
X121292224Y-98513180D01*
X121291424Y-98517856D01*
X121291421Y-98517870D01*
X121290099Y-98525608D01*
X121283980Y-98546805D01*
X121267438Y-98586742D01*
X121267435Y-98586752D01*
X121264956Y-98592738D01*
X121264109Y-98599166D01*
X121264109Y-98599169D01*
X121253672Y-98678448D01*
X121244318Y-98749500D01*
X118613006Y-98749500D01*
X118613473Y-98711645D01*
X118621236Y-98674418D01*
X118642458Y-98642866D01*
X120128291Y-97157033D01*
X120157561Y-97136807D01*
X120739801Y-96874011D01*
X120750082Y-96866730D01*
X120769402Y-96856063D01*
X120815341Y-96837036D01*
X120940782Y-96740782D01*
X121037036Y-96615341D01*
X121097544Y-96469262D01*
X121118182Y-96312500D01*
X121097544Y-96155738D01*
X121037036Y-96009659D01*
X120940782Y-95884218D01*
X120815341Y-95787964D01*
X120809347Y-95785481D01*
X120809345Y-95785480D01*
X120675259Y-95729940D01*
X120675258Y-95729939D01*
X120669262Y-95727456D01*
X120662831Y-95726609D01*
X120662826Y-95726608D01*
X120518934Y-95707665D01*
X120512500Y-95706818D01*
X120506066Y-95707665D01*
X120362173Y-95726608D01*
X120362166Y-95726609D01*
X120355738Y-95727456D01*
X120349743Y-95729939D01*
X120349740Y-95729940D01*
X120215654Y-95785480D01*
X120215649Y-95785482D01*
X120209659Y-95787964D01*
X120204515Y-95791911D01*
X120204510Y-95791914D01*
X120089371Y-95880263D01*
X120089366Y-95880267D01*
X120084218Y-95884218D01*
X120080267Y-95889366D01*
X120080263Y-95889371D01*
X119991914Y-96004510D01*
X119991911Y-96004515D01*
X119987964Y-96009659D01*
X119985484Y-96015643D01*
X119985479Y-96015654D01*
X119968935Y-96055594D01*
X119958272Y-96074910D01*
X119953741Y-96081308D01*
X119953736Y-96081316D01*
X119950989Y-96085196D01*
X119949031Y-96089532D01*
X119949028Y-96089539D01*
X119688189Y-96667437D01*
X119667959Y-96696713D01*
X118132550Y-98232122D01*
X118111843Y-98247971D01*
X116991370Y-98891353D01*
X116942073Y-98904500D01*
X116670252Y-98904500D01*
X116665494Y-98905446D01*
X116665488Y-98905447D01*
X116621333Y-98914230D01*
X116621330Y-98914231D01*
X116611769Y-98916133D01*
X116603663Y-98921549D01*
X116603659Y-98921551D01*
X116553558Y-98955028D01*
X116553555Y-98955030D01*
X116545448Y-98960448D01*
X116540030Y-98968555D01*
X116540028Y-98968558D01*
X116506551Y-99018659D01*
X116506549Y-99018663D01*
X116501133Y-99026769D01*
X116499232Y-99036328D01*
X116499230Y-99036333D01*
X116490447Y-99080488D01*
X116490446Y-99080494D01*
X116489500Y-99085252D01*
X116489500Y-102624748D01*
X116049516Y-102624748D01*
X116050000Y-102619840D01*
X116050000Y-100968033D01*
X116047245Y-100957754D01*
X116036967Y-100955000D01*
X115113033Y-100955000D01*
X115102754Y-100957754D01*
X115100000Y-100968033D01*
X115100000Y-102791967D01*
X114900000Y-102791967D01*
X114900000Y-100968033D01*
X114897245Y-100957754D01*
X114886967Y-100955000D01*
X113963033Y-100955000D01*
X113952754Y-100957754D01*
X113950000Y-100968033D01*
X113950000Y-102619840D01*
X113950947Y-102629461D01*
X113959701Y-102673473D01*
X113967020Y-102691142D01*
X114000389Y-102741082D01*
X114015967Y-102756660D01*
X114042661Y-102805440D01*
X114038849Y-102860915D01*
X114005734Y-102905584D01*
X113960484Y-102922798D01*
X113960754Y-102924500D01*
X113870274Y-102938830D01*
X113870271Y-102938830D01*
X113862580Y-102940049D01*
X113855642Y-102943583D01*
X113855639Y-102943585D01*
X113751188Y-102996806D01*
X113751186Y-102996807D01*
X113744249Y-103000342D01*
X113738745Y-103005845D01*
X113738742Y-103005848D01*
X113655847Y-103088743D01*
X113655844Y-103088746D01*
X113650342Y-103094249D01*
X113649628Y-103095647D01*
X113639967Y-103106155D01*
X113456022Y-103264977D01*
X113427548Y-103282178D01*
X113394983Y-103288976D01*
X113257858Y-103294049D01*
X113257852Y-103294049D01*
X113253142Y-103294224D01*
X113251567Y-103294589D01*
X113249502Y-103294318D01*
X113243219Y-103295145D01*
X113243206Y-103295146D01*
X113099175Y-103314108D01*
X113099168Y-103314109D01*
X113092740Y-103314956D01*
X113086745Y-103317439D01*
X113086742Y-103317440D01*
X112952656Y-103372980D01*
X112952651Y-103372982D01*
X112946661Y-103375464D01*
X112941517Y-103379411D01*
X112941512Y-103379414D01*
X112826373Y-103467763D01*
X112826368Y-103467767D01*
X112821220Y-103471718D01*
X112817269Y-103476866D01*
X112817265Y-103476871D01*
X112728916Y-103592010D01*
X112728913Y-103592015D01*
X112724966Y-103597159D01*
X112722484Y-103603149D01*
X112722482Y-103603154D01*
X112666942Y-103737240D01*
X112664458Y-103743238D01*
X112663611Y-103749666D01*
X112663610Y-103749673D01*
X112655933Y-103807989D01*
X112643820Y-103900000D01*
X109550500Y-103900000D01*
X109550500Y-102624748D01*
X111409500Y-102624748D01*
X111421133Y-102683231D01*
X111426550Y-102691338D01*
X111426551Y-102691340D01*
X111460028Y-102741441D01*
X111465448Y-102749552D01*
X111531769Y-102793867D01*
X111590252Y-102805500D01*
X113324890Y-102805500D01*
X113329748Y-102805500D01*
X113388231Y-102793867D01*
X113454552Y-102749552D01*
X113498867Y-102683231D01*
X113510500Y-102624748D01*
X113510500Y-100741967D01*
X113950000Y-100741967D01*
X113952754Y-100752245D01*
X113963033Y-100755000D01*
X114886967Y-100755000D01*
X114897245Y-100752245D01*
X114900000Y-100741967D01*
X115100000Y-100741967D01*
X115102754Y-100752245D01*
X115113033Y-100755000D01*
X116036967Y-100755000D01*
X116047245Y-100752245D01*
X116050000Y-100741967D01*
X116050000Y-99090160D01*
X116049052Y-99080538D01*
X116040298Y-99036526D01*
X116032979Y-99018857D01*
X115999610Y-98968917D01*
X115986082Y-98955389D01*
X115936142Y-98922020D01*
X115918473Y-98914701D01*
X115874461Y-98905947D01*
X115864840Y-98905000D01*
X115113033Y-98905000D01*
X115102754Y-98907754D01*
X115100000Y-98918033D01*
X115100000Y-100741967D01*
X114900000Y-100741967D01*
X114900000Y-98918033D01*
X114897245Y-98907754D01*
X114886967Y-98905000D01*
X114135160Y-98905000D01*
X114125538Y-98905947D01*
X114081526Y-98914701D01*
X114063857Y-98922020D01*
X114013917Y-98955389D01*
X114000389Y-98968917D01*
X113967020Y-99018857D01*
X113959701Y-99036526D01*
X113950947Y-99080538D01*
X113950000Y-99090160D01*
X113950000Y-100741967D01*
X113510500Y-100741967D01*
X113510500Y-99112053D01*
X113510528Y-99109691D01*
X113511189Y-99081998D01*
X113511279Y-99078229D01*
X113510380Y-99071268D01*
X113502960Y-99045544D01*
X113500986Y-99037428D01*
X113498867Y-99026769D01*
X113498866Y-99026768D01*
X113498866Y-99026765D01*
X113498948Y-99026748D01*
X113498495Y-99022729D01*
X113496544Y-99023292D01*
X113493096Y-99011336D01*
X113477158Y-98976871D01*
X113403433Y-98817440D01*
X113310516Y-98616507D01*
X113302907Y-98557609D01*
X113330370Y-98504954D01*
X113905830Y-97929496D01*
X113937948Y-97908036D01*
X113975834Y-97900500D01*
X116731466Y-97900500D01*
X116740095Y-97900877D01*
X116770177Y-97903509D01*
X116770177Y-97903508D01*
X116778807Y-97904264D01*
X116816354Y-97894202D01*
X116824777Y-97892335D01*
X116863045Y-97885588D01*
X116870548Y-97881255D01*
X116876027Y-97879261D01*
X116881311Y-97876796D01*
X116889684Y-97874554D01*
X116921533Y-97852251D01*
X116928779Y-97847635D01*
X116962455Y-97828194D01*
X116987442Y-97798414D01*
X116993254Y-97792070D01*
X119678292Y-95107032D01*
X119707562Y-95086806D01*
X120289801Y-94824011D01*
X120300082Y-94816730D01*
X120319402Y-94806063D01*
X120365341Y-94787036D01*
X120490782Y-94690782D01*
X120587036Y-94565341D01*
X120647544Y-94419262D01*
X120668182Y-94262500D01*
X120647544Y-94105738D01*
X120587036Y-93959659D01*
X120490782Y-93834218D01*
X120475066Y-93822159D01*
X120370489Y-93741914D01*
X120370488Y-93741913D01*
X120365341Y-93737964D01*
X120359347Y-93735481D01*
X120359345Y-93735480D01*
X120225259Y-93679940D01*
X120225258Y-93679939D01*
X120219262Y-93677456D01*
X120212831Y-93676609D01*
X120212826Y-93676608D01*
X120068934Y-93657665D01*
X120062500Y-93656818D01*
X120056066Y-93657665D01*
X119912173Y-93676608D01*
X119912166Y-93676609D01*
X119905738Y-93677456D01*
X119899743Y-93679939D01*
X119899740Y-93679940D01*
X119765654Y-93735480D01*
X119765649Y-93735482D01*
X119759659Y-93737964D01*
X119754515Y-93741911D01*
X119754510Y-93741914D01*
X119639371Y-93830263D01*
X119639366Y-93830267D01*
X119634218Y-93834218D01*
X119630267Y-93839366D01*
X119630263Y-93839371D01*
X119541914Y-93954510D01*
X119541911Y-93954515D01*
X119537964Y-93959659D01*
X119535484Y-93965643D01*
X119535479Y-93965654D01*
X119518935Y-94005594D01*
X119508272Y-94024910D01*
X119503741Y-94031308D01*
X119503736Y-94031316D01*
X119500989Y-94035196D01*
X119499031Y-94039532D01*
X119499028Y-94039539D01*
X119238190Y-94617435D01*
X119217960Y-94646711D01*
X116644170Y-97220504D01*
X116612052Y-97241964D01*
X116574166Y-97249500D01*
X113818526Y-97249500D01*
X113809898Y-97249123D01*
X113779820Y-97246491D01*
X113779815Y-97246491D01*
X113771193Y-97245737D01*
X113762830Y-97247977D01*
X113762826Y-97247978D01*
X113733655Y-97255794D01*
X113725227Y-97257663D01*
X113695485Y-97262907D01*
X113695480Y-97262908D01*
X113686955Y-97264412D01*
X113679455Y-97268741D01*
X113673965Y-97270740D01*
X113668679Y-97273204D01*
X113660316Y-97275446D01*
X113653221Y-97280413D01*
X113653220Y-97280414D01*
X113628483Y-97297734D01*
X113621207Y-97302369D01*
X113595049Y-97317472D01*
X113595043Y-97317476D01*
X113587545Y-97321806D01*
X113581978Y-97328439D01*
X113581977Y-97328441D01*
X113562573Y-97351565D01*
X113556741Y-97357930D01*
X112751921Y-98162750D01*
X112734081Y-98176888D01*
X112732675Y-98177759D01*
X112728735Y-98179739D01*
X112725206Y-98182388D01*
X112725202Y-98182392D01*
X111790225Y-98884658D01*
X111762109Y-98899409D01*
X111730769Y-98904500D01*
X111590252Y-98904500D01*
X111585494Y-98905446D01*
X111585488Y-98905447D01*
X111541333Y-98914230D01*
X111541330Y-98914231D01*
X111531769Y-98916133D01*
X111523663Y-98921549D01*
X111523659Y-98921551D01*
X111473558Y-98955028D01*
X111473555Y-98955030D01*
X111465448Y-98960448D01*
X111460030Y-98968555D01*
X111460028Y-98968558D01*
X111426551Y-99018659D01*
X111426549Y-99018663D01*
X111421133Y-99026769D01*
X111419232Y-99036328D01*
X111419230Y-99036333D01*
X111410447Y-99080488D01*
X111410446Y-99080494D01*
X111409500Y-99085252D01*
X111409500Y-102624748D01*
X109550500Y-102624748D01*
X109550500Y-100625834D01*
X109558036Y-100587948D01*
X109579496Y-100555830D01*
X110972911Y-99162415D01*
X115165791Y-94969533D01*
X115195061Y-94949307D01*
X115777301Y-94686511D01*
X115787582Y-94679230D01*
X115806902Y-94668563D01*
X115852841Y-94649536D01*
X115978282Y-94553282D01*
X116074536Y-94427841D01*
X116093563Y-94381902D01*
X116104230Y-94362582D01*
X116111511Y-94352301D01*
X116374307Y-93770061D01*
X116394533Y-93740791D01*
X120561297Y-89574028D01*
X120566463Y-89569221D01*
X120603520Y-89537131D01*
X120639923Y-89495694D01*
X120644279Y-89491046D01*
X120817071Y-89318254D01*
X120823431Y-89312428D01*
X120846559Y-89293022D01*
X120846558Y-89293022D01*
X120853194Y-89287455D01*
X120872634Y-89253780D01*
X120877258Y-89246523D01*
X120899553Y-89214684D01*
X120901794Y-89206318D01*
X120904440Y-89200645D01*
X120919792Y-89177140D01*
X121026922Y-89055202D01*
X121026921Y-89055202D01*
X121030004Y-89051694D01*
X121030811Y-89050323D01*
X121032167Y-89049235D01*
X121031676Y-89048858D01*
X121031676Y-89048857D01*
X121124536Y-88927841D01*
X121185044Y-88781762D01*
X121205682Y-88625000D01*
X121185044Y-88468238D01*
X121166017Y-88422305D01*
X121159895Y-88401092D01*
X121157775Y-88388679D01*
X120931895Y-87791147D01*
X120925500Y-87756142D01*
X120925500Y-84343534D01*
X120925877Y-84334905D01*
X120928509Y-84304822D01*
X120929264Y-84296193D01*
X120919204Y-84258652D01*
X120917335Y-84250220D01*
X120912092Y-84220487D01*
X120910588Y-84211955D01*
X120906254Y-84204450D01*
X120904258Y-84198964D01*
X120901795Y-84193682D01*
X120899554Y-84185316D01*
X120877260Y-84153477D01*
X120872633Y-84146215D01*
X120853194Y-84112545D01*
X120823418Y-84087559D01*
X120817060Y-84081734D01*
X119027293Y-82291967D01*
X122840000Y-82291967D01*
X122842754Y-82302245D01*
X122853033Y-82305000D01*
X124676967Y-82305000D01*
X124687245Y-82302245D01*
X124690000Y-82291967D01*
X124890000Y-82291967D01*
X124892754Y-82302245D01*
X124903033Y-82305000D01*
X126726967Y-82305000D01*
X126737245Y-82302245D01*
X126740000Y-82291967D01*
X126740000Y-81540160D01*
X126739052Y-81530538D01*
X126730298Y-81486526D01*
X126722979Y-81468857D01*
X126689610Y-81418917D01*
X126676082Y-81405389D01*
X126626142Y-81372020D01*
X126608473Y-81364701D01*
X126564461Y-81355947D01*
X126554840Y-81355000D01*
X124903033Y-81355000D01*
X124892754Y-81357754D01*
X124890000Y-81368033D01*
X124890000Y-82291967D01*
X124690000Y-82291967D01*
X124690000Y-81368033D01*
X124687245Y-81357754D01*
X124676967Y-81355000D01*
X123025160Y-81355000D01*
X123015538Y-81355947D01*
X122971526Y-81364701D01*
X122953857Y-81372020D01*
X122903917Y-81405389D01*
X122890389Y-81418917D01*
X122857020Y-81468857D01*
X122849701Y-81486526D01*
X122840947Y-81530538D01*
X122840000Y-81540160D01*
X122840000Y-82291967D01*
X119027293Y-82291967D01*
X113801330Y-77066004D01*
X113780444Y-77035242D01*
X113752640Y-76970845D01*
X113527776Y-76450028D01*
X113527920Y-76449965D01*
X113522919Y-76437624D01*
X113522775Y-76437679D01*
X113296895Y-75840147D01*
X113290500Y-75805142D01*
X113290500Y-75750000D01*
X118219318Y-75750000D01*
X118220165Y-75756434D01*
X118239108Y-75900326D01*
X118239109Y-75900331D01*
X118239956Y-75906762D01*
X118300464Y-76052841D01*
X118304413Y-76057988D01*
X118304414Y-76057989D01*
X118353088Y-76121423D01*
X118396718Y-76178282D01*
X118522159Y-76274536D01*
X118528156Y-76277020D01*
X118568089Y-76293561D01*
X118587410Y-76304226D01*
X118597698Y-76311511D01*
X118602037Y-76313469D01*
X118602038Y-76313470D01*
X119179935Y-76574307D01*
X119209211Y-76594537D01*
X122142944Y-79528270D01*
X122157498Y-79547355D01*
X122157733Y-79547867D01*
X122160173Y-79551400D01*
X122160176Y-79551405D01*
X122821959Y-80509579D01*
X122839500Y-80565841D01*
X122839500Y-80734748D01*
X122851133Y-80793231D01*
X122895448Y-80859552D01*
X122961769Y-80903867D01*
X123020252Y-80915500D01*
X126554890Y-80915500D01*
X126559748Y-80915500D01*
X126618231Y-80903867D01*
X126684552Y-80859552D01*
X126728867Y-80793231D01*
X126740500Y-80734748D01*
X126740500Y-78995252D01*
X126728867Y-78936769D01*
X126684552Y-78870448D01*
X126652807Y-78849236D01*
X126626340Y-78831551D01*
X126626338Y-78831550D01*
X126618231Y-78826133D01*
X126608667Y-78824230D01*
X126608666Y-78824230D01*
X126564511Y-78815447D01*
X126564506Y-78815446D01*
X126559748Y-78814500D01*
X126554890Y-78814500D01*
X123054423Y-78814500D01*
X123050218Y-78814411D01*
X123021451Y-78813188D01*
X123017781Y-78813032D01*
X123010972Y-78813757D01*
X123007414Y-78814683D01*
X123007410Y-78814684D01*
X122971634Y-78823998D01*
X122966043Y-78825282D01*
X122964843Y-78825521D01*
X122961792Y-78826128D01*
X122961476Y-78824540D01*
X122960139Y-78824685D01*
X122960702Y-78826845D01*
X122955627Y-78828166D01*
X122955615Y-78828169D01*
X122952068Y-78829094D01*
X122948689Y-78830535D01*
X122948686Y-78830537D01*
X122601739Y-78978601D01*
X122544084Y-78984745D01*
X122492876Y-78957550D01*
X121730074Y-78194748D01*
X122839500Y-78194748D01*
X122851133Y-78253231D01*
X122895448Y-78319552D01*
X122961769Y-78363867D01*
X123020252Y-78375500D01*
X126554890Y-78375500D01*
X126559748Y-78375500D01*
X126618231Y-78363867D01*
X126684552Y-78319552D01*
X126728867Y-78253231D01*
X126740500Y-78194748D01*
X126740500Y-76455252D01*
X126728867Y-76396769D01*
X126684552Y-76330448D01*
X126673949Y-76323363D01*
X126626340Y-76291551D01*
X126626338Y-76291550D01*
X126618231Y-76286133D01*
X126608667Y-76284230D01*
X126608666Y-76284230D01*
X126564511Y-76275447D01*
X126564506Y-76275446D01*
X126559748Y-76274500D01*
X123020252Y-76274500D01*
X123015494Y-76275446D01*
X123015488Y-76275447D01*
X122971333Y-76284230D01*
X122971330Y-76284231D01*
X122961769Y-76286133D01*
X122953663Y-76291549D01*
X122953659Y-76291551D01*
X122903558Y-76325028D01*
X122903555Y-76325030D01*
X122895448Y-76330448D01*
X122890030Y-76338555D01*
X122890028Y-76338558D01*
X122856551Y-76388659D01*
X122856549Y-76388663D01*
X122851133Y-76396769D01*
X122849231Y-76406330D01*
X122849230Y-76406333D01*
X122840447Y-76450488D01*
X122840446Y-76450494D01*
X122839500Y-76455252D01*
X122839500Y-78194748D01*
X121730074Y-78194748D01*
X119669537Y-76134211D01*
X119649307Y-76104935D01*
X119388470Y-75527038D01*
X119388469Y-75527037D01*
X119386511Y-75522698D01*
X119379226Y-75512410D01*
X119368561Y-75493089D01*
X119352020Y-75453156D01*
X119352019Y-75453154D01*
X119349536Y-75447159D01*
X119253282Y-75321718D01*
X119127841Y-75225464D01*
X119121847Y-75222981D01*
X119121845Y-75222980D01*
X118987759Y-75167440D01*
X118987758Y-75167439D01*
X118981762Y-75164956D01*
X118975331Y-75164109D01*
X118975326Y-75164108D01*
X118831434Y-75145165D01*
X118825000Y-75144318D01*
X118818566Y-75145165D01*
X118674673Y-75164108D01*
X118674666Y-75164109D01*
X118668238Y-75164956D01*
X118662243Y-75167439D01*
X118662240Y-75167440D01*
X118528154Y-75222980D01*
X118528149Y-75222982D01*
X118522159Y-75225464D01*
X118517015Y-75229411D01*
X118517010Y-75229414D01*
X118401871Y-75317763D01*
X118401866Y-75317767D01*
X118396718Y-75321718D01*
X118392767Y-75326866D01*
X118392763Y-75326871D01*
X118304414Y-75442010D01*
X118304411Y-75442015D01*
X118300464Y-75447159D01*
X118297982Y-75453149D01*
X118297980Y-75453154D01*
X118242440Y-75587240D01*
X118239956Y-75593238D01*
X118239109Y-75599666D01*
X118239108Y-75599673D01*
X118223091Y-75721340D01*
X118219318Y-75750000D01*
X113290500Y-75750000D01*
X113290500Y-74775000D01*
X121744318Y-74775000D01*
X121745165Y-74781434D01*
X121764108Y-74925326D01*
X121764109Y-74925331D01*
X121764956Y-74931762D01*
X121825464Y-75077841D01*
X121829413Y-75082988D01*
X121829414Y-75082989D01*
X121894215Y-75167440D01*
X121921718Y-75203282D01*
X122047159Y-75299536D01*
X122193238Y-75360044D01*
X122350000Y-75380682D01*
X122429158Y-75370260D01*
X122473537Y-75374544D01*
X122511535Y-75397867D01*
X122881057Y-75761711D01*
X122884689Y-75766102D01*
X122890028Y-75771441D01*
X122895448Y-75779552D01*
X122961769Y-75823867D01*
X123020252Y-75835500D01*
X126554890Y-75835500D01*
X126559748Y-75835500D01*
X126618231Y-75823867D01*
X126684552Y-75779552D01*
X126728867Y-75713231D01*
X126740500Y-75654748D01*
X126740500Y-73915252D01*
X126728867Y-73856769D01*
X126684552Y-73790448D01*
X126676441Y-73785028D01*
X126626340Y-73751551D01*
X126626338Y-73751550D01*
X126618231Y-73746133D01*
X126608667Y-73744230D01*
X126608666Y-73744230D01*
X126564511Y-73735447D01*
X126564506Y-73735446D01*
X126559748Y-73734500D01*
X123020252Y-73734500D01*
X123015494Y-73735446D01*
X123015488Y-73735447D01*
X122971331Y-73744230D01*
X122971326Y-73744231D01*
X122961769Y-73746133D01*
X122953664Y-73751548D01*
X122953660Y-73751550D01*
X122932192Y-73765894D01*
X122922539Y-73771581D01*
X122921550Y-73772090D01*
X122921531Y-73772101D01*
X122918454Y-73773686D01*
X122913173Y-73777421D01*
X122910813Y-73779643D01*
X122903600Y-73784985D01*
X122903553Y-73785031D01*
X122895448Y-73790448D01*
X122890031Y-73798554D01*
X122883139Y-73805447D01*
X122882991Y-73805299D01*
X122880645Y-73808071D01*
X122873928Y-73814400D01*
X122873921Y-73814406D01*
X122871400Y-73816783D01*
X122869231Y-73819492D01*
X122869228Y-73819496D01*
X122600903Y-74154720D01*
X122554481Y-74186920D01*
X122506988Y-74188236D01*
X122506762Y-74189956D01*
X122356434Y-74170165D01*
X122350000Y-74169318D01*
X122343566Y-74170165D01*
X122199673Y-74189108D01*
X122199666Y-74189109D01*
X122193238Y-74189956D01*
X122187243Y-74192439D01*
X122187240Y-74192440D01*
X122053154Y-74247980D01*
X122053149Y-74247982D01*
X122047159Y-74250464D01*
X122042015Y-74254411D01*
X122042010Y-74254414D01*
X121926871Y-74342763D01*
X121926866Y-74342767D01*
X121921718Y-74346718D01*
X121917767Y-74351866D01*
X121917763Y-74351871D01*
X121829414Y-74467010D01*
X121829411Y-74467015D01*
X121825464Y-74472159D01*
X121822982Y-74478149D01*
X121822980Y-74478154D01*
X121767440Y-74612240D01*
X121764956Y-74618238D01*
X121764109Y-74624666D01*
X121764108Y-74624673D01*
X121745165Y-74768566D01*
X121744318Y-74775000D01*
X113290500Y-74775000D01*
X113290500Y-73417858D01*
X113296896Y-73382852D01*
X113418613Y-73060864D01*
X113441256Y-73025825D01*
X113476322Y-73003226D01*
X113798621Y-72881852D01*
X113833512Y-72875500D01*
X120449166Y-72875500D01*
X120487052Y-72883036D01*
X120519170Y-72904496D01*
X120655460Y-73040786D01*
X120675690Y-73070062D01*
X120936530Y-73647963D01*
X120938488Y-73652301D01*
X120945772Y-73662588D01*
X120956435Y-73681904D01*
X120975464Y-73727841D01*
X120979413Y-73732988D01*
X120979414Y-73732989D01*
X121015065Y-73779451D01*
X121071718Y-73853282D01*
X121197159Y-73949536D01*
X121343238Y-74010044D01*
X121500000Y-74030682D01*
X121656762Y-74010044D01*
X121802841Y-73949536D01*
X121928282Y-73853282D01*
X122024536Y-73727841D01*
X122085044Y-73581762D01*
X122105682Y-73425000D01*
X122085044Y-73268238D01*
X122024536Y-73122159D01*
X122018849Y-73114748D01*
X122839500Y-73114748D01*
X122840446Y-73119506D01*
X122840447Y-73119511D01*
X122849230Y-73163666D01*
X122851133Y-73173231D01*
X122895448Y-73239552D01*
X122961769Y-73283867D01*
X123020252Y-73295500D01*
X126554890Y-73295500D01*
X126559748Y-73295500D01*
X126618231Y-73283867D01*
X126684552Y-73239552D01*
X126728867Y-73173231D01*
X126740500Y-73114748D01*
X126740500Y-71375252D01*
X126728867Y-71316769D01*
X126684552Y-71250448D01*
X126676441Y-71245028D01*
X126626340Y-71211551D01*
X126626338Y-71211550D01*
X126618231Y-71206133D01*
X126608667Y-71204230D01*
X126608666Y-71204230D01*
X126564511Y-71195447D01*
X126564506Y-71195446D01*
X126559748Y-71194500D01*
X123020252Y-71194500D01*
X123015494Y-71195446D01*
X123015488Y-71195447D01*
X122971333Y-71204230D01*
X122971330Y-71204231D01*
X122961769Y-71206133D01*
X122953663Y-71211549D01*
X122953659Y-71211551D01*
X122903558Y-71245028D01*
X122903555Y-71245030D01*
X122895448Y-71250448D01*
X122890030Y-71258555D01*
X122890028Y-71258558D01*
X122856551Y-71308659D01*
X122856549Y-71308663D01*
X122851133Y-71316769D01*
X122849231Y-71326330D01*
X122849230Y-71326333D01*
X122840447Y-71370488D01*
X122840446Y-71370494D01*
X122839500Y-71375252D01*
X122839500Y-73114748D01*
X122018849Y-73114748D01*
X121928282Y-72996718D01*
X121802841Y-72900464D01*
X121756904Y-72881435D01*
X121737588Y-72870772D01*
X121727301Y-72863488D01*
X121563976Y-72789770D01*
X121145062Y-72600690D01*
X121115786Y-72580460D01*
X120868268Y-72332942D01*
X120862433Y-72326573D01*
X120843025Y-72303443D01*
X120843021Y-72303440D01*
X120837455Y-72296806D01*
X120803793Y-72277371D01*
X120796512Y-72272732D01*
X120771781Y-72255415D01*
X120771779Y-72255414D01*
X120764684Y-72250446D01*
X120756317Y-72248204D01*
X120751031Y-72245739D01*
X120745544Y-72243741D01*
X120738045Y-72239412D01*
X120729519Y-72237908D01*
X120729515Y-72237907D01*
X120699778Y-72232664D01*
X120691349Y-72230795D01*
X120683473Y-72228684D01*
X120653807Y-72220736D01*
X120645184Y-72221490D01*
X120645180Y-72221490D01*
X120615095Y-72224123D01*
X120606466Y-72224500D01*
X113833830Y-72224500D01*
X113798689Y-72218053D01*
X113555610Y-72125759D01*
X113555608Y-72125758D01*
X113206064Y-71993043D01*
X113206061Y-71993042D01*
X113201607Y-71991351D01*
X113189022Y-71989183D01*
X113167945Y-71983085D01*
X113127750Y-71966436D01*
X113127748Y-71966435D01*
X113121762Y-71963956D01*
X113115337Y-71963110D01*
X113115333Y-71963109D01*
X112971434Y-71944165D01*
X112965000Y-71943318D01*
X112958566Y-71944165D01*
X112814673Y-71963108D01*
X112814666Y-71963109D01*
X112808238Y-71963956D01*
X112802243Y-71966439D01*
X112802240Y-71966440D01*
X112668154Y-72021980D01*
X112668149Y-72021982D01*
X112662159Y-72024464D01*
X112657015Y-72028411D01*
X112657010Y-72028414D01*
X112541871Y-72116763D01*
X112541866Y-72116767D01*
X112536718Y-72120718D01*
X112532767Y-72125866D01*
X112532763Y-72125871D01*
X112444414Y-72241010D01*
X112444411Y-72241015D01*
X112440464Y-72246159D01*
X112437982Y-72252149D01*
X112437980Y-72252154D01*
X112404517Y-72332942D01*
X112379956Y-72392238D01*
X112379109Y-72398666D01*
X112379108Y-72398673D01*
X112360165Y-72542566D01*
X112359318Y-72549000D01*
X112379956Y-72705762D01*
X112382436Y-72711751D01*
X112382437Y-72711752D01*
X112398980Y-72751691D01*
X112405099Y-72772892D01*
X112406421Y-72780627D01*
X112406423Y-72780635D01*
X112407224Y-72785320D01*
X112408905Y-72789768D01*
X112408906Y-72789770D01*
X112633104Y-73382852D01*
X112639500Y-73417858D01*
X112639500Y-75805141D01*
X112633104Y-75840147D01*
X112454919Y-76311511D01*
X112407224Y-76437680D01*
X112406424Y-76442356D01*
X112406421Y-76442370D01*
X112405099Y-76450108D01*
X112398980Y-76471305D01*
X112382438Y-76511242D01*
X112382435Y-76511252D01*
X112379956Y-76517238D01*
X112359318Y-76674000D01*
X112360165Y-76680434D01*
X112379108Y-76824326D01*
X112379109Y-76824331D01*
X112379956Y-76830762D01*
X112440464Y-76976841D01*
X112444413Y-76981988D01*
X112444414Y-76981989D01*
X112498612Y-77052622D01*
X112536718Y-77102282D01*
X112662159Y-77198536D01*
X112705664Y-77216556D01*
X112725984Y-77227941D01*
X112734818Y-77234363D01*
X112739081Y-77236361D01*
X112739083Y-77236362D01*
X113310464Y-77504142D01*
X113338456Y-77523782D01*
X120245504Y-84430830D01*
X120266964Y-84462948D01*
X120274500Y-84500834D01*
X120274500Y-87756141D01*
X120268104Y-87791146D01*
X120042224Y-88388680D01*
X120041424Y-88393356D01*
X120041421Y-88393370D01*
X120040099Y-88401108D01*
X120033980Y-88422305D01*
X120017438Y-88462242D01*
X120017435Y-88462252D01*
X120014956Y-88468238D01*
X120014109Y-88474666D01*
X120014109Y-88474669D01*
X120006101Y-88535500D01*
X119994318Y-88625000D01*
X119995165Y-88631433D01*
X119996303Y-88640080D01*
X119996902Y-88652510D01*
X119996985Y-88652508D01*
X119997106Y-88655969D01*
X119996987Y-88659416D01*
X119997347Y-88662842D01*
X119997348Y-88662851D01*
X120045216Y-89117538D01*
X120040084Y-89160942D01*
X120016764Y-89197907D01*
X115934213Y-93280459D01*
X115904937Y-93300689D01*
X115327039Y-93561528D01*
X115327032Y-93561531D01*
X115322696Y-93563489D01*
X115318816Y-93566236D01*
X115318808Y-93566241D01*
X115312410Y-93570772D01*
X115293094Y-93581435D01*
X115253154Y-93597979D01*
X115253143Y-93597984D01*
X115247159Y-93600464D01*
X115242015Y-93604411D01*
X115242010Y-93604414D01*
X115126871Y-93692763D01*
X115126866Y-93692767D01*
X115121718Y-93696718D01*
X115117767Y-93701866D01*
X115117763Y-93701871D01*
X115029414Y-93817010D01*
X115029411Y-93817015D01*
X115025464Y-93822159D01*
X115022984Y-93828143D01*
X115022979Y-93828154D01*
X115006435Y-93868094D01*
X114995772Y-93887410D01*
X114991241Y-93893808D01*
X114991236Y-93893816D01*
X114988489Y-93897696D01*
X114986531Y-93902032D01*
X114986528Y-93902039D01*
X114725689Y-94479937D01*
X114705459Y-94509213D01*
X109007940Y-100206732D01*
X109001574Y-100212564D01*
X108978442Y-100231974D01*
X108978434Y-100231982D01*
X108971806Y-100237545D01*
X108967477Y-100245042D01*
X108967475Y-100245045D01*
X108952370Y-100271206D01*
X108947734Y-100278483D01*
X108930414Y-100303219D01*
X108930411Y-100303223D01*
X108925446Y-100310316D01*
X108923205Y-100318678D01*
X108920737Y-100323971D01*
X108918739Y-100329459D01*
X108914412Y-100336955D01*
X108912909Y-100345475D01*
X108912906Y-100345485D01*
X108907662Y-100375224D01*
X108905795Y-100383649D01*
X108897976Y-100412830D01*
X108897975Y-100412834D01*
X108895736Y-100421193D01*
X108896490Y-100429814D01*
X108896490Y-100429819D01*
X108899123Y-100459905D01*
X108899500Y-100468534D01*
X108899500Y-105030959D01*
X108888445Y-105076420D01*
X108857749Y-105111728D01*
X108814267Y-105128997D01*
X108173324Y-105219002D01*
X108134024Y-105216615D01*
X108098762Y-105199098D01*
X107300849Y-104578257D01*
X107272388Y-104542952D01*
X107262655Y-104498660D01*
X107273690Y-104454680D01*
X107486542Y-104042764D01*
X107491898Y-104025814D01*
X107498087Y-104010704D01*
X107509951Y-103987420D01*
X107525500Y-103889246D01*
X107525500Y-103310754D01*
X107509951Y-103212580D01*
X107449658Y-103094249D01*
X107355751Y-103000342D01*
X107237420Y-102940049D01*
X107229726Y-102938830D01*
X107229725Y-102938830D01*
X107143092Y-102925109D01*
X107143090Y-102925108D01*
X107139246Y-102924500D01*
X106635754Y-102924500D01*
X106631910Y-102925108D01*
X106631907Y-102925109D01*
X106545274Y-102938830D01*
X106545271Y-102938830D01*
X106537580Y-102940049D01*
X106530642Y-102943583D01*
X106530639Y-102943585D01*
X106426188Y-102996806D01*
X106426186Y-102996807D01*
X106419249Y-103000342D01*
X106413745Y-103005845D01*
X106413742Y-103005848D01*
X106330848Y-103088742D01*
X106330845Y-103088745D01*
X106325342Y-103094249D01*
X106321807Y-103101186D01*
X106321806Y-103101188D01*
X106268585Y-103205639D01*
X106268583Y-103205642D01*
X106265049Y-103212580D01*
X106263830Y-103220271D01*
X106263830Y-103220274D01*
X106250109Y-103306907D01*
X106249500Y-103310754D01*
X106249500Y-103889246D01*
X105950500Y-103889246D01*
X105950500Y-103310754D01*
X105934951Y-103212580D01*
X105874658Y-103094249D01*
X105780751Y-103000342D01*
X105662420Y-102940049D01*
X105654726Y-102938830D01*
X105654725Y-102938830D01*
X105568092Y-102925109D01*
X105568090Y-102925108D01*
X105564246Y-102924500D01*
X105060754Y-102924500D01*
X105056910Y-102925108D01*
X105056907Y-102925109D01*
X104970274Y-102938830D01*
X104970271Y-102938830D01*
X104962580Y-102940049D01*
X104955642Y-102943583D01*
X104955639Y-102943585D01*
X104851190Y-102996805D01*
X104851188Y-102996806D01*
X104844249Y-103000342D01*
X104839312Y-103005278D01*
X104832645Y-103009606D01*
X104396750Y-103261239D01*
X104347257Y-103274500D01*
X103501890Y-103274500D01*
X103472971Y-103270182D01*
X103466167Y-103268104D01*
X102991017Y-103122980D01*
X102877596Y-103088338D01*
X102877595Y-103088337D01*
X102873238Y-103087007D01*
X102868708Y-103086495D01*
X102864247Y-103085571D01*
X102864297Y-103085328D01*
X102842137Y-103079608D01*
X102812762Y-103067440D01*
X102812753Y-103067437D01*
X102806762Y-103064956D01*
X102800331Y-103064109D01*
X102800326Y-103064108D01*
X102656434Y-103045165D01*
X102650000Y-103044318D01*
X102643566Y-103045165D01*
X102499673Y-103064108D01*
X102499666Y-103064109D01*
X102493238Y-103064956D01*
X102487243Y-103067439D01*
X102487240Y-103067440D01*
X102353154Y-103122980D01*
X102353149Y-103122982D01*
X102347159Y-103125464D01*
X102342015Y-103129411D01*
X102342010Y-103129414D01*
X102226871Y-103217763D01*
X102226866Y-103217767D01*
X102221718Y-103221718D01*
X102217767Y-103226866D01*
X102217763Y-103226871D01*
X102129414Y-103342010D01*
X102129411Y-103342015D01*
X102125464Y-103347159D01*
X102122982Y-103353149D01*
X102122980Y-103353154D01*
X102071735Y-103476871D01*
X102064956Y-103493238D01*
X102064109Y-103499666D01*
X102064108Y-103499673D01*
X102045165Y-103643566D01*
X102044318Y-103650000D01*
X100200500Y-103650000D01*
X100200500Y-101054748D01*
X103259500Y-101054748D01*
X103271133Y-101113231D01*
X103315448Y-101179552D01*
X103381769Y-101223867D01*
X103440252Y-101235500D01*
X106974890Y-101235500D01*
X106979748Y-101235500D01*
X107038231Y-101223867D01*
X107104552Y-101179552D01*
X107148867Y-101113231D01*
X107160500Y-101054748D01*
X107160500Y-99315252D01*
X107148867Y-99256769D01*
X107104552Y-99190448D01*
X107096441Y-99185028D01*
X107046340Y-99151551D01*
X107046338Y-99151550D01*
X107038231Y-99146133D01*
X107028667Y-99144230D01*
X107028666Y-99144230D01*
X106984511Y-99135447D01*
X106984506Y-99135446D01*
X106979748Y-99134500D01*
X103440252Y-99134500D01*
X103435494Y-99135446D01*
X103435488Y-99135447D01*
X103391333Y-99144230D01*
X103391330Y-99144231D01*
X103381769Y-99146133D01*
X103373663Y-99151549D01*
X103373659Y-99151551D01*
X103323558Y-99185028D01*
X103323555Y-99185030D01*
X103315448Y-99190448D01*
X103310030Y-99198555D01*
X103310028Y-99198558D01*
X103276551Y-99248659D01*
X103276549Y-99248663D01*
X103271133Y-99256769D01*
X103269231Y-99266330D01*
X103269230Y-99266333D01*
X103260447Y-99310488D01*
X103260446Y-99310494D01*
X103259500Y-99315252D01*
X103259500Y-101054748D01*
X100200500Y-101054748D01*
X100200500Y-98514748D01*
X103259500Y-98514748D01*
X103260446Y-98519506D01*
X103260447Y-98519511D01*
X103269230Y-98563666D01*
X103271133Y-98573231D01*
X103276550Y-98581338D01*
X103276551Y-98581340D01*
X103288466Y-98599171D01*
X103315448Y-98639552D01*
X103381769Y-98683867D01*
X103440252Y-98695500D01*
X106955199Y-98695500D01*
X106957010Y-98695881D01*
X106959132Y-98695500D01*
X106979748Y-98695500D01*
X107038231Y-98683867D01*
X107098514Y-98643585D01*
X107100679Y-98642180D01*
X107109102Y-98636870D01*
X107505789Y-98263515D01*
X107543240Y-98241392D01*
X107586559Y-98237456D01*
X107725000Y-98255682D01*
X107881762Y-98235044D01*
X108027841Y-98174536D01*
X108153282Y-98078282D01*
X108249536Y-97952841D01*
X108310044Y-97806762D01*
X108330682Y-97650000D01*
X108310044Y-97493238D01*
X108249536Y-97347159D01*
X108153282Y-97221718D01*
X108027841Y-97125464D01*
X108021847Y-97122981D01*
X108021845Y-97122980D01*
X107887759Y-97067440D01*
X107887758Y-97067439D01*
X107881762Y-97064956D01*
X107875331Y-97064109D01*
X107875326Y-97064108D01*
X107731434Y-97045165D01*
X107725000Y-97044318D01*
X107718566Y-97045165D01*
X107718565Y-97045165D01*
X107589772Y-97062120D01*
X107546212Y-97058107D01*
X107508634Y-97035713D01*
X107113311Y-96659834D01*
X107113305Y-96659829D01*
X107109852Y-96656546D01*
X107107718Y-96655186D01*
X107104552Y-96650448D01*
X107052012Y-96615341D01*
X107046340Y-96611551D01*
X107046338Y-96611550D01*
X107038231Y-96606133D01*
X107028667Y-96604230D01*
X107028666Y-96604230D01*
X106984511Y-96595447D01*
X106984506Y-96595446D01*
X106979748Y-96594500D01*
X103440252Y-96594500D01*
X103435494Y-96595446D01*
X103435488Y-96595447D01*
X103391333Y-96604230D01*
X103391330Y-96604231D01*
X103381769Y-96606133D01*
X103373663Y-96611549D01*
X103373659Y-96611551D01*
X103323558Y-96645028D01*
X103323555Y-96645030D01*
X103315448Y-96650448D01*
X103310030Y-96658555D01*
X103310028Y-96658558D01*
X103276551Y-96708659D01*
X103276549Y-96708663D01*
X103271133Y-96716769D01*
X103269231Y-96726330D01*
X103269230Y-96726333D01*
X103260447Y-96770488D01*
X103260446Y-96770494D01*
X103259500Y-96775252D01*
X103259500Y-98514748D01*
X100200500Y-98514748D01*
X100200500Y-95969840D01*
X103260000Y-95969840D01*
X103260947Y-95979461D01*
X103269701Y-96023473D01*
X103277020Y-96041142D01*
X103310389Y-96091082D01*
X103323917Y-96104610D01*
X103373857Y-96137979D01*
X103391526Y-96145298D01*
X103435538Y-96154052D01*
X103445160Y-96155000D01*
X105096967Y-96155000D01*
X105107245Y-96152245D01*
X105110000Y-96141967D01*
X105310000Y-96141967D01*
X105312754Y-96152245D01*
X105323033Y-96155000D01*
X106974840Y-96155000D01*
X106984461Y-96154052D01*
X107028473Y-96145298D01*
X107046142Y-96137979D01*
X107096082Y-96104610D01*
X107109610Y-96091082D01*
X107142979Y-96041142D01*
X107150298Y-96023473D01*
X107159052Y-95979461D01*
X107160000Y-95969840D01*
X107160000Y-95218033D01*
X107157245Y-95207754D01*
X107146967Y-95205000D01*
X105323033Y-95205000D01*
X105312754Y-95207754D01*
X105310000Y-95218033D01*
X105310000Y-96141967D01*
X105110000Y-96141967D01*
X105110000Y-95218033D01*
X105107245Y-95207754D01*
X105096967Y-95205000D01*
X103273033Y-95205000D01*
X103262754Y-95207754D01*
X103260000Y-95218033D01*
X103260000Y-95969840D01*
X100200500Y-95969840D01*
X100200500Y-94991967D01*
X103260000Y-94991967D01*
X103262754Y-95002245D01*
X103273033Y-95005000D01*
X105096967Y-95005000D01*
X105107245Y-95002245D01*
X105110000Y-94991967D01*
X105310000Y-94991967D01*
X105312754Y-95002245D01*
X105323033Y-95005000D01*
X107146967Y-95005000D01*
X107157245Y-95002245D01*
X107160000Y-94991967D01*
X107160000Y-94240160D01*
X107159052Y-94230538D01*
X107150298Y-94186526D01*
X107142979Y-94168857D01*
X107109610Y-94118917D01*
X107096082Y-94105389D01*
X107046142Y-94072020D01*
X107028473Y-94064701D01*
X106984461Y-94055947D01*
X106974840Y-94055000D01*
X105323033Y-94055000D01*
X105312754Y-94057754D01*
X105310000Y-94068033D01*
X105310000Y-94991967D01*
X105110000Y-94991967D01*
X105110000Y-94068033D01*
X105107245Y-94057754D01*
X105096967Y-94055000D01*
X103445160Y-94055000D01*
X103435538Y-94055947D01*
X103391526Y-94064701D01*
X103373857Y-94072020D01*
X103323917Y-94105389D01*
X103310389Y-94118917D01*
X103277020Y-94168857D01*
X103269701Y-94186526D01*
X103260947Y-94230538D01*
X103260000Y-94240160D01*
X103260000Y-94991967D01*
X100200500Y-94991967D01*
X100200500Y-93434748D01*
X103259500Y-93434748D01*
X103271133Y-93493231D01*
X103315448Y-93559552D01*
X103381769Y-93603867D01*
X103440252Y-93615500D01*
X106974890Y-93615500D01*
X106979748Y-93615500D01*
X107038231Y-93603867D01*
X107104552Y-93559552D01*
X107148867Y-93493231D01*
X107160500Y-93434748D01*
X107160500Y-91695252D01*
X107148867Y-91636769D01*
X107104552Y-91570448D01*
X107096441Y-91565028D01*
X107046340Y-91531551D01*
X107046338Y-91531550D01*
X107038231Y-91526133D01*
X107028667Y-91524230D01*
X107028666Y-91524230D01*
X106984511Y-91515447D01*
X106984506Y-91515446D01*
X106979748Y-91514500D01*
X103440252Y-91514500D01*
X103435494Y-91515446D01*
X103435488Y-91515447D01*
X103391333Y-91524230D01*
X103391330Y-91524231D01*
X103381769Y-91526133D01*
X103373663Y-91531549D01*
X103373659Y-91531551D01*
X103323558Y-91565028D01*
X103323555Y-91565030D01*
X103315448Y-91570448D01*
X103310030Y-91578555D01*
X103310028Y-91578558D01*
X103276551Y-91628659D01*
X103276549Y-91628663D01*
X103271133Y-91636769D01*
X103269231Y-91646330D01*
X103269230Y-91646333D01*
X103260447Y-91690488D01*
X103260446Y-91690494D01*
X103259500Y-91695252D01*
X103259500Y-93434748D01*
X100200500Y-93434748D01*
X100200500Y-90894748D01*
X103259500Y-90894748D01*
X103271133Y-90953231D01*
X103315448Y-91019552D01*
X103381769Y-91063867D01*
X103440252Y-91075500D01*
X106974890Y-91075500D01*
X106979748Y-91075500D01*
X107038231Y-91063867D01*
X107104552Y-91019552D01*
X107148867Y-90953231D01*
X107160500Y-90894748D01*
X107160500Y-89155252D01*
X107148867Y-89096769D01*
X107104552Y-89030448D01*
X107096441Y-89025028D01*
X107046340Y-88991551D01*
X107046338Y-88991550D01*
X107038231Y-88986133D01*
X107028667Y-88984230D01*
X107028666Y-88984230D01*
X106984511Y-88975447D01*
X106984506Y-88975446D01*
X106979748Y-88974500D01*
X103440252Y-88974500D01*
X103435494Y-88975446D01*
X103435488Y-88975447D01*
X103391333Y-88984230D01*
X103391330Y-88984231D01*
X103381769Y-88986133D01*
X103373663Y-88991549D01*
X103373659Y-88991551D01*
X103323558Y-89025028D01*
X103323555Y-89025030D01*
X103315448Y-89030448D01*
X103310030Y-89038555D01*
X103310028Y-89038558D01*
X103276551Y-89088659D01*
X103276549Y-89088663D01*
X103271133Y-89096769D01*
X103269231Y-89106330D01*
X103269230Y-89106333D01*
X103260447Y-89150488D01*
X103260446Y-89150494D01*
X103259500Y-89155252D01*
X103259500Y-90894748D01*
X100200500Y-90894748D01*
X100200500Y-88354748D01*
X103259500Y-88354748D01*
X103260446Y-88359506D01*
X103260447Y-88359511D01*
X103269230Y-88403666D01*
X103271133Y-88413231D01*
X103276550Y-88421338D01*
X103276551Y-88421340D01*
X103307888Y-88468238D01*
X103315448Y-88479552D01*
X103381769Y-88523867D01*
X103440252Y-88535500D01*
X106974890Y-88535500D01*
X106979748Y-88535500D01*
X107038231Y-88523867D01*
X107104552Y-88479552D01*
X107148867Y-88413231D01*
X107160500Y-88354748D01*
X107160500Y-86615252D01*
X107148867Y-86556769D01*
X107104552Y-86490448D01*
X107096441Y-86485028D01*
X107046340Y-86451551D01*
X107046338Y-86451550D01*
X107038231Y-86446133D01*
X107028667Y-86444230D01*
X107028666Y-86444230D01*
X106984511Y-86435447D01*
X106984506Y-86435446D01*
X106979748Y-86434500D01*
X103440252Y-86434500D01*
X103435494Y-86435446D01*
X103435488Y-86435447D01*
X103391333Y-86444230D01*
X103391330Y-86444231D01*
X103381769Y-86446133D01*
X103373663Y-86451549D01*
X103373659Y-86451551D01*
X103323558Y-86485028D01*
X103323555Y-86485030D01*
X103315448Y-86490448D01*
X103310030Y-86498555D01*
X103310028Y-86498558D01*
X103276551Y-86548659D01*
X103276549Y-86548663D01*
X103271133Y-86556769D01*
X103269231Y-86566330D01*
X103269230Y-86566333D01*
X103260447Y-86610488D01*
X103260446Y-86610494D01*
X103259500Y-86615252D01*
X103259500Y-88354748D01*
X100200500Y-88354748D01*
X100200500Y-85814748D01*
X103259500Y-85814748D01*
X103271133Y-85873231D01*
X103315448Y-85939552D01*
X103381769Y-85983867D01*
X103440252Y-85995500D01*
X106974890Y-85995500D01*
X106979748Y-85995500D01*
X107038231Y-85983867D01*
X107104552Y-85939552D01*
X107148867Y-85873231D01*
X107160500Y-85814748D01*
X107160500Y-84075252D01*
X107148867Y-84016769D01*
X107104552Y-83950448D01*
X107090076Y-83940775D01*
X107046340Y-83911551D01*
X107046338Y-83911550D01*
X107038231Y-83906133D01*
X107028667Y-83904230D01*
X107028666Y-83904230D01*
X106984511Y-83895447D01*
X106984506Y-83895446D01*
X106979748Y-83894500D01*
X103440252Y-83894500D01*
X103435494Y-83895446D01*
X103435488Y-83895447D01*
X103391333Y-83904230D01*
X103391330Y-83904231D01*
X103381769Y-83906133D01*
X103373663Y-83911549D01*
X103373659Y-83911551D01*
X103323558Y-83945028D01*
X103323555Y-83945030D01*
X103315448Y-83950448D01*
X103310030Y-83958555D01*
X103310028Y-83958558D01*
X103276551Y-84008659D01*
X103276549Y-84008663D01*
X103271133Y-84016769D01*
X103269231Y-84026330D01*
X103269230Y-84026333D01*
X103260447Y-84070488D01*
X103260446Y-84070494D01*
X103259500Y-84075252D01*
X103259500Y-85814748D01*
X100200500Y-85814748D01*
X100200500Y-83269840D01*
X103260000Y-83269840D01*
X103260947Y-83279461D01*
X103269701Y-83323473D01*
X103277020Y-83341142D01*
X103310389Y-83391082D01*
X103323917Y-83404610D01*
X103373857Y-83437979D01*
X103391526Y-83445298D01*
X103435538Y-83454052D01*
X103445160Y-83455000D01*
X105096967Y-83455000D01*
X105107245Y-83452245D01*
X105110000Y-83441967D01*
X105310000Y-83441967D01*
X105312754Y-83452245D01*
X105323033Y-83455000D01*
X106974840Y-83455000D01*
X106984461Y-83454052D01*
X107028473Y-83445298D01*
X107046142Y-83437979D01*
X107096082Y-83404610D01*
X107109610Y-83391082D01*
X107142979Y-83341142D01*
X107150298Y-83323473D01*
X107159052Y-83279461D01*
X107160000Y-83269840D01*
X107160000Y-82518033D01*
X107157245Y-82507754D01*
X107146967Y-82505000D01*
X105323033Y-82505000D01*
X105312754Y-82507754D01*
X105310000Y-82518033D01*
X105310000Y-83441967D01*
X105110000Y-83441967D01*
X105110000Y-82518033D01*
X105107245Y-82507754D01*
X105096967Y-82505000D01*
X103273033Y-82505000D01*
X103262754Y-82507754D01*
X103260000Y-82518033D01*
X103260000Y-83269840D01*
X100200500Y-83269840D01*
X100200500Y-82291967D01*
X103260000Y-82291967D01*
X103262754Y-82302245D01*
X103273033Y-82305000D01*
X105096967Y-82305000D01*
X105107245Y-82302245D01*
X105110000Y-82291967D01*
X105310000Y-82291967D01*
X105312754Y-82302245D01*
X105323033Y-82305000D01*
X107146967Y-82305000D01*
X107157245Y-82302245D01*
X107160000Y-82291967D01*
X107160000Y-81540160D01*
X107159052Y-81530538D01*
X107150298Y-81486526D01*
X107142979Y-81468857D01*
X107109610Y-81418917D01*
X107096082Y-81405389D01*
X107046142Y-81372020D01*
X107028473Y-81364701D01*
X106984461Y-81355947D01*
X106974840Y-81355000D01*
X105323033Y-81355000D01*
X105312754Y-81357754D01*
X105310000Y-81368033D01*
X105310000Y-82291967D01*
X105110000Y-82291967D01*
X105110000Y-81368033D01*
X105107245Y-81357754D01*
X105096967Y-81355000D01*
X103445160Y-81355000D01*
X103435538Y-81355947D01*
X103391526Y-81364701D01*
X103373857Y-81372020D01*
X103323917Y-81405389D01*
X103310389Y-81418917D01*
X103277020Y-81468857D01*
X103269701Y-81486526D01*
X103260947Y-81530538D01*
X103260000Y-81540160D01*
X103260000Y-82291967D01*
X100200500Y-82291967D01*
X100200500Y-80734748D01*
X103259500Y-80734748D01*
X103271133Y-80793231D01*
X103315448Y-80859552D01*
X103381769Y-80903867D01*
X103440252Y-80915500D01*
X106974890Y-80915500D01*
X106979748Y-80915500D01*
X107038231Y-80903867D01*
X107104552Y-80859552D01*
X107109971Y-80851441D01*
X107116864Y-80844548D01*
X107117221Y-80844905D01*
X107123128Y-80838227D01*
X107599028Y-80428097D01*
X107641763Y-80406543D01*
X107688009Y-80407521D01*
X107688679Y-80407775D01*
X107701092Y-80409895D01*
X107722305Y-80416017D01*
X107768238Y-80435044D01*
X107925000Y-80455682D01*
X108081762Y-80435044D01*
X108227841Y-80374536D01*
X108353282Y-80278282D01*
X108449536Y-80152841D01*
X108510044Y-80006762D01*
X108530682Y-79850000D01*
X108510044Y-79693238D01*
X108449536Y-79547159D01*
X108353282Y-79421718D01*
X108227841Y-79325464D01*
X108221847Y-79322981D01*
X108221845Y-79322980D01*
X108087759Y-79267440D01*
X108087758Y-79267439D01*
X108081762Y-79264956D01*
X108075331Y-79264109D01*
X108075326Y-79264108D01*
X107931434Y-79245165D01*
X107925000Y-79244318D01*
X107918566Y-79245165D01*
X107774669Y-79264109D01*
X107774666Y-79264109D01*
X107768238Y-79264956D01*
X107762252Y-79267435D01*
X107762242Y-79267438D01*
X107722305Y-79283980D01*
X107701108Y-79290099D01*
X107693362Y-79291423D01*
X107693354Y-79291424D01*
X107688680Y-79292224D01*
X107684245Y-79293900D01*
X107681391Y-79294676D01*
X107634284Y-79295854D01*
X107591968Y-79275121D01*
X107103465Y-78867077D01*
X107103464Y-78867076D01*
X107099944Y-78864136D01*
X107073350Y-78849234D01*
X107066747Y-78845187D01*
X107046339Y-78831551D01*
X107046340Y-78831551D01*
X107038231Y-78826133D01*
X107028667Y-78824230D01*
X107028666Y-78824230D01*
X106984511Y-78815447D01*
X106984506Y-78815446D01*
X106979748Y-78814500D01*
X106974890Y-78814500D01*
X106962136Y-78814500D01*
X106955655Y-78814500D01*
X106951047Y-78813848D01*
X106948342Y-78814479D01*
X106948256Y-78814460D01*
X106948256Y-78814500D01*
X103440252Y-78814500D01*
X103435494Y-78815446D01*
X103435488Y-78815447D01*
X103391333Y-78824230D01*
X103391330Y-78824231D01*
X103381769Y-78826133D01*
X103373663Y-78831549D01*
X103373659Y-78831551D01*
X103323558Y-78865028D01*
X103323555Y-78865030D01*
X103315448Y-78870448D01*
X103310030Y-78878555D01*
X103310028Y-78878558D01*
X103276551Y-78928659D01*
X103276549Y-78928663D01*
X103271133Y-78936769D01*
X103269231Y-78946330D01*
X103269230Y-78946333D01*
X103260447Y-78990488D01*
X103260446Y-78990494D01*
X103259500Y-78995252D01*
X103259500Y-80734748D01*
X100200500Y-80734748D01*
X100200500Y-78194748D01*
X103259500Y-78194748D01*
X103271133Y-78253231D01*
X103315448Y-78319552D01*
X103381769Y-78363867D01*
X103440252Y-78375500D01*
X106949382Y-78375500D01*
X106952082Y-78376120D01*
X106956268Y-78375500D01*
X106979748Y-78375500D01*
X107038231Y-78363867D01*
X107069538Y-78342946D01*
X107075337Y-78339356D01*
X107101576Y-78324341D01*
X107603746Y-77896018D01*
X107651013Y-77873808D01*
X107703001Y-77878738D01*
X107713679Y-77882775D01*
X107726092Y-77884895D01*
X107747305Y-77891017D01*
X107793238Y-77910044D01*
X107950000Y-77930682D01*
X108106762Y-77910044D01*
X108252841Y-77849536D01*
X108378282Y-77753282D01*
X108474536Y-77627841D01*
X108535044Y-77481762D01*
X108555682Y-77325000D01*
X108535044Y-77168238D01*
X108474536Y-77022159D01*
X108378282Y-76896718D01*
X108252841Y-76800464D01*
X108246847Y-76797981D01*
X108246845Y-76797980D01*
X108112759Y-76742440D01*
X108112758Y-76742439D01*
X108106762Y-76739956D01*
X108100331Y-76739109D01*
X108100326Y-76739108D01*
X107956434Y-76720165D01*
X107950000Y-76719318D01*
X107943566Y-76720165D01*
X107799669Y-76739109D01*
X107799666Y-76739109D01*
X107793238Y-76739956D01*
X107787252Y-76742435D01*
X107787242Y-76742438D01*
X107747305Y-76758980D01*
X107726108Y-76765099D01*
X107718370Y-76766421D01*
X107718356Y-76766424D01*
X107713680Y-76767224D01*
X107709237Y-76768903D01*
X107709224Y-76768907D01*
X107702992Y-76771263D01*
X107651007Y-76776188D01*
X107603747Y-76753979D01*
X107105087Y-76328651D01*
X107105082Y-76328647D01*
X107101576Y-76325657D01*
X107075341Y-76310643D01*
X107069510Y-76307033D01*
X107046340Y-76291551D01*
X107046338Y-76291550D01*
X107038231Y-76286133D01*
X107028667Y-76284230D01*
X107028666Y-76284230D01*
X106984511Y-76275447D01*
X106984506Y-76275446D01*
X106979748Y-76274500D01*
X106974890Y-76274500D01*
X106962729Y-76274500D01*
X106956275Y-76274500D01*
X106952081Y-76273879D01*
X106949376Y-76274500D01*
X103440252Y-76274500D01*
X103435494Y-76275446D01*
X103435488Y-76275447D01*
X103391333Y-76284230D01*
X103391330Y-76284231D01*
X103381769Y-76286133D01*
X103373663Y-76291549D01*
X103373659Y-76291551D01*
X103323558Y-76325028D01*
X103323555Y-76325030D01*
X103315448Y-76330448D01*
X103310030Y-76338555D01*
X103310028Y-76338558D01*
X103276551Y-76388659D01*
X103276549Y-76388663D01*
X103271133Y-76396769D01*
X103269231Y-76406330D01*
X103269230Y-76406333D01*
X103260447Y-76450488D01*
X103260446Y-76450494D01*
X103259500Y-76455252D01*
X103259500Y-78194748D01*
X100200500Y-78194748D01*
X100200500Y-75654748D01*
X103259500Y-75654748D01*
X103271133Y-75713231D01*
X103276550Y-75721338D01*
X103276551Y-75721340D01*
X103306461Y-75766102D01*
X103315448Y-75779552D01*
X103381769Y-75823867D01*
X103440252Y-75835500D01*
X106974890Y-75835500D01*
X106979748Y-75835500D01*
X107038231Y-75823867D01*
X107104552Y-75779552D01*
X107148867Y-75713231D01*
X107160500Y-75654748D01*
X107160500Y-73915252D01*
X107148867Y-73856769D01*
X107104552Y-73790448D01*
X107096441Y-73785028D01*
X107046340Y-73751551D01*
X107046338Y-73751550D01*
X107038231Y-73746133D01*
X107028667Y-73744230D01*
X107028666Y-73744230D01*
X106984511Y-73735447D01*
X106984506Y-73735446D01*
X106979748Y-73734500D01*
X103440252Y-73734500D01*
X103435494Y-73735446D01*
X103435488Y-73735447D01*
X103391333Y-73744230D01*
X103391330Y-73744231D01*
X103381769Y-73746133D01*
X103373663Y-73751549D01*
X103373659Y-73751551D01*
X103323558Y-73785028D01*
X103323555Y-73785030D01*
X103315448Y-73790448D01*
X103310030Y-73798555D01*
X103310028Y-73798558D01*
X103276551Y-73848659D01*
X103276549Y-73848663D01*
X103271133Y-73856769D01*
X103269231Y-73866330D01*
X103269230Y-73866333D01*
X103260447Y-73910488D01*
X103260446Y-73910494D01*
X103259500Y-73915252D01*
X103259500Y-75654748D01*
X100200500Y-75654748D01*
X100200500Y-73114748D01*
X103259500Y-73114748D01*
X103260446Y-73119506D01*
X103260447Y-73119511D01*
X103269230Y-73163666D01*
X103271133Y-73173231D01*
X103315448Y-73239552D01*
X103381769Y-73283867D01*
X103440252Y-73295500D01*
X106974890Y-73295500D01*
X106979748Y-73295500D01*
X107038231Y-73283867D01*
X107104552Y-73239552D01*
X107148867Y-73173231D01*
X107160500Y-73114748D01*
X107160500Y-71375252D01*
X107148867Y-71316769D01*
X107104552Y-71250448D01*
X107096441Y-71245028D01*
X107046340Y-71211551D01*
X107046338Y-71211550D01*
X107038231Y-71206133D01*
X107028667Y-71204230D01*
X107028666Y-71204230D01*
X106984511Y-71195447D01*
X106984506Y-71195446D01*
X106979748Y-71194500D01*
X103440252Y-71194500D01*
X103435494Y-71195446D01*
X103435488Y-71195447D01*
X103391333Y-71204230D01*
X103391330Y-71204231D01*
X103381769Y-71206133D01*
X103373663Y-71211549D01*
X103373659Y-71211551D01*
X103323558Y-71245028D01*
X103323555Y-71245030D01*
X103315448Y-71250448D01*
X103310030Y-71258555D01*
X103310028Y-71258558D01*
X103276551Y-71308659D01*
X103276549Y-71308663D01*
X103271133Y-71316769D01*
X103269231Y-71326330D01*
X103269230Y-71326333D01*
X103260447Y-71370488D01*
X103260446Y-71370494D01*
X103259500Y-71375252D01*
X103259500Y-73114748D01*
X100200500Y-73114748D01*
X100200500Y-70569840D01*
X103260000Y-70569840D01*
X103260947Y-70579461D01*
X103269701Y-70623473D01*
X103277020Y-70641142D01*
X103310389Y-70691082D01*
X103323917Y-70704610D01*
X103373857Y-70737979D01*
X103391526Y-70745298D01*
X103435538Y-70754052D01*
X103445160Y-70755000D01*
X105096967Y-70755000D01*
X105107245Y-70752245D01*
X105110000Y-70741967D01*
X105310000Y-70741967D01*
X105312754Y-70752245D01*
X105323033Y-70755000D01*
X106974840Y-70755000D01*
X106984461Y-70754052D01*
X107028473Y-70745298D01*
X107046142Y-70737979D01*
X107096082Y-70704610D01*
X107109610Y-70691082D01*
X107142979Y-70641142D01*
X107150298Y-70623473D01*
X107159052Y-70579461D01*
X107160000Y-70569840D01*
X122840000Y-70569840D01*
X122840947Y-70579461D01*
X122849701Y-70623473D01*
X122857020Y-70641142D01*
X122890389Y-70691082D01*
X122903917Y-70704610D01*
X122953857Y-70737979D01*
X122971526Y-70745298D01*
X123015538Y-70754052D01*
X123025160Y-70755000D01*
X124676967Y-70755000D01*
X124687245Y-70752245D01*
X124690000Y-70741967D01*
X124890000Y-70741967D01*
X124892754Y-70752245D01*
X124903033Y-70755000D01*
X126554840Y-70755000D01*
X126564461Y-70754052D01*
X126608473Y-70745298D01*
X126626142Y-70737979D01*
X126676082Y-70704610D01*
X126689610Y-70691082D01*
X126722979Y-70641142D01*
X126730298Y-70623473D01*
X126739052Y-70579461D01*
X126740000Y-70569840D01*
X126740000Y-69818033D01*
X126737245Y-69807754D01*
X126726967Y-69805000D01*
X124903033Y-69805000D01*
X124892754Y-69807754D01*
X124890000Y-69818033D01*
X124890000Y-70741967D01*
X124690000Y-70741967D01*
X124690000Y-69818033D01*
X124687245Y-69807754D01*
X124676967Y-69805000D01*
X122853033Y-69805000D01*
X122842754Y-69807754D01*
X122840000Y-69818033D01*
X122840000Y-70569840D01*
X107160000Y-70569840D01*
X107160000Y-69818033D01*
X107157245Y-69807754D01*
X107146967Y-69805000D01*
X105323033Y-69805000D01*
X105312754Y-69807754D01*
X105310000Y-69818033D01*
X105310000Y-70741967D01*
X105110000Y-70741967D01*
X105110000Y-69818033D01*
X105107245Y-69807754D01*
X105096967Y-69805000D01*
X103273033Y-69805000D01*
X103262754Y-69807754D01*
X103260000Y-69818033D01*
X103260000Y-70569840D01*
X100200500Y-70569840D01*
X100200500Y-69591967D01*
X103260000Y-69591967D01*
X103262754Y-69602245D01*
X103273033Y-69605000D01*
X105096967Y-69605000D01*
X105107245Y-69602245D01*
X105110000Y-69591967D01*
X105310000Y-69591967D01*
X105312754Y-69602245D01*
X105323033Y-69605000D01*
X107146967Y-69605000D01*
X107157245Y-69602245D01*
X107160000Y-69591967D01*
X122840000Y-69591967D01*
X122842754Y-69602245D01*
X122853033Y-69605000D01*
X124676967Y-69605000D01*
X124687245Y-69602245D01*
X124690000Y-69591967D01*
X124890000Y-69591967D01*
X124892754Y-69602245D01*
X124903033Y-69605000D01*
X126726967Y-69605000D01*
X126737245Y-69602245D01*
X126740000Y-69591967D01*
X126740000Y-68840160D01*
X126739052Y-68830538D01*
X126730298Y-68786526D01*
X126722979Y-68768857D01*
X126689610Y-68718917D01*
X126676082Y-68705389D01*
X126626142Y-68672020D01*
X126608473Y-68664701D01*
X126564461Y-68655947D01*
X126554840Y-68655000D01*
X124903033Y-68655000D01*
X124892754Y-68657754D01*
X124890000Y-68668033D01*
X124890000Y-69591967D01*
X124690000Y-69591967D01*
X124690000Y-68668033D01*
X124687245Y-68657754D01*
X124676967Y-68655000D01*
X123025160Y-68655000D01*
X123015538Y-68655947D01*
X122971526Y-68664701D01*
X122953857Y-68672020D01*
X122903917Y-68705389D01*
X122890389Y-68718917D01*
X122857020Y-68768857D01*
X122849701Y-68786526D01*
X122840947Y-68830538D01*
X122840000Y-68840160D01*
X122840000Y-69591967D01*
X107160000Y-69591967D01*
X107160000Y-68840160D01*
X107159052Y-68830538D01*
X107150298Y-68786526D01*
X107142979Y-68768857D01*
X107109610Y-68718917D01*
X107096082Y-68705389D01*
X107046142Y-68672020D01*
X107028473Y-68664701D01*
X106984461Y-68655947D01*
X106974840Y-68655000D01*
X105323033Y-68655000D01*
X105312754Y-68657754D01*
X105310000Y-68668033D01*
X105310000Y-69591967D01*
X105110000Y-69591967D01*
X105110000Y-68668033D01*
X105107245Y-68657754D01*
X105096967Y-68655000D01*
X103445160Y-68655000D01*
X103435538Y-68655947D01*
X103391526Y-68664701D01*
X103373857Y-68672020D01*
X103323917Y-68705389D01*
X103310389Y-68718917D01*
X103277020Y-68768857D01*
X103269701Y-68786526D01*
X103260947Y-68830538D01*
X103260000Y-68840160D01*
X103260000Y-69591967D01*
X100200500Y-69591967D01*
X100200500Y-68034748D01*
X103259500Y-68034748D01*
X103271133Y-68093231D01*
X103315448Y-68159552D01*
X103381769Y-68203867D01*
X103440252Y-68215500D01*
X106974890Y-68215500D01*
X106979748Y-68215500D01*
X107038231Y-68203867D01*
X107104552Y-68159552D01*
X107148867Y-68093231D01*
X107160500Y-68034748D01*
X122839500Y-68034748D01*
X122851133Y-68093231D01*
X122895448Y-68159552D01*
X122961769Y-68203867D01*
X123020252Y-68215500D01*
X126554890Y-68215500D01*
X126559748Y-68215500D01*
X126618231Y-68203867D01*
X126684552Y-68159552D01*
X126728867Y-68093231D01*
X126740500Y-68034748D01*
X126740500Y-66295252D01*
X126728867Y-66236769D01*
X126684552Y-66170448D01*
X126676441Y-66165028D01*
X126626340Y-66131551D01*
X126626338Y-66131550D01*
X126618231Y-66126133D01*
X126608667Y-66124230D01*
X126608666Y-66124230D01*
X126564511Y-66115447D01*
X126564506Y-66115446D01*
X126559748Y-66114500D01*
X123020252Y-66114500D01*
X123015494Y-66115446D01*
X123015488Y-66115447D01*
X122971333Y-66124230D01*
X122971330Y-66124231D01*
X122961769Y-66126133D01*
X122953663Y-66131549D01*
X122953659Y-66131551D01*
X122903558Y-66165028D01*
X122903555Y-66165030D01*
X122895448Y-66170448D01*
X122890030Y-66178555D01*
X122890028Y-66178558D01*
X122856551Y-66228659D01*
X122856549Y-66228663D01*
X122851133Y-66236769D01*
X122849231Y-66246330D01*
X122849230Y-66246333D01*
X122840447Y-66290488D01*
X122840446Y-66290494D01*
X122839500Y-66295252D01*
X122839500Y-68034748D01*
X107160500Y-68034748D01*
X107160500Y-66295252D01*
X107148867Y-66236769D01*
X107104552Y-66170448D01*
X107096441Y-66165028D01*
X107046340Y-66131551D01*
X107046338Y-66131550D01*
X107038231Y-66126133D01*
X107028667Y-66124230D01*
X107028666Y-66124230D01*
X106984511Y-66115447D01*
X106984506Y-66115446D01*
X106979748Y-66114500D01*
X103440252Y-66114500D01*
X103435494Y-66115446D01*
X103435488Y-66115447D01*
X103391333Y-66124230D01*
X103391330Y-66124231D01*
X103381769Y-66126133D01*
X103373663Y-66131549D01*
X103373659Y-66131551D01*
X103323558Y-66165028D01*
X103323555Y-66165030D01*
X103315448Y-66170448D01*
X103310030Y-66178555D01*
X103310028Y-66178558D01*
X103276551Y-66228659D01*
X103276549Y-66228663D01*
X103271133Y-66236769D01*
X103269231Y-66246330D01*
X103269230Y-66246333D01*
X103260447Y-66290488D01*
X103260446Y-66290494D01*
X103259500Y-66295252D01*
X103259500Y-68034748D01*
X100200500Y-68034748D01*
X100200500Y-65494748D01*
X103259500Y-65494748D01*
X103271133Y-65553231D01*
X103315448Y-65619552D01*
X103381769Y-65663867D01*
X103440252Y-65675500D01*
X106974890Y-65675500D01*
X106979748Y-65675500D01*
X107038231Y-65663867D01*
X107104552Y-65619552D01*
X107148867Y-65553231D01*
X107160500Y-65494748D01*
X122839500Y-65494748D01*
X122851133Y-65553231D01*
X122895448Y-65619552D01*
X122961769Y-65663867D01*
X123020252Y-65675500D01*
X126554890Y-65675500D01*
X126559748Y-65675500D01*
X126618231Y-65663867D01*
X126684552Y-65619552D01*
X126728867Y-65553231D01*
X126740500Y-65494748D01*
X126740500Y-63755252D01*
X126728867Y-63696769D01*
X126684552Y-63630448D01*
X126676441Y-63625028D01*
X126626340Y-63591551D01*
X126626338Y-63591550D01*
X126618231Y-63586133D01*
X126608667Y-63584230D01*
X126608666Y-63584230D01*
X126564511Y-63575447D01*
X126564506Y-63575446D01*
X126559748Y-63574500D01*
X123020252Y-63574500D01*
X123015494Y-63575446D01*
X123015488Y-63575447D01*
X122971333Y-63584230D01*
X122971330Y-63584231D01*
X122961769Y-63586133D01*
X122953663Y-63591549D01*
X122953659Y-63591551D01*
X122903558Y-63625028D01*
X122903555Y-63625030D01*
X122895448Y-63630448D01*
X122890030Y-63638555D01*
X122890028Y-63638558D01*
X122856551Y-63688659D01*
X122856549Y-63688663D01*
X122851133Y-63696769D01*
X122849231Y-63706330D01*
X122849230Y-63706333D01*
X122840447Y-63750488D01*
X122840446Y-63750494D01*
X122839500Y-63755252D01*
X122839500Y-65494748D01*
X107160500Y-65494748D01*
X107160500Y-63755252D01*
X107148867Y-63696769D01*
X107104552Y-63630448D01*
X107096441Y-63625028D01*
X107046340Y-63591551D01*
X107046338Y-63591550D01*
X107038231Y-63586133D01*
X107028667Y-63584230D01*
X107028666Y-63584230D01*
X106984511Y-63575447D01*
X106984506Y-63575446D01*
X106979748Y-63574500D01*
X103440252Y-63574500D01*
X103435494Y-63575446D01*
X103435488Y-63575447D01*
X103391333Y-63584230D01*
X103391330Y-63584231D01*
X103381769Y-63586133D01*
X103373663Y-63591549D01*
X103373659Y-63591551D01*
X103323558Y-63625028D01*
X103323555Y-63625030D01*
X103315448Y-63630448D01*
X103310030Y-63638555D01*
X103310028Y-63638558D01*
X103276551Y-63688659D01*
X103276549Y-63688663D01*
X103271133Y-63696769D01*
X103269231Y-63706330D01*
X103269230Y-63706333D01*
X103260447Y-63750488D01*
X103260446Y-63750494D01*
X103259500Y-63755252D01*
X103259500Y-65494748D01*
X100200500Y-65494748D01*
X100200500Y-62954748D01*
X103259500Y-62954748D01*
X103271133Y-63013231D01*
X103276550Y-63021338D01*
X103276551Y-63021340D01*
X103310028Y-63071441D01*
X103315448Y-63079552D01*
X103381769Y-63123867D01*
X103440252Y-63135500D01*
X106974890Y-63135500D01*
X106979748Y-63135500D01*
X107038231Y-63123867D01*
X107104552Y-63079552D01*
X107148867Y-63013231D01*
X107160500Y-62954748D01*
X107160500Y-62100000D01*
X121694318Y-62100000D01*
X121695165Y-62106434D01*
X121714108Y-62250326D01*
X121714109Y-62250331D01*
X121714956Y-62256762D01*
X121775464Y-62402841D01*
X121871718Y-62528282D01*
X121997159Y-62624536D01*
X122143238Y-62685044D01*
X122300000Y-62705682D01*
X122456762Y-62685044D01*
X122462757Y-62682560D01*
X122469027Y-62680881D01*
X122469674Y-62683297D01*
X122519339Y-62679247D01*
X122571341Y-62710539D01*
X122780237Y-62949890D01*
X122876940Y-63060691D01*
X122879488Y-63062911D01*
X122891073Y-63073005D01*
X122890077Y-63074147D01*
X122892890Y-63075725D01*
X122895448Y-63079552D01*
X122903646Y-63085029D01*
X122913689Y-63092709D01*
X122919116Y-63097438D01*
X122924395Y-63100898D01*
X122927439Y-63102344D01*
X122927440Y-63102345D01*
X122928257Y-63102733D01*
X122940778Y-63109841D01*
X122953658Y-63118448D01*
X122953660Y-63118449D01*
X122961769Y-63123867D01*
X123020252Y-63135500D01*
X126554890Y-63135500D01*
X126559748Y-63135500D01*
X126618231Y-63123867D01*
X126684552Y-63079552D01*
X126728867Y-63013231D01*
X126740500Y-62954748D01*
X126740500Y-61215252D01*
X126728867Y-61156769D01*
X126684552Y-61090448D01*
X126676441Y-61085028D01*
X126626340Y-61051551D01*
X126626338Y-61051550D01*
X126618231Y-61046133D01*
X126608667Y-61044230D01*
X126608666Y-61044230D01*
X126564511Y-61035447D01*
X126564506Y-61035446D01*
X126559748Y-61034500D01*
X123020252Y-61034500D01*
X123015494Y-61035446D01*
X123015488Y-61035447D01*
X122971333Y-61044230D01*
X122971330Y-61044231D01*
X122961769Y-61046133D01*
X122953663Y-61051549D01*
X122953659Y-61051551D01*
X122903554Y-61085031D01*
X122903552Y-61085032D01*
X122895448Y-61090448D01*
X122890033Y-61098550D01*
X122887564Y-61101020D01*
X122876393Y-61114128D01*
X122480220Y-61481880D01*
X122442942Y-61503643D01*
X122399946Y-61507475D01*
X122306435Y-61495165D01*
X122306434Y-61495165D01*
X122300000Y-61494318D01*
X122293566Y-61495165D01*
X122149673Y-61514108D01*
X122149666Y-61514109D01*
X122143238Y-61514956D01*
X122137243Y-61517439D01*
X122137240Y-61517440D01*
X122003154Y-61572980D01*
X122003149Y-61572982D01*
X121997159Y-61575464D01*
X121992015Y-61579411D01*
X121992010Y-61579414D01*
X121876871Y-61667763D01*
X121876866Y-61667767D01*
X121871718Y-61671718D01*
X121867767Y-61676866D01*
X121867763Y-61676871D01*
X121779414Y-61792010D01*
X121779411Y-61792015D01*
X121775464Y-61797159D01*
X121772982Y-61803149D01*
X121772980Y-61803154D01*
X121717440Y-61937240D01*
X121714956Y-61943238D01*
X121714109Y-61949666D01*
X121714108Y-61949673D01*
X121695165Y-62093566D01*
X121694318Y-62100000D01*
X107160500Y-62100000D01*
X107160500Y-61215252D01*
X107148867Y-61156769D01*
X107104552Y-61090448D01*
X107096441Y-61085028D01*
X107046340Y-61051551D01*
X107046338Y-61051550D01*
X107038231Y-61046133D01*
X107028667Y-61044230D01*
X107028666Y-61044230D01*
X106984511Y-61035447D01*
X106984506Y-61035446D01*
X106979748Y-61034500D01*
X103440252Y-61034500D01*
X103435494Y-61035446D01*
X103435488Y-61035447D01*
X103391333Y-61044230D01*
X103391330Y-61044231D01*
X103381769Y-61046133D01*
X103373663Y-61051549D01*
X103373659Y-61051551D01*
X103323558Y-61085028D01*
X103323555Y-61085030D01*
X103315448Y-61090448D01*
X103310030Y-61098555D01*
X103310028Y-61098558D01*
X103276551Y-61148659D01*
X103276549Y-61148663D01*
X103271133Y-61156769D01*
X103269231Y-61166330D01*
X103269230Y-61166333D01*
X103260447Y-61210488D01*
X103260446Y-61210494D01*
X103259500Y-61215252D01*
X103259500Y-62954748D01*
X100200500Y-62954748D01*
X100200500Y-60414748D01*
X103259500Y-60414748D01*
X103271133Y-60473231D01*
X103315448Y-60539552D01*
X103381769Y-60583867D01*
X103440252Y-60595500D01*
X106974890Y-60595500D01*
X106979748Y-60595500D01*
X107038231Y-60583867D01*
X107104552Y-60539552D01*
X107148867Y-60473231D01*
X107160500Y-60414748D01*
X122839500Y-60414748D01*
X122851133Y-60473231D01*
X122895448Y-60539552D01*
X122961769Y-60583867D01*
X123020252Y-60595500D01*
X126554890Y-60595500D01*
X126559748Y-60595500D01*
X126618231Y-60583867D01*
X126684552Y-60539552D01*
X126728867Y-60473231D01*
X126740500Y-60414748D01*
X126740500Y-58675252D01*
X126728867Y-58616769D01*
X126684552Y-58550448D01*
X126676441Y-58545028D01*
X126626340Y-58511551D01*
X126626338Y-58511550D01*
X126618231Y-58506133D01*
X126608667Y-58504230D01*
X126608666Y-58504230D01*
X126564511Y-58495447D01*
X126564506Y-58495446D01*
X126559748Y-58494500D01*
X123020252Y-58494500D01*
X123015494Y-58495446D01*
X123015488Y-58495447D01*
X122971333Y-58504230D01*
X122971330Y-58504231D01*
X122961769Y-58506133D01*
X122953663Y-58511549D01*
X122953659Y-58511551D01*
X122903558Y-58545028D01*
X122903555Y-58545030D01*
X122895448Y-58550448D01*
X122890030Y-58558555D01*
X122890028Y-58558558D01*
X122856551Y-58608659D01*
X122856549Y-58608663D01*
X122851133Y-58616769D01*
X122849231Y-58626330D01*
X122849230Y-58626333D01*
X122840447Y-58670488D01*
X122840446Y-58670494D01*
X122839500Y-58675252D01*
X122839500Y-60414748D01*
X107160500Y-60414748D01*
X107160500Y-58675252D01*
X107148867Y-58616769D01*
X107104552Y-58550448D01*
X107096441Y-58545028D01*
X107046340Y-58511551D01*
X107046338Y-58511550D01*
X107038231Y-58506133D01*
X107028667Y-58504230D01*
X107028666Y-58504230D01*
X106984511Y-58495447D01*
X106984506Y-58495446D01*
X106979748Y-58494500D01*
X103440252Y-58494500D01*
X103435494Y-58495446D01*
X103435488Y-58495447D01*
X103391333Y-58504230D01*
X103391330Y-58504231D01*
X103381769Y-58506133D01*
X103373663Y-58511549D01*
X103373659Y-58511551D01*
X103323558Y-58545028D01*
X103323555Y-58545030D01*
X103315448Y-58550448D01*
X103310030Y-58558555D01*
X103310028Y-58558558D01*
X103276551Y-58608659D01*
X103276549Y-58608663D01*
X103271133Y-58616769D01*
X103269231Y-58626330D01*
X103269230Y-58626333D01*
X103260447Y-58670488D01*
X103260446Y-58670494D01*
X103259500Y-58675252D01*
X103259500Y-60414748D01*
X100200500Y-60414748D01*
X100200500Y-57869840D01*
X103260000Y-57869840D01*
X103260947Y-57879461D01*
X103269701Y-57923473D01*
X103277020Y-57941142D01*
X103310389Y-57991082D01*
X103323917Y-58004610D01*
X103373857Y-58037979D01*
X103391526Y-58045298D01*
X103435538Y-58054052D01*
X103445160Y-58055000D01*
X105096967Y-58055000D01*
X105107245Y-58052245D01*
X105110000Y-58041967D01*
X105310000Y-58041967D01*
X105312754Y-58052245D01*
X105323033Y-58055000D01*
X106974840Y-58055000D01*
X106984461Y-58054052D01*
X107028473Y-58045298D01*
X107046142Y-58037979D01*
X107096082Y-58004610D01*
X107109610Y-57991082D01*
X107142979Y-57941142D01*
X107150298Y-57923473D01*
X107159052Y-57879461D01*
X107160000Y-57869840D01*
X122840000Y-57869840D01*
X122840947Y-57879461D01*
X122849701Y-57923473D01*
X122857020Y-57941142D01*
X122890389Y-57991082D01*
X122903917Y-58004610D01*
X122953857Y-58037979D01*
X122971526Y-58045298D01*
X123015538Y-58054052D01*
X123025160Y-58055000D01*
X124676967Y-58055000D01*
X124687245Y-58052245D01*
X124690000Y-58041967D01*
X124890000Y-58041967D01*
X124892754Y-58052245D01*
X124903033Y-58055000D01*
X126554840Y-58055000D01*
X126564461Y-58054052D01*
X126608473Y-58045298D01*
X126626142Y-58037979D01*
X126676082Y-58004610D01*
X126689610Y-57991082D01*
X126722979Y-57941142D01*
X126730298Y-57923473D01*
X126739052Y-57879461D01*
X126740000Y-57869840D01*
X126740000Y-57118033D01*
X126737245Y-57107754D01*
X126726967Y-57105000D01*
X124903033Y-57105000D01*
X124892754Y-57107754D01*
X124890000Y-57118033D01*
X124890000Y-58041967D01*
X124690000Y-58041967D01*
X124690000Y-57118033D01*
X124687245Y-57107754D01*
X124676967Y-57105000D01*
X122853033Y-57105000D01*
X122842754Y-57107754D01*
X122840000Y-57118033D01*
X122840000Y-57869840D01*
X107160000Y-57869840D01*
X107160000Y-57118033D01*
X107157245Y-57107754D01*
X107146967Y-57105000D01*
X105323033Y-57105000D01*
X105312754Y-57107754D01*
X105310000Y-57118033D01*
X105310000Y-58041967D01*
X105110000Y-58041967D01*
X105110000Y-57118033D01*
X105107245Y-57107754D01*
X105096967Y-57105000D01*
X103273033Y-57105000D01*
X103262754Y-57107754D01*
X103260000Y-57118033D01*
X103260000Y-57869840D01*
X100200500Y-57869840D01*
X100200500Y-56891967D01*
X103260000Y-56891967D01*
X103262754Y-56902245D01*
X103273033Y-56905000D01*
X105096967Y-56905000D01*
X105107245Y-56902245D01*
X105110000Y-56891967D01*
X105310000Y-56891967D01*
X105312754Y-56902245D01*
X105323033Y-56905000D01*
X107146967Y-56905000D01*
X107157245Y-56902245D01*
X107160000Y-56891967D01*
X122840000Y-56891967D01*
X122842754Y-56902245D01*
X122853033Y-56905000D01*
X124676967Y-56905000D01*
X124687245Y-56902245D01*
X124690000Y-56891967D01*
X124890000Y-56891967D01*
X124892754Y-56902245D01*
X124903033Y-56905000D01*
X126726967Y-56905000D01*
X126737245Y-56902245D01*
X126740000Y-56891967D01*
X126740000Y-56140160D01*
X126739052Y-56130538D01*
X126730298Y-56086526D01*
X126722979Y-56068857D01*
X126689610Y-56018917D01*
X126676082Y-56005389D01*
X126626142Y-55972020D01*
X126608473Y-55964701D01*
X126564461Y-55955947D01*
X126554840Y-55955000D01*
X124903033Y-55955000D01*
X124892754Y-55957754D01*
X124890000Y-55968033D01*
X124890000Y-56891967D01*
X124690000Y-56891967D01*
X124690000Y-55968033D01*
X124687245Y-55957754D01*
X124676967Y-55955000D01*
X123025160Y-55955000D01*
X123015538Y-55955947D01*
X122971526Y-55964701D01*
X122953857Y-55972020D01*
X122903917Y-56005389D01*
X122890389Y-56018917D01*
X122857020Y-56068857D01*
X122849701Y-56086526D01*
X122840947Y-56130538D01*
X122840000Y-56140160D01*
X122840000Y-56891967D01*
X107160000Y-56891967D01*
X107160000Y-56140160D01*
X107159052Y-56130538D01*
X107150298Y-56086526D01*
X107142979Y-56068857D01*
X107109610Y-56018917D01*
X107096082Y-56005389D01*
X107046142Y-55972020D01*
X107028473Y-55964701D01*
X106984461Y-55955947D01*
X106974840Y-55955000D01*
X105323033Y-55955000D01*
X105312754Y-55957754D01*
X105310000Y-55968033D01*
X105310000Y-56891967D01*
X105110000Y-56891967D01*
X105110000Y-55968033D01*
X105107245Y-55957754D01*
X105096967Y-55955000D01*
X103445160Y-55955000D01*
X103435538Y-55955947D01*
X103391526Y-55964701D01*
X103373857Y-55972020D01*
X103323917Y-56005389D01*
X103310389Y-56018917D01*
X103277020Y-56068857D01*
X103269701Y-56086526D01*
X103260947Y-56130538D01*
X103260000Y-56140160D01*
X103260000Y-56891967D01*
X100200500Y-56891967D01*
X100200500Y-55125000D01*
X100769318Y-55125000D01*
X100770165Y-55131434D01*
X100789108Y-55275326D01*
X100789109Y-55275331D01*
X100789956Y-55281762D01*
X100792439Y-55287758D01*
X100792440Y-55287759D01*
X100840108Y-55402841D01*
X100850464Y-55427841D01*
X100854413Y-55432988D01*
X100854414Y-55432989D01*
X100918997Y-55517156D01*
X100946718Y-55553282D01*
X101072159Y-55649536D01*
X101218238Y-55710044D01*
X101375000Y-55730682D01*
X101531762Y-55710044D01*
X101677841Y-55649536D01*
X101803282Y-55553282D01*
X101899536Y-55427841D01*
X101918563Y-55381902D01*
X101929230Y-55362582D01*
X101936511Y-55352301D01*
X102099579Y-54991014D01*
X102163782Y-54848772D01*
X102200309Y-54806334D01*
X102254016Y-54790500D01*
X102491915Y-54790500D01*
X102526150Y-54796608D01*
X102556161Y-54814177D01*
X102744329Y-54974673D01*
X103321682Y-55467121D01*
X103365297Y-55495638D01*
X103370589Y-55498207D01*
X103373577Y-55499213D01*
X103373579Y-55499214D01*
X103376053Y-55500047D01*
X103376000Y-55500204D01*
X103376483Y-55500402D01*
X103376103Y-55501329D01*
X103378379Y-55501601D01*
X103381769Y-55503867D01*
X103391337Y-55505769D01*
X103392296Y-55506167D01*
X103401535Y-55508631D01*
X103419929Y-55514828D01*
X103471862Y-55518515D01*
X103477735Y-55518185D01*
X103483292Y-55517155D01*
X103501319Y-55515500D01*
X106974890Y-55515500D01*
X106979748Y-55515500D01*
X107038231Y-55503867D01*
X107104552Y-55459552D01*
X107148867Y-55393231D01*
X107160500Y-55334748D01*
X107160500Y-53595252D01*
X107148867Y-53536769D01*
X107104552Y-53470448D01*
X107096441Y-53465028D01*
X107046340Y-53431551D01*
X107046338Y-53431550D01*
X107038231Y-53426133D01*
X107028667Y-53424230D01*
X107028666Y-53424230D01*
X106984511Y-53415447D01*
X106984506Y-53415446D01*
X106979748Y-53414500D01*
X106974890Y-53414500D01*
X103501325Y-53414500D01*
X103483290Y-53412843D01*
X103480837Y-53412388D01*
X103480825Y-53412386D01*
X103477735Y-53411814D01*
X103471862Y-53411484D01*
X103468736Y-53411705D01*
X103468724Y-53411706D01*
X103426213Y-53414724D01*
X103426206Y-53414725D01*
X103419929Y-53415171D01*
X103413967Y-53417179D01*
X103413958Y-53417181D01*
X103401518Y-53421372D01*
X103392291Y-53423832D01*
X103391325Y-53424231D01*
X103381769Y-53426133D01*
X103378372Y-53428402D01*
X103376099Y-53428675D01*
X103376476Y-53429597D01*
X103376003Y-53429790D01*
X103376057Y-53429949D01*
X103373560Y-53430790D01*
X103373555Y-53430791D01*
X103370590Y-53431791D01*
X103365300Y-53434359D01*
X103362679Y-53436072D01*
X103362666Y-53436080D01*
X103324326Y-53461149D01*
X103324320Y-53461153D01*
X103321684Y-53462877D01*
X103319291Y-53464917D01*
X103319287Y-53464921D01*
X102556161Y-54115823D01*
X102526150Y-54133392D01*
X102491915Y-54139500D01*
X102053534Y-54139500D01*
X102044905Y-54139123D01*
X102014819Y-54136490D01*
X102014814Y-54136490D01*
X102006193Y-54135736D01*
X101997834Y-54137975D01*
X101997830Y-54137976D01*
X101968649Y-54145795D01*
X101960224Y-54147662D01*
X101930485Y-54152906D01*
X101930475Y-54152909D01*
X101921955Y-54154412D01*
X101914459Y-54158739D01*
X101908971Y-54160737D01*
X101903678Y-54163205D01*
X101895316Y-54165446D01*
X101888223Y-54170411D01*
X101888219Y-54170414D01*
X101863483Y-54187734D01*
X101856206Y-54192370D01*
X101830045Y-54207475D01*
X101830042Y-54207477D01*
X101822545Y-54211806D01*
X101816979Y-54218438D01*
X101816979Y-54218439D01*
X101797568Y-54241571D01*
X101791736Y-54247936D01*
X101759214Y-54280458D01*
X101729938Y-54300688D01*
X101152039Y-54561528D01*
X101152032Y-54561531D01*
X101147696Y-54563489D01*
X101143816Y-54566236D01*
X101143808Y-54566241D01*
X101137410Y-54570772D01*
X101118094Y-54581435D01*
X101078154Y-54597979D01*
X101078143Y-54597984D01*
X101072159Y-54600464D01*
X101067015Y-54604411D01*
X101067010Y-54604414D01*
X100951871Y-54692763D01*
X100951866Y-54692767D01*
X100946718Y-54696718D01*
X100942767Y-54701866D01*
X100942763Y-54701871D01*
X100854414Y-54817010D01*
X100854411Y-54817015D01*
X100850464Y-54822159D01*
X100847982Y-54828149D01*
X100847980Y-54828154D01*
X100792440Y-54962240D01*
X100789956Y-54968238D01*
X100789109Y-54974666D01*
X100789108Y-54974673D01*
X100773456Y-55093566D01*
X100769318Y-55125000D01*
X100200500Y-55125000D01*
X100200500Y-52794748D01*
X103259500Y-52794748D01*
X103271133Y-52853231D01*
X103315448Y-52919552D01*
X103381769Y-52963867D01*
X103440252Y-52975500D01*
X106949382Y-52975500D01*
X106952082Y-52976120D01*
X106956268Y-52975500D01*
X106979748Y-52975500D01*
X107038231Y-52963867D01*
X107069538Y-52942946D01*
X107075337Y-52939356D01*
X107101576Y-52924341D01*
X107495967Y-52587948D01*
X107753786Y-52368044D01*
X107797491Y-52346520D01*
X107846170Y-52348449D01*
X107888036Y-52373362D01*
X108070504Y-52555830D01*
X108091964Y-52587948D01*
X108099500Y-52625834D01*
X108099500Y-54231141D01*
X108093104Y-54266147D01*
X107872860Y-54848772D01*
X107867224Y-54863680D01*
X107866424Y-54868356D01*
X107866421Y-54868370D01*
X107865099Y-54876108D01*
X107858980Y-54897305D01*
X107842438Y-54937242D01*
X107842435Y-54937252D01*
X107839956Y-54943238D01*
X107839109Y-54949666D01*
X107839109Y-54949669D01*
X107820165Y-55093566D01*
X107819318Y-55100000D01*
X107820165Y-55106434D01*
X107839108Y-55250326D01*
X107839109Y-55250331D01*
X107839956Y-55256762D01*
X107842439Y-55262758D01*
X107842440Y-55262759D01*
X107887542Y-55371646D01*
X107900464Y-55402841D01*
X107904413Y-55407988D01*
X107904414Y-55407989D01*
X107989223Y-55518515D01*
X107996718Y-55528282D01*
X108122159Y-55624536D01*
X108268238Y-55685044D01*
X108425000Y-55705682D01*
X108581762Y-55685044D01*
X108727841Y-55624536D01*
X108853282Y-55528282D01*
X108949536Y-55402841D01*
X108977741Y-55334748D01*
X122839500Y-55334748D01*
X122840446Y-55339506D01*
X122840447Y-55339511D01*
X122843763Y-55356180D01*
X122851133Y-55393231D01*
X122856550Y-55401338D01*
X122856551Y-55401340D01*
X122870253Y-55421846D01*
X122895448Y-55459552D01*
X122961769Y-55503867D01*
X123020252Y-55515500D01*
X126554890Y-55515500D01*
X126559748Y-55515500D01*
X126618231Y-55503867D01*
X126684552Y-55459552D01*
X126728867Y-55393231D01*
X126740500Y-55334748D01*
X126740500Y-53595252D01*
X126728867Y-53536769D01*
X126684552Y-53470448D01*
X126676441Y-53465028D01*
X126626340Y-53431551D01*
X126626338Y-53431550D01*
X126618231Y-53426133D01*
X126608667Y-53424230D01*
X126608666Y-53424230D01*
X126564511Y-53415447D01*
X126564506Y-53415446D01*
X126559748Y-53414500D01*
X123020252Y-53414500D01*
X123015494Y-53415446D01*
X123015488Y-53415447D01*
X122971333Y-53424230D01*
X122971330Y-53424231D01*
X122961769Y-53426133D01*
X122953663Y-53431549D01*
X122953659Y-53431551D01*
X122903558Y-53465028D01*
X122903555Y-53465030D01*
X122895448Y-53470448D01*
X122890030Y-53478555D01*
X122890028Y-53478558D01*
X122856551Y-53528659D01*
X122856549Y-53528663D01*
X122851133Y-53536769D01*
X122849231Y-53546330D01*
X122849230Y-53546333D01*
X122840447Y-53590488D01*
X122840446Y-53590494D01*
X122839500Y-53595252D01*
X122839500Y-55334748D01*
X108977741Y-55334748D01*
X109010044Y-55256762D01*
X109030682Y-55100000D01*
X109010044Y-54943238D01*
X108991017Y-54897305D01*
X108984895Y-54876092D01*
X108982775Y-54863679D01*
X108756895Y-54266147D01*
X108750500Y-54231142D01*
X108750500Y-52794748D01*
X122839500Y-52794748D01*
X122851133Y-52853231D01*
X122895448Y-52919552D01*
X122961769Y-52963867D01*
X123020252Y-52975500D01*
X126554890Y-52975500D01*
X126559748Y-52975500D01*
X126618231Y-52963867D01*
X126684552Y-52919552D01*
X126728867Y-52853231D01*
X126740500Y-52794748D01*
X126740500Y-51055252D01*
X126728867Y-50996769D01*
X126684552Y-50930448D01*
X126673949Y-50923363D01*
X126626340Y-50891551D01*
X126626338Y-50891550D01*
X126618231Y-50886133D01*
X126608667Y-50884230D01*
X126608666Y-50884230D01*
X126564511Y-50875447D01*
X126564506Y-50875446D01*
X126559748Y-50874500D01*
X123020252Y-50874500D01*
X123015494Y-50875446D01*
X123015488Y-50875447D01*
X122971333Y-50884230D01*
X122971330Y-50884231D01*
X122961769Y-50886133D01*
X122953663Y-50891549D01*
X122953659Y-50891551D01*
X122903558Y-50925028D01*
X122903555Y-50925030D01*
X122895448Y-50930448D01*
X122890030Y-50938555D01*
X122890028Y-50938558D01*
X122856551Y-50988659D01*
X122856549Y-50988663D01*
X122851133Y-50996769D01*
X122849231Y-51006330D01*
X122849230Y-51006333D01*
X122840447Y-51050488D01*
X122840446Y-51050494D01*
X122839500Y-51055252D01*
X122839500Y-52794748D01*
X108750500Y-52794748D01*
X108750500Y-52468526D01*
X108750877Y-52459898D01*
X108753508Y-52429821D01*
X108754263Y-52421193D01*
X108744201Y-52383642D01*
X108742335Y-52375224D01*
X108737614Y-52348449D01*
X108735588Y-52336955D01*
X108731255Y-52329450D01*
X108729259Y-52323967D01*
X108726795Y-52318684D01*
X108724554Y-52310316D01*
X108702260Y-52278477D01*
X108697633Y-52271215D01*
X108678194Y-52237545D01*
X108648418Y-52212559D01*
X108642060Y-52206734D01*
X108143268Y-51707942D01*
X108137433Y-51701573D01*
X108118025Y-51678443D01*
X108118021Y-51678440D01*
X108112455Y-51671806D01*
X108078793Y-51652371D01*
X108071512Y-51647732D01*
X108046781Y-51630415D01*
X108046779Y-51630414D01*
X108039684Y-51625446D01*
X108031317Y-51623204D01*
X108026031Y-51620739D01*
X108020544Y-51618741D01*
X108013045Y-51614412D01*
X108004519Y-51612908D01*
X108004515Y-51612907D01*
X107974778Y-51607664D01*
X107966349Y-51605795D01*
X107958473Y-51603684D01*
X107928807Y-51595736D01*
X107920181Y-51596490D01*
X107915935Y-51596119D01*
X107860318Y-51572819D01*
X107105087Y-50928651D01*
X107105082Y-50928647D01*
X107101576Y-50925657D01*
X107075341Y-50910643D01*
X107069510Y-50907033D01*
X107046340Y-50891551D01*
X107046338Y-50891550D01*
X107038231Y-50886133D01*
X107028667Y-50884230D01*
X107028666Y-50884230D01*
X106984511Y-50875447D01*
X106984506Y-50875446D01*
X106979748Y-50874500D01*
X106974890Y-50874500D01*
X106962729Y-50874500D01*
X106956275Y-50874500D01*
X106952081Y-50873879D01*
X106949376Y-50874500D01*
X103440252Y-50874500D01*
X103435494Y-50875446D01*
X103435488Y-50875447D01*
X103391333Y-50884230D01*
X103391330Y-50884231D01*
X103381769Y-50886133D01*
X103373663Y-50891549D01*
X103373659Y-50891551D01*
X103323558Y-50925028D01*
X103323555Y-50925030D01*
X103315448Y-50930448D01*
X103310030Y-50938555D01*
X103310028Y-50938558D01*
X103276551Y-50988659D01*
X103276549Y-50988663D01*
X103271133Y-50996769D01*
X103269231Y-51006330D01*
X103269230Y-51006333D01*
X103260447Y-51050488D01*
X103260446Y-51050494D01*
X103259500Y-51055252D01*
X103259500Y-52794748D01*
X100200500Y-52794748D01*
X100200500Y-50299500D01*
X100213763Y-50250000D01*
X100250000Y-50213763D01*
X100299500Y-50200500D01*
X129700500Y-50200500D01*
X129750000Y-50213763D01*
G37*
%TD.AperFunction*%
%TD*%
M02*
